<svg version="1.1" xmlns="http://www.w3.org/2000/svg" xmlns:xlink="http://www.w3.org/1999/xlink" width="620" height="605.65775" viewBox="0,0,620,605.65775"><g transform="translate(69.5,122.82887)"><g stroke-miterlimit="10"><path d="M-69.5,421.31374v-482.62745h35.2549v482.62745z" fill="#000000" stroke="none" stroke-width="0" stroke-linecap="butt"/><path d="M549.27814,-23.68537l-606.62545,-0.12345l0.01033,-37.56282c0,0 196.42242,0.03997 296.33755,0.06031c102.23988,0.02081 310.2879,0.06315 310.2879,0.06315z" fill="#000000" stroke="none" stroke-width="0" stroke-linecap="butt"/><path d="M541.98423,421.37168l-595.68446,-0.13978l0.01014,-42.52512l595.68446,0.13978z" fill="#000000" stroke="none" stroke-width="0" stroke-linecap="butt"/><path d="M506.73529,421.31374v-481.41176h43.76471v481.41176z" fill="#000000" stroke="none" stroke-width="0" stroke-linecap="butt"/><path d="M-54.09789,180.00001l293.99004,-293.99004l293.99004,293.99004l-293.99004,293.99004z" fill="none" stroke="#000000" stroke-width="12.5" stroke-linecap="butt"/><path d="M208.89216,60.04888c0,-21.48496 17.417,-38.90196 38.90196,-38.90196c21.48496,0 38.90196,17.417 38.90196,38.90196c0,21.48496 -17.417,38.90196 -38.90196,38.90196c-21.48496,0 -38.90196,-17.417 -38.90196,-38.90196z" fill="#000000" stroke="#000000" stroke-width="12.5" stroke-linecap="butt"/><path d="M387.59804,195.5979c0,-10.40677 8.43636,-18.84314 18.84314,-18.84314c10.40677,0 18.84314,8.43636 18.84314,18.84314c0,10.40677 -8.43636,18.84314 -18.84314,18.84314c-10.40677,0 -18.84314,-8.43636 -18.84314,-18.84314z" fill="#000000" stroke="#000000" stroke-width="12.5" stroke-linecap="butt"/><path d="M139.59804,291.63711c0,-17.79224 14.42345,-32.21569 32.21569,-32.21569c17.79224,0 32.21569,14.42345 32.21569,32.21569c0,17.79224 -14.42345,32.21569 -32.21569,32.21569c-17.79224,0 -32.21569,-14.42345 -32.21569,-32.21569z" fill="#000000" stroke="#000000" stroke-width="12.5" stroke-linecap="butt"/><path d="M88.53922,146.3626l126.43137,65.64706" fill="none" stroke="#000000" stroke-width="12.5" stroke-linecap="round"/><path d="M271.5,194.38222l51.66667,-51.66667" fill="none" stroke="#000000" stroke-width="12.5" stroke-linecap="round"/><path d="M381.51961,179.18613l-12.15686,-70.5098" fill="none" stroke="#000000" stroke-width="12.5" stroke-linecap="round"/><path d="M278.18627,297.10769h111.84314" fill="none" stroke="#000000" stroke-width="12.5" stroke-linecap="round"/><path d="M379.08824,303.18613l-121.56863,51.05882" fill="none" stroke="#000000" stroke-width="12.5" stroke-linecap="round"/><path d="M-53.20679,174.54888l-9,-202.04888l223.2068,-8l-107,109.04888z" fill="#000000" stroke="#000000" stroke-width="0" stroke-linecap="butt"/><path d="M315.37216,-42.55452l202.04888,-9.00001l8.00001,223.2068l-109.04889,-107z" fill="#000000" stroke="#000000" stroke-width="0" stroke-linecap="butt"/><path d="M529,192.08326l9,202.04888l-223.20679,8l107,-109.04888z" fill="#000000" stroke="#000000" stroke-width="0" stroke-linecap="butt"/><path d="M154.42105,397.93736l-202.04888,9l-7.99999,-223.20679l109.04888,107z" fill="#000000" stroke="#000000" stroke-width="0" stroke-linecap="butt"/></g></g></svg>