<svg version="1.1" xmlns="http://www.w3.org/2000/svg" xmlns:xlink="http://www.w3.org/1999/xlink" width="720" height="540" viewBox="0,0,720,540"><defs><clipPath id="clip-1"><rect x="-240" y="-180" transform="scale(0.5,0.5)" width="1440" height="1080" fill="none" fill-rule="nonzero" stroke-width="0.5" stroke-linecap="butt"/></clipPath></defs><g transform="translate(120,90)"><g clip-path="url(#clip-1)" data-paper-data="{&quot;isPaintingLayer&quot;:true}" stroke="none" stroke-linejoin="miter" stroke-miterlimit="10" stroke-dasharray="" stroke-dashoffset="0" style="mix-blend-mode: normal"><path d="M-240,-180h960v720h-960z" fill-opacity="0" fill="#000000" fill-rule="evenodd" stroke-width="1" stroke-linecap="square"/><path d="M162.90781,187.71875c-0.30208,1.4375 -0.80208,2.76042 -1.5,3.96875c-0.6875,1.20833 -1.67187,2.23438 -2.95312,3.07813c-1.28125,0.84375 -2.90104,1.49479 -4.85937,1.95313c-1.94792,0.45833 -4.32292,0.6875 -7.125,0.6875c-2.80208,0 -5.10417,-0.22917 -6.90625,-0.6875c-1.80208,-0.46875 -3.19792,-1.15104 -4.1875,-2.04687c-0.97917,-0.90625 -1.5625,-1.98958 -1.75,-3.25c-0.1875,-1.27083 -0.13021,-2.63021 0.17188,-4.07812l3.1875,-15c0.3125,-1.44792 0.8125,-2.77083 1.5,-3.96875c0.6875,-1.20833 1.67188,-2.23958 2.95313,-3.09375c1.29167,-0.86458 2.92188,-1.52604 4.89063,-1.98437c1.96875,-0.46875 4.35417,-0.70312 7.15625,-0.70312c2.8125,0 5.11458,0.23958 6.90625,0.71875c1.79167,0.46875 3.17188,1.16146 4.14063,2.07813c0.97917,0.91667 1.5625,2.00521 1.75,3.26563c0.1875,1.25 0.125,2.60417 -0.1875,4.0625zM145.92344,186.125c-0.0625,0.29167 -0.01562,0.53125 0.14063,0.71875c0.15625,0.17708 0.89063,0.26563 2.20313,0.26563c1.38542,0 2.25521,-0.13021 2.60938,-0.39062c0.36458,-0.27083 0.58333,-0.59375 0.65625,-0.96875l2.51563,-11.82812c0.05208,-0.26042 -0.00521,-0.47917 -0.17187,-0.65625c-0.16667,-0.1875 -0.90625,-0.28125 -2.21875,-0.28125c-1.375,0 -2.23958,0.13542 -2.59375,0.40625c-0.35417,0.26042 -0.5625,0.5625 -0.625,0.90625zM174.24198,196.75h-6.8125c-0.85417,0 -1.46875,-0.23437 -1.84375,-0.70312c-0.375,-0.47917 -0.47917,-1.13542 -0.3125,-1.96875l6.0625,-28.51562c0.17708,-0.77083 0.49479,-1.34896 0.95313,-1.73437c0.46875,-0.38542 1.09375,-0.57812 1.875,-0.57812h13.45313c4.30208,0 7.09896,0.91146 8.39063,2.73438c1.30208,1.82292 1.65625,4.14063 1.0625,6.95313l-1.1875,5.625c-0.58333,2.75 -1.85937,4.98958 -3.82812,6.71875c-1.96875,1.71875 -5.0625,2.57812 -9.28125,2.57812h-4.3125l-1.40625,6.59375c-0.15625,0.76042 -0.46875,1.33333 -0.9375,1.71875c-0.46875,0.38542 -1.09375,0.57813 -1.875,0.57813zM181.46073,173.29688l-1.01562,4.82813h2.82813c0.57292,0 0.96875,-0.13542 1.1875,-0.40625c0.21875,-0.27083 0.36979,-0.61458 0.45313,-1.03125l0.5,-2.32812c0.08333,-0.375 0.08854,-0.64583 0.01563,-0.8125c-0.0625,-0.16667 -0.3125,-0.25 -0.75,-0.25zM210.81242,196.75h-7.125c-0.85417,0 -1.46875,-0.23437 -1.84375,-0.70312c-0.375,-0.47917 -0.47917,-1.13542 -0.3125,-1.96875l4.35938,-20.51562h-5.34375c-0.85417,0 -1.46354,-0.23958 -1.82812,-0.71875c-0.36458,-0.47917 -0.46354,-1.13021 -0.29687,-1.95312l1.125,-5.32812c0.17708,-0.77083 0.49479,-1.34896 0.95313,-1.73437c0.46875,-0.38542 1.08854,-0.57812 1.85938,-0.57812h23.23438c0.86458,0 1.47917,0.23958 1.84375,0.71875c0.375,0.47917 0.46875,1.13542 0.28125,1.96875l-1.125,5.32813c-0.15625,0.76042 -0.46875,1.33333 -0.9375,1.71875c-0.46875,0.38542 -1.09375,0.57813 -1.875,0.57813h-5.73437l-4.4375,20.89062c-0.15625,0.76042 -0.46875,1.33333 -0.9375,1.71875c-0.46875,0.38542 -1.08854,0.57813 -1.85937,0.57813zM225.59824,196.75c-0.85417,0 -1.46875,-0.23437 -1.84375,-0.70312c-0.375,-0.47917 -0.47917,-1.13542 -0.3125,-1.96875l1.125,-5.23437c0.15625,-0.77083 0.46875,-1.34896 0.9375,-1.73437c0.46875,-0.38542 1.09375,-0.57812 1.875,-0.57812h3.60938l2.75,-12.96875h-3.21875c-0.86458,0 -1.47917,-0.23958 -1.84375,-0.71875c-0.36458,-0.47917 -0.46354,-1.13021 -0.29687,-1.95312l1.125,-5.32812c0.17708,-0.77083 0.49479,-1.34896 0.95313,-1.73437c0.46875,-0.38542 1.09375,-0.57812 1.875,-0.57812h18.73438c0.85417,0 1.46875,0.23958 1.84375,0.71875c0.38542,0.47917 0.48438,1.13542 0.29688,1.96875l-1.125,5.32813c-0.15625,0.76042 -0.47396,1.33333 -0.95312,1.71875c-0.46875,0.38542 -1.09375,0.57813 -1.875,0.57813h-3.53125l-2.75,12.96875h3.14063c0.85417,0 1.46875,0.23958 1.84375,0.71875c0.375,0.46875 0.47917,1.125 0.3125,1.96875l-1.125,5.23438c-0.15625,0.76042 -0.46875,1.33333 -0.9375,1.71875c-0.46875,0.38542 -1.09375,0.57813 -1.875,0.57813zM280.82758,187.71875c-0.30208,1.4375 -0.80208,2.76042 -1.5,3.96875c-0.6875,1.20833 -1.67187,2.23438 -2.95312,3.07813c-1.28125,0.84375 -2.90104,1.49479 -4.85937,1.95313c-1.94792,0.45833 -4.32293,0.6875 -7.12503,0.6875c-2.80208,0 -5.10417,-0.22917 -6.90625,-0.6875c-1.80208,-0.46875 -3.19792,-1.15104 -4.1875,-2.04687c-0.97917,-0.90625 -1.5625,-1.98958 -1.75,-3.25c-0.1875,-1.27083 -0.13021,-2.63021 0.17188,-4.07812l3.1875,-15c0.3125,-1.44792 0.8125,-2.77083 1.5,-3.96875c0.6875,-1.20833 1.67188,-2.23958 2.95313,-3.09375c1.29167,-0.86458 2.92188,-1.52604 4.89063,-1.98437c1.96875,-0.46875 4.35418,-0.70312 7.15628,-0.70312c2.8125,0 5.11458,0.23958 6.90625,0.71875c1.79167,0.46875 3.17188,1.16146 4.14063,2.07813c0.97917,0.91667 1.5625,2.00521 1.75,3.26563c0.1875,1.25 0.125,2.60417 -0.1875,4.0625zM263.84318,186.125c-0.0625,0.29167 -0.01562,0.53125 0.14063,0.71875c0.15625,0.17708 0.89063,0.26563 2.20313,0.26563c1.38544,0 2.25524,-0.13021 2.60941,-0.39062c0.36458,-0.27083 0.58333,-0.59375 0.65625,-0.96875l2.51563,-11.82812c0.05208,-0.26042 -0.00521,-0.47917 -0.17187,-0.65625c-0.16667,-0.1875 -0.90625,-0.28125 -2.21875,-0.28125c-1.375,0 -2.23959,0.13542 -2.59378,0.40625c-0.35417,0.26042 -0.5625,0.5625 -0.625,0.90625zM291.943,196.75h-6.59375c-0.85417,0 -1.46875,-0.23437 -1.84375,-0.70312c-0.375,-0.47917 -0.47917,-1.13542 -0.3125,-1.96875l6.0625,-28.51562c0.17708,-0.77083 0.49479,-1.34896 0.95313,-1.73437c0.46875,-0.38542 1.09375,-0.57812 1.875,-0.57812h4.57813c0.69792,0 1.29167,0.125 1.78125,0.375c0.5,0.23958 0.9375,0.65104 1.3125,1.23438l5.26563,7.95313l1.53125,-7.25c0.17708,-0.77083 0.49479,-1.34896 0.95313,-1.73437c0.46875,-0.38542 1.08854,-0.57812 1.85938,-0.57812h6.60938c0.84375,0 1.45313,0.23958 1.82813,0.71875c0.38542,0.47917 0.48438,1.13542 0.29688,1.96875l-6.0625,28.51562c-0.15625,0.76042 -0.46875,1.33333 -0.9375,1.71875c-0.46875,0.38542 -1.08854,0.57813 -1.85937,0.57813h-6.60937c-0.84375,0 -1.45312,-0.23437 -1.82812,-0.70312c-0.375,-0.47917 -0.47917,-1.13542 -0.3125,-1.96875l1.07813,-5.0625l-4.20312,-6.875l-2.625,12.3125c-0.15625,0.75 -0.46875,1.32292 -0.9375,1.71875c-0.45833,0.38542 -1.07812,0.57813 -1.85937,0.57813zM331.59052,196.75h-13.90625c-0.86458,0 -1.47917,-0.23958 -1.84375,-0.71875c-0.36458,-0.47917 -0.46354,-1.13021 -0.29687,-1.95312l1.10938,-5.15625c0.15625,-0.75 0.46354,-1.31771 0.92188,-1.70312c0.46875,-0.39583 1.09375,-0.59375 1.875,-0.59375h11.82813c0.13542,0 0.25,-0.04687 0.34375,-0.14062c0.09375,-0.10417 0.16146,-0.25 0.20313,-0.4375c0.05208,-0.25 0.07813,-0.375 0.07813,-0.375c0,-0.01042 -0.04687,-0.01562 -0.14062,-0.01562l-6.42187,-0.9375c-2.19792,-0.3125 -3.89583,-1.09375 -5.09375,-2.34375c-1.19792,-1.25 -1.50521,-3.26042 -0.92187,-6.03125l0.98438,-4.625c0.57292,-2.71875 1.89583,-4.80729 3.96875,-6.26562c2.07292,-1.46875 4.63021,-2.20312 7.67188,-2.20312h12.3125c0.86458,0 1.47917,0.23958 1.84375,0.71875c0.375,0.47917 0.46875,1.13542 0.28125,1.96875l-1.10937,5.23438c-0.15625,0.75 -0.46875,1.32292 -0.9375,1.71875c-0.45833,0.38542 -1.07812,0.57813 -1.85937,0.57813h-10.25c-0.13542,0 -0.25521,0.05208 -0.35937,0.15625c-0.10417,0.09375 -0.17708,0.24479 -0.21875,0.45313c-0.04167,0.15625 -0.05729,0.25 -0.04687,0.28125c0.02083,0.02083 0.06771,0.03125 0.14063,0.03125l6.39063,0.89063c2.20833,0.3125 3.92188,1.09375 5.14063,2.34375c1.21875,1.25 1.53125,3.26563 0.9375,6.04688l-0.98437,4.60937c-0.58333,2.72917 -1.92187,4.82292 -4.01562,6.28125c-2.08333,1.45833 -4.625,2.1875 -7.625,2.1875z" fill="#000000" fill-rule="nonzero" stroke-width="1" stroke-linecap="square"/></g></g></svg>