<svg version="1.1" xmlns="http://www.w3.org/2000/svg" xmlns:xlink="http://www.w3.org/1999/xlink" width="720" height="540" viewBox="0,0,720,540"><defs><clipPath id="clip-1"><rect x="-240" y="-180" transform="scale(0.5,0.5)" width="1440" height="1080" fill="none" fill-rule="nonzero" stroke-width="0.5" stroke-linecap="butt"/></clipPath></defs><g transform="translate(120,90)"><g clip-path="url(#clip-1)" stroke="none" stroke-miterlimit="10"><path d="M-240,-180h960v720h-960z" fill-opacity="0" fill="#000000" fill-rule="evenodd" stroke-width="1" stroke-linecap="square"/><path d="M2.89764,-86.80052h474.2047v71.68504h-474.2047z" fill-opacity="0" fill="#000000" fill-rule="evenodd" stroke-width="1" stroke-linecap="square"/><path d="M35.00024,-26.60052h-16.84375c-1.28125,0 -1.92187,-0.64062 -1.92187,-1.92187v-6.23437c0,-1.28125 0.64063,-1.92187 1.92188,-1.92187h14.34375c0.45833,0 0.80208,-0.15104 1.03125,-0.45312c0.23958,-0.30208 0.35938,-0.66667 0.35938,-1.09375c0,-0.60417 -0.11979,-1.04687 -0.35937,-1.32812c-0.22917,-0.29167 -0.57292,-0.45312 -1.03125,-0.48437l-8,-1.125c-2.48958,-0.38542 -4.48958,-1.20833 -6,-2.46875c-1.51042,-1.27083 -2.26562,-3.39583 -2.26562,-6.375v-5.60937c0,-3.05208 0.97396,-5.375 2.92188,-6.96875c1.95833,-1.60417 4.66667,-2.40625 8.125,-2.40625h14.92188c1.28125,0 1.92188,0.64063 1.92188,1.92188v6.34375c0,1.28125 -0.64062,1.92188 -1.92187,1.92188h-12.42187c-0.95833,0 -1.4375,0.53125 -1.4375,1.59375c0,1.03125 0.47917,1.59896 1.4375,1.70313l7.9375,1.0625c1.67708,0.25 3.13542,0.6875 4.375,1.3125c1.25,0.625 2.21875,1.54167 2.90625,2.75c0.69792,1.20833 1.04688,2.80729 1.04688,4.79688v5.59375c0,3.02083 -0.97917,5.34375 -2.9375,6.96875c-1.95833,1.61458 -4.66146,2.42188 -8.10937,2.42188zM84.3822,-36.67864c0,1.63542 -0.23958,3.11979 -0.71875,4.45313c-0.47917,1.33333 -1.32292,2.47917 -2.53125,3.4375c-1.20833,0.95833 -2.89062,1.69271 -5.04687,2.20313c-2.14583,0.52083 -4.89062,0.78125 -8.23437,0.78125c-3.33333,0 -6.07812,-0.26042 -8.23437,-0.78125c-2.14583,-0.51042 -3.82292,-1.24479 -5.03125,-2.20312c-1.20833,-0.95833 -2.0625,-2.10417 -2.5625,-3.4375c-0.5,-1.33333 -0.75,-2.81771 -0.75,-4.45312v-18.1875c0,-1.63542 0.25,-3.11979 0.75,-4.45312c0.5,-1.33333 1.35417,-2.47917 2.5625,-3.4375c1.20833,-0.95833 2.88542,-1.70312 5.03125,-2.23437c2.15625,-0.54167 4.90104,-0.8125 8.23438,-0.8125c3.34375,0 6.08854,0.27083 8.23438,0.8125c2.15625,0.53125 3.83854,1.27604 5.04688,2.23438c1.20833,0.95833 2.05208,2.10417 2.53125,3.4375c0.47917,1.33333 0.71875,2.81771 0.71875,4.45313zM63.3822,-38.60052c0,0.70833 0.26563,1.30208 0.79688,1.78125c0.53125,0.47917 1.75521,0.71875 3.67188,0.71875c1.95833,0 3.19271,-0.23958 3.70313,-0.71875c0.52083,-0.47917 0.78125,-1.07292 0.78125,-1.78125v-14.34375c0,-0.70833 -0.26042,-1.29167 -0.78125,-1.75c-0.51042,-0.46875 -1.74479,-0.70312 -3.70312,-0.70312c-1.91667,0 -3.14062,0.23438 -3.67187,0.70313c-0.53125,0.45833 -0.79687,1.04167 -0.79687,1.75zM116.70059,-26.60052h-13c-4.47917,0 -7.78646,-0.88542 -9.92187,-2.65625c-2.13542,-1.78125 -3.20312,-4.52083 -3.20312,-8.21875v-16.59375c0,-3.72917 1.06771,-6.47917 3.20313,-8.25c2.13542,-1.78125 5.44271,-2.67187 9.92188,-2.67187h13c1.28125,0 1.92188,0.64063 1.92188,1.92188v6.4375c0,1.28125 -0.64062,1.92188 -1.92187,1.92188h-10.71875c-2.16667,0 -3.25,0.89063 -3.25,2.67188v12.6875c0,1.70833 1.08333,2.5625 3.25,2.5625h10.71875c1.28125,0 1.92188,0.64063 1.92188,1.92188v6.34375c0,1.28125 -0.64062,1.92188 -1.92187,1.92188zM125.72186,-26.60052c-1.28125,0 -1.92187,-0.64062 -1.92187,-1.92187v-6.34375c0,-1.28125 0.64063,-1.92187 1.92188,-1.92187h5.28125v-17.92187h-5.28125c-1.28125,0 -1.92187,-0.64062 -1.92187,-1.92187v-6.4375c0,-1.28125 0.64063,-1.92187 1.92188,-1.92187h22.71875c1.28125,0 1.92188,0.64063 1.92188,1.92188v6.4375c0,1.28125 -0.64062,1.92188 -1.92187,1.92188h-5.17187v17.92188h5.17188c1.28125,0 1.92188,0.64063 1.92188,1.92188v6.34375c0,1.28125 -0.64062,1.92188 -1.92187,1.92188zM167.79782,-28.52239c0,1.28125 -0.64062,1.92188 -1.92187,1.92188h-7.84375c-1.28125,0 -1.92187,-0.64062 -1.92187,-1.92187v-14.07812c0,-1.0625 0.16667,-2.28646 0.5,-3.67187c0.34375,-1.39583 0.86979,-3.01562 1.57813,-4.85937l4.64063,-12.10937c0.39583,-1.16667 1.30208,-1.75 2.71875,-1.75h14.34375c1.39583,0 2.28646,0.58333 2.67188,1.75l4.64063,12.10938c0.70833,1.84375 1.22917,3.46354 1.5625,4.85938c0.34375,1.38542 0.51563,2.60938 0.51563,3.67188v14.07813c0,1.28125 -0.64062,1.92188 -1.92187,1.92188h-8.04687c-1.38542,0 -2.07812,-0.64062 -2.07812,-1.92187v-7.46875h-9.4375zM170.82907,-53.80364l-2.5,8.10938h8.375l-2.51562,-8.10937c-0.25,-0.60417 -0.58854,-0.90625 -1.01562,-0.90625h-1.32812c-0.42708,0 -0.76562,0.30208 -1.01562,0.90625zM224.91479,-26.60052h-27.15625c-1.28125,0 -1.92187,-0.64062 -1.92187,-1.92187v-34.54687c0,-1.28125 0.64063,-1.92187 1.92188,-1.92187h8.26563c1.28125,0 1.92188,0.64063 1.92188,1.92188v26.39063h7.3125v-8.64062c0,-1.28125 0.64063,-1.92187 1.92188,-1.92187h7.73438c1.27083,0 1.90625,0.64063 1.90625,1.92188v16.79688c0,1.28125 -0.63542,1.92188 -1.90625,1.92188zM254.24011,-26.60052h-7.95312c-1.28125,0 -1.92187,-0.64062 -1.92187,-1.92187v-34.54687c0,-1.28125 0.64063,-1.92187 1.92188,-1.92187h8.59375c1.0625,0 1.88021,0.53125 2.45313,1.59375l4.79688,8.6875c0.17708,0.32292 0.32813,0.55729 0.45313,0.70313c0.125,0.13542 0.29167,0.20313 0.5,0.20313h0.48438c0.21875,0 0.39063,-0.06771 0.51563,-0.20312c0.125,-0.14583 0.27604,-0.38021 0.45313,-0.70312l4.73438,-8.6875c0.57292,-1.0625 1.39063,-1.59375 2.45313,-1.59375h8.64062c1.28125,0 1.92188,0.64063 1.92188,1.92188v34.54688c0,1.28125 -0.64062,1.92188 -1.92187,1.92188h-8.20312c-1.28125,0 -1.92187,-0.64062 -1.92187,-1.92187v-18.76562l-3.15625,5.8125c-0.60417,1.13542 -1.54167,1.70313 -2.8125,1.70313h-2.14062c-1.28125,0 -2.22396,-0.56771 -2.82812,-1.70312l-3.14062,-5.8125v18.76563c0,1.28125 -0.64062,1.92188 -1.92187,1.92188zM316.3125,-26.60052h-24.75c-1.28125,0 -1.92187,-0.64062 -1.92187,-1.92187v-34.54687c0,-1.28125 0.64063,-1.92187 1.92188,-1.92187h24.75c1.28125,0 1.92188,0.64063 1.92188,1.92188v6.23438c0,1.28125 -0.64062,1.92188 -1.92187,1.92188h-14.71875v4.10938h10.40625c1.27083,0 1.90625,0.63542 1.90625,1.90625v5.71875c0,1.27083 -0.63542,1.90625 -1.90625,1.90625h-10.40625v4.59375h14.71875c1.28125,0 1.92188,0.64063 1.92188,1.92188v6.23438c0,1.28125 -0.64062,1.92188 -1.92187,1.92188zM344.4234,-26.60052h-17.98437c-1.28125,0 -1.92187,-0.64062 -1.92187,-1.92187v-34.54687c0,-1.28125 0.64063,-1.92187 1.92188,-1.92187h17.98438c4.47917,0 7.78125,0.89063 9.90625,2.67188c2.13542,1.77083 3.20313,4.50521 3.20313,8.20313v16.64063c0,3.69792 -1.06771,6.4375 -3.20312,8.21875c-2.125,1.77083 -5.42708,2.65625 -9.90625,2.65625zM336.62652,-54.80364v18.125h6.34375c1.67708,0 2.51563,-0.86979 2.51563,-2.60937v-12.96875c0,-1.69792 -0.83854,-2.54687 -2.51562,-2.54687zM365.37799,-26.60052c-1.28125,0 -1.92187,-0.64062 -1.92187,-1.92187v-6.34375c0,-1.28125 0.64063,-1.92187 1.92188,-1.92187h5.28125v-17.92187h-5.28125c-1.28125,0 -1.92187,-0.64062 -1.92187,-1.92187v-6.4375c0,-1.28125 0.64063,-1.92187 1.92188,-1.92187h22.71875c1.28125,0 1.92188,0.64063 1.92188,1.92188v6.4375c0,1.28125 -0.64062,1.92188 -1.92187,1.92188h-5.17187v17.92188h5.17188c1.28125,0 1.92188,0.64063 1.92188,1.92188v6.34375c0,1.28125 -0.64062,1.92188 -1.92187,1.92188zM407.45392,-28.52239c0,1.28125 -0.64062,1.92188 -1.92187,1.92188h-7.84375c-1.28125,0 -1.92187,-0.64062 -1.92187,-1.92187v-14.07812c0,-1.0625 0.16667,-2.28646 0.5,-3.67187c0.34375,-1.39583 0.86979,-3.01562 1.57813,-4.85937l4.64063,-12.10937c0.39583,-1.16667 1.30208,-1.75 2.71875,-1.75h14.34375c1.39583,0 2.28646,0.58333 2.67188,1.75l4.64063,12.10938c0.70833,1.84375 1.22917,3.46354 1.5625,4.85938c0.34375,1.38542 0.51563,2.60938 0.51563,3.67188v14.07813c0,1.28125 -0.64062,1.92188 -1.92187,1.92188h-8.04687c-1.38542,0 -2.07812,-0.64062 -2.07812,-1.92187v-7.46875h-9.4375zM410.48517,-53.80364l-2.5,8.10938h8.375l-2.51562,-8.10937c-0.25,-0.60417 -0.58854,-0.90625 -1.01562,-0.90625h-1.32812c-0.42708,0 -0.76562,0.30208 -1.01562,0.90625zM453.3053,-26.60052h-16.84375c-1.28125,0 -1.92187,-0.64062 -1.92187,-1.92187v-6.23437c0,-1.28125 0.64063,-1.92187 1.92188,-1.92187h14.34375c0.45833,0 0.80208,-0.15104 1.03125,-0.45312c0.23958,-0.30208 0.35938,-0.66667 0.35938,-1.09375c0,-0.60417 -0.11979,-1.04687 -0.35937,-1.32812c-0.22917,-0.29167 -0.57292,-0.45312 -1.03125,-0.48437l-8,-1.125c-2.48958,-0.38542 -4.48958,-1.20833 -6,-2.46875c-1.51042,-1.27083 -2.26562,-3.39583 -2.26562,-6.375v-5.60937c0,-3.05208 0.97396,-5.375 2.92188,-6.96875c1.95833,-1.60417 4.66667,-2.40625 8.125,-2.40625h14.92188c1.28125,0 1.92188,0.64063 1.92188,1.92188v6.34375c0,1.28125 -0.64062,1.92188 -1.92187,1.92188h-12.42187c-0.95833,0 -1.4375,0.53125 -1.4375,1.59375c0,1.03125 0.47917,1.59896 1.4375,1.70313l7.9375,1.0625c1.67708,0.25 3.13542,0.6875 4.375,1.3125c1.25,0.625 2.21875,1.54167 2.90625,2.75c0.69792,1.20833 1.04688,2.80729 1.04688,4.79688v5.59375c0,3.02083 -0.97917,5.34375 -2.9375,6.96875c-1.95833,1.61458 -4.66146,2.42188 -8.10937,2.42188z" fill="#000000" fill-rule="nonzero" stroke-width="1" stroke-linecap="square"/><path d="M35.00024,-26.60052h-16.84375c-1.28125,0 -1.92187,-0.64062 -1.92187,-1.92187v-6.23438c0,-1.28125 0.64063,-1.92187 1.92188,-1.92187h14.34375c0.45833,0 0.80208,-0.15104 1.03125,-0.45312c0.23958,-0.30208 0.35938,-0.66667 0.35938,-1.09375c0,-0.60417 -0.11979,-1.04687 -0.35937,-1.32812c-0.22917,-0.29167 -0.57292,-0.45312 -1.03125,-0.48437l-8,-1.125c-2.48959,-0.38542 -4.48959,-1.20833 -6,-2.46875c-1.51041,-1.27083 -2.26562,-3.39583 -2.26562,-6.375v-5.60937c0,-3.05208 0.97396,-5.375 2.92188,-6.96875c1.95834,-1.60416 4.66666,-2.40625 8.125,-2.40625h14.92187c1.28125,0 1.92188,0.64063 1.92188,1.92188v6.34375c0,1.28125 -0.64062,1.92188 -1.92187,1.92188h-12.42187c-0.95834,0 -1.4375,0.53125 -1.4375,1.59375c0,1.03125 0.47916,1.59896 1.4375,1.70313l7.9375,1.0625c1.67708,0.25 3.13542,0.6875 4.375,1.3125c1.25,0.625 2.21875,1.54167 2.90625,2.75c0.69792,1.20833 1.04688,2.80729 1.04688,4.79688v5.59375c0,3.02083 -0.97917,5.34375 -2.9375,6.96875c-1.95833,1.61459 -4.66146,2.42188 -8.10937,2.42188zM84.3822,-36.67865c0,1.63542 -0.23959,3.11979 -0.71875,4.45313c-0.47916,1.33333 -1.32291,2.47917 -2.53125,3.4375c-1.20834,0.95834 -2.89062,1.69271 -5.04687,2.20313c-2.14584,0.52084 -4.89062,0.78125 -8.23437,0.78125c-3.33334,0 -6.07812,-0.26041 -8.23437,-0.78125c-2.14583,-0.51041 -3.82292,-1.24479 -5.03125,-2.20312c-1.20833,-0.95834 -2.0625,-2.10417 -2.5625,-3.4375c-0.5,-1.33333 -0.75,-2.81771 -0.75,-4.45312v-18.1875c0,-1.63542 0.25,-3.11979 0.75,-4.45312c0.5,-1.33333 1.35417,-2.47917 2.5625,-3.4375c1.20833,-0.95833 2.88542,-1.70312 5.03125,-2.23437c2.15625,-0.54166 4.90104,-0.8125 8.23438,-0.8125c3.34375,0 6.08854,0.27084 8.23438,0.8125c2.15625,0.53125 3.83854,1.27604 5.04688,2.23438c1.20834,0.95833 2.05209,2.10417 2.53125,3.4375c0.47916,1.33333 0.71875,2.81771 0.71875,4.45313zM63.3822,-38.60052c0,0.70833 0.26563,1.30208 0.79688,1.78125c0.53125,0.47917 1.75521,0.71875 3.67188,0.71875c1.95834,0 3.19271,-0.23958 3.70313,-0.71875c0.52084,-0.47917 0.78125,-1.07292 0.78125,-1.78125v-14.34375c0,-0.70833 -0.26041,-1.29167 -0.78125,-1.75c-0.51041,-0.46875 -1.74479,-0.70312 -3.70312,-0.70312c-1.91666,0 -3.14062,0.23438 -3.67187,0.70313c-0.53125,0.45833 -0.79687,1.04167 -0.79687,1.75zM116.70059,-26.60052h-13c-4.47916,0 -7.78646,-0.88541 -9.92187,-2.65625c-2.13541,-1.78125 -3.20312,-4.52084 -3.20312,-8.21875v-16.59375c0,-3.72917 1.06771,-6.47917 3.20313,-8.25c2.13541,-1.78125 5.44271,-2.67187 9.92188,-2.67187h13c1.28125,0 1.92188,0.64063 1.92188,1.92188v6.4375c0,1.28125 -0.64062,1.92188 -1.92187,1.92188h-10.71875c-2.16666,0 -3.25,0.89063 -3.25,2.67188v12.6875c0,1.70833 1.08334,2.5625 3.25,2.5625h10.71875c1.28125,0 1.92188,0.64063 1.92188,1.92188v6.34375c0,1.28125 -0.64062,1.92188 -1.92187,1.92188zM125.72186,-26.60052c-1.28125,0 -1.92187,-0.64062 -1.92187,-1.92187v-6.34375c0,-1.28125 0.64063,-1.92187 1.92188,-1.92187h5.28125v-17.92187h-5.28125c-1.28125,0 -1.92187,-0.64062 -1.92187,-1.92187v-6.4375c0,-1.28125 0.64063,-1.92187 1.92188,-1.92187h22.71875c1.28125,0 1.92188,0.64063 1.92188,1.92188v6.4375c0,1.28125 -0.64062,1.92188 -1.92187,1.92188h-5.17187v17.92188h5.17188c1.28125,0 1.92188,0.64063 1.92188,1.92188v6.34375c0,1.28125 -0.64062,1.92188 -1.92187,1.92188zM167.79782,-28.52239c0,1.28125 -0.64062,1.92188 -1.92187,1.92188h-7.84375c-1.28125,0 -1.92187,-0.64062 -1.92187,-1.92187v-14.07813c0,-1.0625 0.16666,-2.28646 0.5,-3.67187c0.34375,-1.39583 0.86979,-3.01562 1.57813,-4.85937l4.64063,-12.10937c0.39584,-1.16666 1.30209,-1.75 2.71875,-1.75h14.34375c1.39584,0 2.28646,0.58334 2.67188,1.75l4.64063,12.10938c0.70834,1.84375 1.22916,3.46354 1.5625,4.85938c0.34375,1.38542 0.51563,2.60938 0.51563,3.67188v14.07813c0,1.28125 -0.64062,1.92188 -1.92187,1.92188h-8.04687c-1.38541,0 -2.07812,-0.64062 -2.07812,-1.92187v-7.46875h-9.4375zM170.82907,-53.80364l-2.5,8.10938h8.375l-2.51562,-8.10937c-0.25,-0.60417 -0.58854,-0.90625 -1.01562,-0.90625h-1.32812c-0.42709,0 -0.76562,0.30208 -1.01562,0.90625zM224.9148,-26.60052h-27.15625c-1.28125,0 -1.92187,-0.64062 -1.92187,-1.92187v-34.54687c0,-1.28125 0.64063,-1.92187 1.92188,-1.92187h8.26563c1.28125,0 1.92188,0.64063 1.92188,1.92188v26.39063h7.3125v-8.64062c0,-1.28125 0.64063,-1.92187 1.92188,-1.92187h7.73438c1.27084,0 1.90625,0.64063 1.90625,1.92188v16.79688c0,1.28125 -0.63541,1.92188 -1.90625,1.92188zM254.24011,-26.60052h-7.95312c-1.28125,0 -1.92187,-0.64062 -1.92187,-1.92187v-34.54687c0,-1.28125 0.64063,-1.92187 1.92188,-1.92187h8.59375c1.0625,0 1.88021,0.53125 2.45313,1.59375l4.79688,8.6875c0.17708,0.32292 0.32813,0.55729 0.45313,0.70313c0.125,0.13542 0.29167,0.20313 0.5,0.20313h0.48438c0.21875,0 0.39063,-0.06771 0.51563,-0.20312c0.125,-0.14583 0.27604,-0.38021 0.45313,-0.70312l4.73438,-8.6875c0.57292,-1.0625 1.39063,-1.59375 2.45313,-1.59375h8.64063c1.28125,0 1.92188,0.64063 1.92188,1.92188v34.54688c0,1.28125 -0.64062,1.92188 -1.92187,1.92188h-8.20312c-1.28125,0 -1.92187,-0.64062 -1.92187,-1.92187v-18.76563l-3.15625,5.8125c-0.60417,1.13542 -1.54167,1.70313 -2.8125,1.70313h-2.14062c-1.28125,0 -2.22396,-0.56771 -2.82812,-1.70312l-3.14062,-5.8125v18.76563c0,1.28125 -0.64063,1.92188 -1.92188,1.92188zM316.3125,-26.60052h-24.75c-1.28125,0 -1.92187,-0.64062 -1.92187,-1.92187v-34.54687c0,-1.28125 0.64063,-1.92187 1.92188,-1.92187h24.75c1.28125,0 1.92188,0.64063 1.92188,1.92188v6.23438c0,1.28125 -0.64062,1.92188 -1.92187,1.92188h-14.71875v4.10938h10.40625c1.27083,0 1.90625,0.63542 1.90625,1.90625v5.71875c0,1.27083 -0.63542,1.90625 -1.90625,1.90625h-10.40625v4.59375h14.71875c1.28125,0 1.92188,0.64063 1.92188,1.92188v6.23438c0,1.28125 -0.64062,1.92188 -1.92187,1.92188zM344.4234,-26.60052h-17.98437c-1.28125,0 -1.92187,-0.64062 -1.92187,-1.92187v-34.54687c0,-1.28125 0.64063,-1.92187 1.92188,-1.92187h17.98438c4.47917,0 7.78125,0.89063 9.90625,2.67188c2.13542,1.77083 3.20313,4.50521 3.20313,8.20313v16.64063c0,3.69792 -1.06771,6.4375 -3.20312,8.21875c-2.125,1.77084 -5.42708,2.65625 -9.90625,2.65625zM336.62653,-54.80364v18.125h6.34375c1.67708,0 2.51563,-0.86979 2.51563,-2.60937v-12.96875c0,-1.69792 -0.83854,-2.54687 -2.51562,-2.54687zM365.37799,-26.60052c-1.28125,0 -1.92187,-0.64062 -1.92187,-1.92187v-6.34375c0,-1.28125 0.64063,-1.92187 1.92188,-1.92187h5.28125v-17.92187h-5.28125c-1.28125,0 -1.92187,-0.64062 -1.92187,-1.92187v-6.4375c0,-1.28125 0.64063,-1.92187 1.92188,-1.92187h22.71875c1.28125,0 1.92188,0.64063 1.92188,1.92188v6.4375c0,1.28125 -0.64062,1.92188 -1.92187,1.92188h-5.17187v17.92188h5.17188c1.28125,0 1.92188,0.64063 1.92188,1.92188v6.34375c0,1.28125 -0.64062,1.92188 -1.92187,1.92188zM407.45392,-28.52239c0,1.28125 -0.64062,1.92188 -1.92187,1.92188h-7.84375c-1.28125,0 -1.92187,-0.64062 -1.92187,-1.92187v-14.07813c0,-1.0625 0.16667,-2.28646 0.5,-3.67187c0.34375,-1.39583 0.86979,-3.01562 1.57813,-4.85937l4.64063,-12.10937c0.39583,-1.16666 1.30208,-1.75 2.71875,-1.75h14.34375c1.39583,0 2.28646,0.58334 2.67188,1.75l4.64063,12.10938c0.70833,1.84375 1.22917,3.46354 1.5625,4.85938c0.34375,1.38542 0.51563,2.60938 0.51563,3.67188v14.07813c0,1.28125 -0.64062,1.92188 -1.92187,1.92188h-8.04687c-1.38542,0 -2.07812,-0.64062 -2.07812,-1.92187v-7.46875h-9.4375zM410.48517,-53.80364l-2.5,8.10938h8.375l-2.51562,-8.10937c-0.25,-0.60417 -0.58854,-0.90625 -1.01562,-0.90625h-1.32812c-0.42708,0 -0.76562,0.30208 -1.01562,0.90625zM453.3053,-26.60052h-16.84375c-1.28125,0 -1.92187,-0.64062 -1.92187,-1.92187v-6.23438c0,-1.28125 0.64063,-1.92187 1.92188,-1.92187h14.34375c0.45833,0 0.80208,-0.15104 1.03125,-0.45312c0.23958,-0.30208 0.35938,-0.66667 0.35938,-1.09375c0,-0.60417 -0.11979,-1.04687 -0.35937,-1.32812c-0.22917,-0.29167 -0.57292,-0.45312 -1.03125,-0.48437l-8,-1.125c-2.48958,-0.38542 -4.48958,-1.20833 -6,-2.46875c-1.51042,-1.27083 -2.26562,-3.39583 -2.26562,-6.375v-5.60937c0,-3.05208 0.97396,-5.375 2.92188,-6.96875c1.95833,-1.60416 4.66667,-2.40625 8.125,-2.40625h14.92188c1.28125,0 1.92188,0.64063 1.92188,1.92188v6.34375c0,1.28125 -0.64062,1.92188 -1.92187,1.92188h-12.42187c-0.95833,0 -1.4375,0.53125 -1.4375,1.59375c0,1.03125 0.47917,1.59896 1.4375,1.70313l7.9375,1.0625c1.67708,0.25 3.13542,0.6875 4.375,1.3125c1.25,0.625 2.21875,1.54167 2.90625,2.75c0.69792,1.20833 1.04688,2.80729 1.04688,4.79688v5.59375c0,3.02083 -0.97917,5.34375 -2.9375,6.96875c-1.95833,1.61459 -4.66146,2.42188 -8.10937,2.42188z" fill="#000000" fill-rule="nonzero" stroke-width="1" stroke-linecap="square"/></g></g></svg>