<svg version="1.1" xmlns="http://www.w3.org/2000/svg" xmlns:xlink="http://www.w3.org/1999/xlink" width="26.12498" height="34.18752" viewBox="0,0,26.12498,34.18752"><g transform="translate(-226.93751,-162.90624)"><g data-paper-data="{&quot;isPaintingLayer&quot;:true}" fill="#ffffff" fill-rule="nonzero" stroke="#000000" stroke-width="2.5" stroke-linecap="square" stroke-linejoin="miter" stroke-miterlimit="10" stroke-dasharray="" stroke-dashoffset="0" style="mix-blend-mode: normal"><path d="M250.23436,164.15624c0.55208,0 0.95313,0.125 1.20313,0.375c0.25,0.25 0.375,0.65625 0.375,1.21875v11.125c0,1.38542 -0.14062,2.5625 -0.42187,3.53125c-0.27083,0.96875 -0.6875,1.77604 -1.25,2.42188c-0.55208,0.63542 -1.26042,1.16667 -2.125,1.59375c-0.86458,0.42708 -1.88542,0.81771 -3.0625,1.17188l-3.25,0.96875v7.70313c0,0.55208 -0.125,0.95313 -0.375,1.20313c-0.25,0.25 -0.65625,0.375 -1.21875,0.375h-7.125c-0.5625,0 -0.96875,-0.125 -1.21875,-0.375c-0.23958,-0.25 -0.35937,-0.65104 -0.35937,-1.20312v-7.96875c0,-1.375 0.13542,-2.54687 0.40625,-3.51562c0.28125,-0.96875 0.69792,-1.77604 1.25,-2.42187c0.5625,-0.64583 1.27604,-1.18229 2.14063,-1.60937c0.86458,-0.42708 1.88542,-0.81771 3.0625,-1.17187l3.5625,-0.96875v-3.95312h-12.0625c-0.55208,0 -0.95312,-0.125 -1.20312,-0.375c-0.25,-0.25 -0.375,-0.65104 -0.375,-1.20312v-5.32812c0,-0.5625 0.125,-0.96875 0.375,-1.21875c0.25,-0.25 0.65104,-0.375 1.20313,-0.375z"/></g></g></svg>