<svg version="1.1" xmlns="http://www.w3.org/2000/svg" xmlns:xlink="http://www.w3.org/1999/xlink" width="29.39063" height="35.49998" viewBox="-1.25,-1.25,29.39063,35.49998"><g transform="translate(-226.5547,-163.50003)"><g data-paper-data="{&quot;isPaintingLayer&quot;:true}" fill="#ffffff" fill-rule="nonzero" stroke="#000000" stroke-width="2.5" stroke-linecap="square" stroke-linejoin="miter" stroke-miterlimit="10" stroke-dasharray="" stroke-dashoffset="0" style="mix-blend-mode: normal"><path d="M253.44531,187.53125c0,1.34375 -0.19271,2.56771 -0.57812,3.67188c-0.375,1.10416 -1.0625,2.04688 -2.0625,2.82813c-1,0.77084 -2.375,1.375 -4.125,1.8125c-1.73959,0.4375 -3.95834,0.65625 -6.65625,0.65625c-2.69791,0 -4.92187,-0.21875 -6.67187,-0.65625c-1.73959,-0.4375 -3.10937,-1.04166 -4.10937,-1.8125c-1,-0.78125 -1.69791,-1.72396 -2.09375,-2.82812c-0.39584,-1.10416 -0.59375,-2.32812 -0.59375,-3.67187v-15c0,-1.35416 0.19791,-2.57812 0.59375,-3.67187c0.39584,-1.10416 1.09375,-2.05209 2.09375,-2.84375c1,-0.79166 2.36979,-1.40625 4.10938,-1.84375c1.75,-0.44791 3.97396,-0.67187 6.67188,-0.67187c2.69791,0 4.91666,0.22396 6.65625,0.67188c1.75,0.4375 3.125,1.05209 4.125,1.84375c1,0.79166 1.6875,1.73959 2.0625,2.84375c0.38542,1.09375 0.57812,2.31771 0.57812,3.67188zM236.50781,185.9375c0,0.59375 0.20834,1.08854 0.625,1.48438c0.42709,0.39584 1.39063,0.59375 2.89063,0.59375c1.5,0 2.45834,-0.19791 2.875,-0.59375c0.42709,-0.39584 0.64063,-0.89062 0.64063,-1.48437v-11.82812c0,-0.5625 -0.21354,-1.04166 -0.64062,-1.4375c-0.41666,-0.39584 -1.375,-0.59375 -2.875,-0.59375c-1.5,0 -2.46354,0.19791 -2.89062,0.59375c-0.41666,0.39584 -0.625,0.875 -0.625,1.4375z"/></g></g></svg>