<svg version="1.1" xmlns="http://www.w3.org/2000/svg" xmlns:xlink="http://www.w3.org/1999/xlink" width="620" height="482.74333" viewBox="0,0,620,482.74333"><g transform="translate(-0.5,1.37167)"><g data-paper-data="{&quot;isPaintingLayer&quot;:true}" fill-rule="nonzero" stroke-linejoin="miter" stroke-miterlimit="10" stroke-dasharray="" stroke-dashoffset="0" style="mix-blend-mode: normal"><path d="M0.5,481.31373v-482.62745h35.2549v482.62745z" fill="#000000" stroke="none" stroke-width="0" stroke-linecap="butt"/><path d="M619.27814,38.86186l-606.62545,-0.1318l0.01033,-40.10172l606.62545,0.1318z" data-paper-data="{&quot;index&quot;:null}" fill="#000000" stroke="none" stroke-width="0" stroke-linecap="butt"/><path d="M611.98423,481.37167l-595.68446,-0.13978l0.01014,-42.52512l595.68446,0.13978z" data-paper-data="{&quot;index&quot;:null}" fill="#000000" stroke="none" stroke-width="0" stroke-linecap="butt"/><path d="M576.73529,481.31373v-481.41176h43.76471v481.41176z" fill="#000000" stroke="none" stroke-width="0" stroke-linecap="butt"/><path d="M30.89216,258.84314v-57.13725h49.84314v57.13725z" fill="#000000" stroke="#000000" stroke-width="0" stroke-linecap="butt"/><path d="M111.12745,167.66667v-44.98039h46.19608v44.98039z" fill="#000000" stroke="none" stroke-width="0" stroke-linecap="butt"/><path d="M467.32353,253.98039c0,17.45653 -10.88563,31.60784 -24.31373,31.60784c-13.42809,0 -24.31373,-14.15132 -24.31373,-31.60784c0,-17.45653 10.88563,-31.60784 24.31373,-31.60784c13.42809,0 24.31373,14.15132 24.31373,31.60784z" fill="#000000" stroke="#000000" stroke-width="0" stroke-linecap="butt"/><path d="M308.06863,195.62745l114.27451,-114.27451" fill="none" stroke="#000000" stroke-width="13" stroke-linecap="round"/><path d="M187.71569,390.7451c0,-22.49207 18.23342,-40.72549 40.72549,-40.72549c22.49207,0 40.72549,18.23342 40.72549,40.72549c0,22.49207 -18.23342,40.72549 -40.72549,40.72549c-22.49207,0 -40.72549,-18.23342 -40.72549,-40.72549z" fill="#000000" stroke="#000000" stroke-width="13" stroke-linecap="butt"/><path d="M350.61765,369.47059v-54.70588h54.70588v54.70588z" fill="#000000" stroke="#000000" stroke-width="13" stroke-linecap="butt"/><path d="M478.26471,170.09804v-35.2549h35.2549v35.2549z" fill="#000000" stroke="#000000" stroke-width="13" stroke-linecap="butt"/></g></g></svg>