<svg version="1.1" xmlns="http://www.w3.org/2000/svg" xmlns:xlink="http://www.w3.org/1999/xlink" width="424.1096" height="68" viewBox="0,0,424.1096,68"><g transform="translate(-27.9452,-146)"><g stroke-miterlimit="10"><path d="M30.4452,199.5c0,-12.35939 0,-30.8008 0,-38c0,-5.73989 7.95519,-13 21.63146,-13c76.69483,0 333.30826,0 375.84668,0c11.69314,0 21.63146,5.03395 21.63146,12c0,12.35939 0,30.8008 0,38c0,5.73989 -11.72257,13 -22.53277,13c-41.01526,0 -296.18364,0 -374.04406,0c-14.22595,0 -22.53277,-5.03396 -22.53277,-12z" fill="#0087ff" stroke="#46de00" stroke-width="5" stroke-linecap="butt"/><path d="M34.50478,198.91291c0,-11.98728 0,-29.87347 0,-36.85592c0,-5.56707 7.80108,-12.6086 21.21242,-12.6086c75.20906,0 326.85128,0 368.56562,0c11.46662,0 21.21242,4.8824 21.21242,11.63871c0,11.98728 0,29.87347 0,36.85591c0,5.56707 -11.49549,12.6086 -22.09627,12.6086c-40.22068,0 -290.44583,0 -366.79793,0c-13.95037,0 -22.09625,-4.8824 -22.09625,-11.63871z" fill="#1de400" stroke="#01ff00" stroke-width="5" stroke-linecap="butt"/><path d="M62.80166,196.57514h-14.53865c-1.10591,0 -1.65886,-0.55295 -1.65886,-1.65886v-5.38119c0,-1.10591 0.55295,-1.65886 1.65886,-1.65886h12.38078c0.39561,0 0.69232,-0.13037 0.89012,-0.39111c0.2068,-0.26074 0.31019,-0.57543 0.31019,-0.94407c0,-0.52148 -0.1034,-0.90361 -0.31019,-1.14637c-0.1978,-0.25175 -0.49451,-0.39111 -0.89012,-0.41809l-6.90518,-0.97104c-2.14888,-0.33267 -3.87518,-1.04297 -5.17889,-2.1309c-1.30371,-1.09692 -1.95557,-2.93111 -1.95557,-5.50257v-4.84172c0,-2.6344 0.84067,-4.63942 2.52201,-6.01506c1.69033,-1.38463 4.02802,-2.07695 7.01308,-2.07695h12.87978c1.10591,0 1.65886,0.55295 1.65886,1.65886v5.47559c0,1.10591 -0.55295,1.65886 -1.65886,1.65886h-10.72191c-0.82718,0 -1.24077,0.45855 -1.24077,1.37564c0,0.89012 0.41359,1.38014 1.24077,1.47005l6.85124,0.91709c1.44757,0.21579 2.70633,0.59341 3.77627,1.13288c1.07893,0.53947 1.91511,1.33068 2.50852,2.37366c0.6024,1.04297 0.90361,2.42311 0.90361,4.14041v4.82823c0,2.60743 -0.84516,4.61245 -2.5355,6.01506c-1.69033,1.39363 -4.02353,2.09044 -6.99959,2.09044zM105.42559,187.87622c0,1.4116 -0.2068,2.69284 -0.62039,3.84371c-0.41359,1.15087 -1.14187,2.13989 -2.18484,2.96707c-1.04297,0.82718 -2.49504,1.46106 -4.3562,1.90162c-1.85217,0.44956 -4.22133,0.67433 -7.10748,0.67433c-2.87716,0 -5.24632,-0.22478 -7.10748,-0.67433c-1.85217,-0.44056 -3.29974,-1.07444 -4.34271,-1.90162c-1.04297,-0.82718 -1.78024,-1.81621 -2.21182,-2.96707c-0.43157,-1.15087 -0.64736,-2.4321 -0.64736,-3.84371v-15.6985c0,-1.4116 0.21579,-2.69284 0.64736,-3.84371c0.43157,-1.15087 1.16884,-2.13989 2.21182,-2.96707c1.04297,-0.82718 2.49054,-1.47005 4.34271,-1.9286c1.86116,-0.46754 4.23032,-0.70131 7.10748,-0.70131c2.88615,0 5.25531,0.23377 7.10748,0.70131c1.86116,0.45855 3.31323,1.10141 4.3562,1.9286c1.04297,0.82718 1.77125,1.81621 2.18484,2.96707c0.41359,1.15087 0.62039,2.4321 0.62039,3.84371zM87.29949,186.21736c0,0.6114 0.22927,1.12389 0.68782,1.53748c0.45855,0.41359 1.51501,0.62039 3.16937,0.62039c1.69033,0 2.75578,-0.2068 3.19634,-0.62039c0.44956,-0.41359 0.67433,-0.92608 0.67433,-1.53748v-12.38078c0,-0.6114 -0.22478,-1.1149 -0.67433,-1.51051c-0.44056,-0.4046 -1.50601,-0.6069 -3.19634,-0.6069c-1.65437,0 -2.71082,0.2023 -3.16937,0.6069c-0.45855,0.39561 -0.68782,0.89911 -0.68782,1.51051zM133.32114,196.57514h-11.22092c-3.86618,0 -6.72087,-0.76424 -8.56404,-2.29274c-1.84318,-1.53748 -2.76477,-3.90215 -2.76477,-7.094v-14.32286c0,-3.21882 0.92159,-5.59248 2.76477,-7.12097c1.84318,-1.53748 4.69786,-2.30622 8.56404,-2.30622h11.22092c1.10591,0 1.65886,0.55295 1.65886,1.65886v5.55651c0,1.10591 -0.55295,1.65886 -1.65886,1.65886h-9.25187c-1.87015,0 -2.80523,0.76874 -2.80523,2.30622v10.95119c0,1.47455 0.93508,2.21182 2.80523,2.21182h9.25187c1.10591,0 1.65886,0.55295 1.65886,1.65886v5.47559c0,1.10591 -0.55295,1.65886 -1.65886,1.65886zM141.10783,196.57514c-1.10591,0 -1.65886,-0.55295 -1.65886,-1.65886v-5.47559c0,-1.10591 0.55295,-1.65886 1.65886,-1.65886h4.5585v-15.46923h-4.5585c-1.10591,0 -1.65886,-0.55295 -1.65886,-1.65886v-5.55651c0,-1.10591 0.55295,-1.65886 1.65886,-1.65886h19.60964c1.10591,0 1.65886,0.55295 1.65886,1.65886v5.55651c0,1.10591 -0.55295,1.65886 -1.65886,1.65886h-4.46409v15.46923h4.46409c1.10591,0 1.65886,0.55295 1.65886,1.65886v5.47559c0,1.10591 -0.55295,1.65886 -1.65886,1.65886zM177.4256,194.91627c0,1.10591 -0.55295,1.65886 -1.65886,1.65886h-6.77032c-1.10591,0 -1.65886,-0.55295 -1.65886,-1.65886v-12.1515c0,-0.91709 0.14386,-1.97355 0.43157,-3.16937c0.29671,-1.20481 0.75076,-2.60293 1.36216,-4.19436l4.00555,-10.45218c0.34166,-1.007 1.12389,-1.51051 2.34668,-1.51051h12.38078c1.20481,0 1.97355,0.5035 2.30622,1.51051l4.00555,10.45218c0.6114,1.59143 1.06095,2.98955 1.34867,4.19436c0.29671,1.19582 0.44506,2.25228 0.44506,3.16937v12.1515c0,1.10591 -0.55295,1.65886 -1.65886,1.65886h-6.94564c-1.19582,0 -1.79373,-0.55295 -1.79373,-1.65886v-6.44664h-8.14596zM180.04202,173.09482l-2.15787,6.99959h7.22886l-2.17136,-6.99959c-0.21579,-0.52148 -0.508,-0.78223 -0.87663,-0.78223h-1.14637c-0.36864,0 -0.66085,0.26074 -0.87663,0.78223zM226.726,196.57514h-23.43986c-1.10591,0 -1.65886,-0.55295 -1.65886,-1.65886v-29.81906c0,-1.10591 0.55295,-1.65886 1.65886,-1.65886h7.13446c1.10591,0 1.65886,0.55295 1.65886,1.65886v22.77901h6.31177v-7.45814c0,-1.10591 0.55295,-1.65886 1.65886,-1.65886h6.67591c1.09692,0 1.64538,0.55295 1.64538,1.65886v14.49819c0,1.10591 -0.54846,1.65886 -1.64538,1.65886zM252.03808,196.57514h-6.86472c-1.10591,0 -1.65886,-0.55295 -1.65886,-1.65886v-29.81906c0,-1.10591 0.55295,-1.65886 1.65886,-1.65886h7.41768c0.91709,0 1.6229,0.45855 2.11741,1.37564l4.14041,7.4986c0.15285,0.27872 0.28322,0.48102 0.39111,0.6069c0.10789,0.11688 0.25175,0.17533 0.43157,0.17533h0.41809c0.18881,0 0.33717,-0.05844 0.44506,-0.17533c0.10789,-0.12588 0.23826,-0.32818 0.39111,-0.6069l4.08647,-7.4986c0.49451,-0.91709 1.20031,-1.37564 2.11741,-1.37564h7.45814c1.10591,0 1.65886,0.55295 1.65886,1.65886v29.81906c0,1.10591 -0.55295,1.65886 -1.65886,1.65886h-7.08051c-1.10591,0 -1.65886,-0.55295 -1.65886,-1.65886v-16.19751l-2.72431,5.01705c-0.52148,0.98003 -1.33068,1.47005 -2.4276,1.47005h-1.84768c-1.10591,0 -1.91961,-0.49002 -2.44109,-1.47005l-2.71082,-5.01705v16.19751c0,1.10591 -0.55295,1.65886 -1.65886,1.65886zM305.61573,196.57514h-21.36291c-1.10591,0 -1.65886,-0.55295 -1.65886,-1.65886v-29.81906c0,-1.10591 0.55295,-1.65886 1.65886,-1.65886h21.36291c1.10591,0 1.65886,0.55295 1.65886,1.65886v5.38119c0,1.10591 -0.55295,1.65886 -1.65886,1.65886h-12.70446v3.547h8.98213c1.09692,0 1.64538,0.54846 1.64538,1.64538v4.93613c0,1.09692 -0.54846,1.64538 -1.64538,1.64538h-8.98213v3.96509h12.70446c1.10591,0 1.65886,0.55295 1.65886,1.65886v5.38119c0,1.10591 -0.55295,1.65886 -1.65886,1.65886zM329.87959,196.57514h-15.52317c-1.10591,0 -1.65886,-0.55295 -1.65886,-1.65886v-29.81906c0,-1.10591 0.55295,-1.65886 1.65886,-1.65886h15.52317c3.86618,0 6.71637,0.76874 8.55056,2.30622c1.84318,1.52849 2.76477,3.88866 2.76477,7.08051v14.36332c0,3.19185 -0.92159,5.55651 -2.76477,7.094c-1.83419,1.52849 -4.68438,2.29274 -8.55056,2.29274zM323.14973,172.23167v15.64455h5.47559c1.44757,0 2.17136,-0.75076 2.17136,-2.25228v-11.19395c0,-1.46555 -0.72378,-2.19833 -2.17136,-2.19833zM347.9665,196.57514c-1.10591,0 -1.65886,-0.55295 -1.65886,-1.65886v-5.47559c0,-1.10591 0.55295,-1.65886 1.65886,-1.65886h4.5585v-15.46923h-4.5585c-1.10591,0 -1.65886,-0.55295 -1.65886,-1.65886v-5.55651c0,-1.10591 0.55295,-1.65886 1.65886,-1.65886h19.60964c1.10591,0 1.65886,0.55295 1.65886,1.65886v5.55651c0,1.10591 -0.55295,1.65886 -1.65886,1.65886h-4.46409v15.46923h4.46409c1.10591,0 1.65886,0.55295 1.65886,1.65886v5.47559c0,1.10591 -0.55295,1.65886 -1.65886,1.65886zM384.28424,194.91627c0,1.10591 -0.55295,1.65886 -1.65886,1.65886h-6.77032c-1.10591,0 -1.65886,-0.55295 -1.65886,-1.65886v-12.1515c0,-0.91709 0.14386,-1.97355 0.43157,-3.16937c0.29671,-1.20481 0.75076,-2.60293 1.36216,-4.19436l4.00555,-10.45218c0.34166,-1.007 1.12389,-1.51051 2.34668,-1.51051h12.38078c1.20481,0 1.97355,0.5035 2.30622,1.51051l4.00555,10.45218c0.6114,1.59143 1.06095,2.98955 1.34867,4.19436c0.29671,1.19582 0.44506,2.25228 0.44506,3.16937v12.1515c0,1.10591 -0.55295,1.65886 -1.65886,1.65886h-6.94564c-1.19582,0 -1.79373,-0.55295 -1.79373,-1.65886v-6.44664h-8.14596zM386.90066,173.09482l-2.15787,6.99959h7.22886l-2.17136,-6.99959c-0.21579,-0.52148 -0.508,-0.78223 -0.87663,-0.78223h-1.14637c-0.36864,0 -0.66085,0.26074 -0.87663,0.78223zM423.86076,196.57514h-14.53865c-1.10591,0 -1.65886,-0.55295 -1.65886,-1.65886v-5.38119c0,-1.10591 0.55295,-1.65886 1.65886,-1.65886h12.38078c0.39561,0 0.69232,-0.13037 0.89012,-0.39111c0.2068,-0.26074 0.31019,-0.57543 0.31019,-0.94407c0,-0.52148 -0.1034,-0.90361 -0.31019,-1.14637c-0.1978,-0.25175 -0.49451,-0.39111 -0.89012,-0.41809l-6.90518,-0.97104c-2.14888,-0.33267 -3.87518,-1.04297 -5.17889,-2.1309c-1.30371,-1.09692 -1.95557,-2.93111 -1.95557,-5.50257v-4.84172c0,-2.6344 0.84067,-4.63942 2.52201,-6.01506c1.69033,-1.38463 4.02802,-2.07695 7.01308,-2.07695h12.87978c1.10591,0 1.65886,0.55295 1.65886,1.65886v5.47559c0,1.10591 -0.55295,1.65886 -1.65886,1.65886h-10.72191c-0.82718,0 -1.24077,0.45855 -1.24077,1.37564c0,0.89012 0.41359,1.38014 1.24077,1.47005l6.85124,0.91709c1.44757,0.21579 2.70633,0.59341 3.77627,1.13288c1.07893,0.53947 1.91511,1.33068 2.50852,2.37366c0.6024,1.04297 0.90361,2.42311 0.90361,4.14041v4.82823c0,2.60743 -0.84516,4.61245 -2.5355,6.01506c-1.69033,1.39363 -4.02353,2.09044 -6.99959,2.09044z" fill="#00ff3a" stroke="#00b129" stroke-width="2.5" stroke-linecap="square"/></g></g></svg>