<svg version="1.1" xmlns="http://www.w3.org/2000/svg" xmlns:xlink="http://www.w3.org/1999/xlink" width="720" height="540" viewBox="0,0,720,540"><defs><clipPath id="clip-1"><rect x="-240" y="-180" transform="scale(0.5,0.5)" width="1440" height="1080" fill="none" fill-rule="nonzero" stroke-width="0.5" stroke-linecap="butt"/></clipPath></defs><g transform="translate(120,90)"><g clip-path="url(#clip-1)" data-paper-data="{&quot;isPaintingLayer&quot;:true}" stroke="none" stroke-linejoin="miter" stroke-miterlimit="10" stroke-dasharray="" stroke-dashoffset="0" style="mix-blend-mode: normal"><path d="M-240,-180h960v720h-960z" fill-opacity="0" fill="#000000" fill-rule="evenodd" stroke-width="1" stroke-linecap="square"/><path d="M94.05624,194.8778h-22.39062c-0.85417,0 -1.46875,-0.23437 -1.84375,-0.70312c-0.375,-0.47917 -0.47917,-1.13542 -0.3125,-1.96875l6.0625,-28.51562c0.17708,-0.77083 0.49479,-1.34896 0.95313,-1.73437c0.46875,-0.38542 1.09375,-0.57812 1.875,-0.57812h6.8125c0.85417,0 1.46875,0.23958 1.84375,0.71875c0.38542,0.47917 0.48438,1.13542 0.29688,1.96875l-4.39062,20.6875h4.15625l1.35938,-6.40625c0.15625,-0.77083 0.46875,-1.34896 0.9375,-1.73437c0.47917,-0.38542 1.10938,-0.57812 1.89063,-0.57812h6.375c0.86458,0 1.47396,0.23958 1.82813,0.71875c0.36458,0.47917 0.46354,1.13542 0.29688,1.96875l-2.95312,13.85938c-0.15625,0.75 -0.46875,1.32292 -0.9375,1.71875c-0.45833,0.38542 -1.07812,0.57813 -1.85937,0.57813zM122.65182,194.8778h-20.40625c-0.85417,0 -1.46875,-0.23437 -1.84375,-0.70312c-0.375,-0.47917 -0.47917,-1.13542 -0.3125,-1.96875l6.0625,-28.51562c0.17708,-0.77083 0.49479,-1.34896 0.95313,-1.73437c0.46875,-0.38542 1.09375,-0.57812 1.875,-0.57812h20.40625c0.85417,0 1.46875,0.23958 1.84375,0.71875c0.38542,0.47917 0.48438,1.13542 0.29688,1.96875l-1.09375,5.14063c-0.15625,0.77083 -0.46875,1.34896 -0.9375,1.73438c-0.46875,0.38542 -1.09375,0.57813 -1.875,0.57813h-11.40625l-0.32812,1.57813h7.45313c0.85417,0 1.46875,0.23438 1.84375,0.70313c0.38542,0.46875 0.48438,1.125 0.29688,1.96875l-1,4.70313c-0.15625,0.77083 -0.46875,1.34896 -0.9375,1.73438c-0.46875,0.38542 -1.09375,0.57813 -1.875,0.57813h-7.84375l-0.42187,1.96875h11.01563c0.85417,0 1.46875,0.23958 1.84375,0.71875c0.375,0.46875 0.47917,1.11979 0.3125,1.95313l-1.10937,5.15625c-0.15625,0.76042 -0.46875,1.33333 -0.9375,1.71875c-0.46875,0.38542 -1.09375,0.57813 -1.875,0.57813zM146.45901,172.0028l-2.76562,5.3125h4.40625l-0.53125,-5.64062c-0.02083,-0.0625 0.00521,-0.11979 0.07813,-0.17187c0.08333,-0.0625 0.125,0 0.125,0.1875h-1.09375c0,-0.07292 -0.01042,-0.07812 -0.03125,-0.01562c-0.02083,0.0625 -0.08333,0.17188 -0.1875,0.32813zM139.63089,192.58092c-0.15625,0.76042 -0.46875,1.33333 -0.9375,1.71875c-0.46875,0.38542 -1.09375,0.57813 -1.875,0.57813h-6.46875c-0.84375,0 -1.45312,-0.23437 -1.82812,-0.70312c-0.375,-0.47917 -0.47917,-1.13542 -0.3125,-1.96875l2.48438,-11.625c0.1875,-0.9375 0.55729,-2 1.10938,-3.1875c0.55208,-1.19792 1.28646,-2.57292 2.20313,-4.125l5.95313,-9.98437c0.36458,-0.625 0.82292,-1.09896 1.375,-1.42187c0.5625,-0.32292 1.21354,-0.48437 1.95313,-0.48437h11.84375c0.77083,0 1.40104,0.1875 1.89063,0.5625c0.48958,0.375 0.78646,0.92708 0.89063,1.65625l1.70313,9.98438c0.27083,1.5625 0.42188,2.94792 0.45313,4.15625c0.04167,1.19792 -0.03125,2.27083 -0.21875,3.21875l-2.48437,11.625c-0.15625,0.76042 -0.46875,1.33333 -0.9375,1.71875c-0.46875,0.38542 -1.09375,0.57813 -1.875,0.57813h-6.64062c-0.85417,0 -1.49479,-0.22917 -1.92187,-0.6875c-0.41667,-0.46875 -0.53646,-1.13021 -0.35937,-1.98437l1.07813,-5.07812h-5.92187zM177.96957,194.8778h-14.82812c-0.85417,0 -1.46875,-0.23437 -1.84375,-0.70312c-0.375,-0.47917 -0.47917,-1.13542 -0.3125,-1.96875l6.0625,-28.51562c0.17708,-0.77083 0.49479,-1.34896 0.95313,-1.73437c0.46875,-0.38542 1.09375,-0.57812 1.875,-0.57812h14.82813c3.91667,0 6.70313,0.83854 8.35938,2.51563c1.66667,1.66667 2.14583,4.1875 1.4375,7.5625l-2.92187,13.73438c-0.69792,3.27083 -2.17708,5.70313 -4.4375,7.29688c-2.26042,1.59375 -5.31771,2.39063 -9.17187,2.39063zM177.23519,171.59655l-2.79687,13.15625h4.10938c0.47917,0 0.84375,-0.10417 1.09375,-0.3125c0.25,-0.21875 0.42708,-0.59375 0.53125,-1.125l2.28125,-10.6875c0.10417,-0.45833 0.10938,-0.74479 0.01563,-0.85937c-0.08333,-0.11458 -0.32812,-0.17187 -0.73437,-0.17187zM216.37161,194.8778h-20.40625c-0.85417,0 -1.46875,-0.23437 -1.84375,-0.70312c-0.375,-0.47917 -0.47917,-1.13542 -0.3125,-1.96875l6.0625,-28.51562c0.17708,-0.77083 0.49479,-1.34896 0.95313,-1.73437c0.46875,-0.38542 1.09375,-0.57812 1.875,-0.57812h20.40625c0.85417,0 1.46875,0.23958 1.84375,0.71875c0.38542,0.47917 0.48438,1.13542 0.29688,1.96875l-1.09375,5.14063c-0.15625,0.77083 -0.46875,1.34896 -0.9375,1.73438c-0.46875,0.38542 -1.09375,0.57813 -1.875,0.57813h-11.40625l-0.32812,1.57813h7.45313c0.85417,0 1.46875,0.23438 1.84375,0.70313c0.38542,0.46875 0.48438,1.125 0.29688,1.96875l-1,4.70313c-0.15625,0.77083 -0.46875,1.34896 -0.9375,1.73438c-0.46875,0.38542 -1.09375,0.57813 -1.875,0.57813h-7.84375l-0.42187,1.96875h11.01563c0.85417,0 1.46875,0.23958 1.84375,0.71875c0.375,0.46875 0.47917,1.11979 0.3125,1.95313l-1.10937,5.15625c-0.15625,0.76042 -0.46875,1.33333 -0.9375,1.71875c-0.46875,0.38542 -1.09375,0.57813 -1.875,0.57813zM238.88192,171.11217l-0.8125,3.82813h2.1875c0.48958,0 0.83333,-0.11458 1.03125,-0.34375c0.20833,-0.23958 0.35938,-0.57812 0.45313,-1.01562l0.3125,-1.48437c0.08333,-0.39583 0.09375,-0.65625 0.03125,-0.78125c-0.05208,-0.13542 -0.26562,-0.20312 -0.64062,-0.20312zM231.50692,194.8778h-6.76562c-0.85417,0 -1.46875,-0.23437 -1.84375,-0.70312c-0.375,-0.47917 -0.47917,-1.13542 -0.3125,-1.96875l6.0625,-28.51562c0.17708,-0.77083 0.49479,-1.34896 0.95313,-1.73437c0.46875,-0.38542 1.09375,-0.57812 1.875,-0.57812h14.64063c3.60417,0 5.96354,0.80208 7.07813,2.40625c1.125,1.59375 1.43229,3.60938 0.92188,6.04688l-0.42187,2.01563c-0.30208,1.34375 -0.76562,2.51563 -1.39062,3.51563c-0.625,0.98958 -1.09375,1.35938 -1.40625,1.10938c0.8125,-0.26042 1.66146,0.28125 2.54688,1.625c0.89583,1.33333 1.11979,3.05208 0.67188,5.15625l-1.98437,9.32813c-0.15625,0.76042 -0.46875,1.33333 -0.9375,1.71875c-0.46875,0.38542 -1.08854,0.57813 -1.85937,0.57813h-6.82812c-0.84375,0 -1.45312,-0.23437 -1.82812,-0.70312c-0.375,-0.47917 -0.47917,-1.13542 -0.3125,-1.96875l1.4375,-6.73437c0.09375,-0.41667 0.11979,-0.65104 0.07813,-0.70312c-0.03125,-0.0625 -0.18229,-0.09375 -0.45312,-0.09375h-5.42187l-1.6875,7.90625c-0.15625,0.76042 -0.46875,1.33333 -0.9375,1.71875c-0.46875,0.38542 -1.09375,0.57813 -1.875,0.57813zM274.32385,194.8778h-16.89059c-0.85417,0 -1.46875,-0.23437 -1.84375,-0.70312c-0.375,-0.47917 -0.47917,-1.13542 -0.3125,-1.96875l6.0625,-28.51562c0.17708,-0.77083 0.49479,-1.34896 0.95313,-1.73437c0.46875,-0.38542 1.09375,-0.57812 1.875,-0.57812h14.03122c3.11458,0 5.34896,0.65625 6.70313,1.96875c1.35417,1.30208 1.75521,3.25521 1.20313,5.85938l-0.4375,2.10938c-0.30208,1.375 -0.79167,2.51042 -1.46875,3.40625c-0.67708,0.89583 -1.16146,1.20833 -1.45312,0.9375c1.14583,-0.23958 2.125,0.31771 2.9375,1.67188c0.8125,1.34375 0.96354,3.19792 0.45313,5.5625l-0.85937,4.04688c-0.57292,2.69792 -1.76562,4.69792 -3.57812,6c-1.8125,1.29167 -4.27083,1.9375 -7.375,1.9375zM271.62075,170.67467l-0.625,2.9375h2.62497c0.33333,0 0.58854,-0.07292 0.76563,-0.21875c0.17708,-0.15625 0.30208,-0.42708 0.375,-0.8125l0.26563,-1.23437c0.07292,-0.32292 0.08333,-0.51562 0.03125,-0.57812c-0.04167,-0.0625 -0.1875,-0.09375 -0.4375,-0.09375zM269.16763,182.20592l-0.70312,3.375h4.59372c0.33333,0 0.58854,-0.07292 0.76563,-0.21875c0.17708,-0.15625 0.30729,-0.42708 0.39063,-0.8125l0.35938,-1.71875c0.07292,-0.3125 0.08333,-0.49479 0.03125,-0.54687c-0.04167,-0.05208 -0.19271,-0.07812 -0.45312,-0.07812zM317.23944,185.84655c-0.30208,1.4375 -0.80208,2.76042 -1.5,3.96875c-0.6875,1.20833 -1.67187,2.23438 -2.95312,3.07813c-1.28125,0.84375 -2.90104,1.49479 -4.85937,1.95313c-1.94792,0.45833 -4.32292,0.6875 -7.125,0.6875c-2.80208,0 -5.10417,-0.22917 -6.90625,-0.6875c-1.80208,-0.46875 -3.19792,-1.15104 -4.1875,-2.04687c-0.97917,-0.90625 -1.5625,-1.98958 -1.75,-3.25c-0.1875,-1.27083 -0.13021,-2.63021 0.17188,-4.07812l3.1875,-15c0.3125,-1.44792 0.8125,-2.77083 1.5,-3.96875c0.6875,-1.20833 1.67188,-2.23958 2.95313,-3.09375c1.29167,-0.86458 2.92188,-1.52604 4.89063,-1.98437c1.96875,-0.46875 4.35417,-0.70312 7.15625,-0.70312c2.8125,0 5.11458,0.23958 6.90625,0.71875c1.79167,0.46875 3.17188,1.16146 4.14063,2.07813c0.97917,0.91667 1.5625,2.00521 1.75,3.26563c0.1875,1.25 0.125,2.60417 -0.1875,4.0625zM300.25506,184.2528c-0.0625,0.29167 -0.01562,0.53125 0.14063,0.71875c0.15625,0.17708 0.89063,0.26563 2.20313,0.26563c1.38542,0 2.25521,-0.13021 2.60938,-0.39062c0.36458,-0.27083 0.58333,-0.59375 0.65625,-0.96875l2.51563,-11.82812c0.05208,-0.26042 -0.00521,-0.47917 -0.17187,-0.65625c-0.16667,-0.1875 -0.90625,-0.28125 -2.21875,-0.28125c-1.375,0 -2.23958,0.13542 -2.59375,0.40625c-0.35417,0.26042 -0.5625,0.5625 -0.625,0.90625zM337.1986,172.0028l-2.76562,5.3125h4.40625l-0.53125,-5.64062c-0.02083,-0.0625 0.00521,-0.11979 0.07813,-0.17187c0.08333,-0.0625 0.125,0 0.125,0.1875h-1.09375c0,-0.07292 -0.01042,-0.07812 -0.03125,-0.01562c-0.02083,0.0625 -0.08333,0.17188 -0.1875,0.32813zM330.37048,192.58092c-0.15625,0.76042 -0.46875,1.33333 -0.9375,1.71875c-0.46875,0.38542 -1.09375,0.57813 -1.875,0.57813h-6.46875c-0.84375,0 -1.45312,-0.23437 -1.82812,-0.70312c-0.375,-0.47917 -0.47917,-1.13542 -0.3125,-1.96875l2.48438,-11.625c0.1875,-0.9375 0.55729,-2 1.10938,-3.1875c0.55208,-1.19792 1.28646,-2.57292 2.20313,-4.125l5.95313,-9.98437c0.36458,-0.625 0.82292,-1.09896 1.375,-1.42187c0.5625,-0.32292 1.21354,-0.48437 1.95313,-0.48437h11.84375c0.77083,0 1.40104,0.1875 1.89063,0.5625c0.48958,0.375 0.78646,0.92708 0.89063,1.65625l1.70313,9.98438c0.27083,1.5625 0.42188,2.94792 0.45313,4.15625c0.04167,1.19792 -0.03125,2.27083 -0.21875,3.21875l-2.48437,11.625c-0.15625,0.76042 -0.46875,1.33333 -0.9375,1.71875c-0.46875,0.38542 -1.09375,0.57813 -1.875,0.57813h-6.64062c-0.85417,0 -1.49479,-0.22917 -1.92187,-0.6875c-0.41667,-0.46875 -0.53646,-1.13021 -0.35937,-1.98437l1.07813,-5.07812h-5.92187zM368.02166,171.11217l-0.8125,3.82813h2.1875c0.48958,0 0.83333,-0.11458 1.03125,-0.34375c0.20833,-0.23958 0.35938,-0.57812 0.45313,-1.01562l0.3125,-1.48437c0.08333,-0.39583 0.09375,-0.65625 0.03125,-0.78125c-0.05208,-0.13542 -0.26562,-0.20312 -0.64062,-0.20312zM360.64666,194.8778h-6.76562c-0.85417,0 -1.46875,-0.23437 -1.84375,-0.70312c-0.375,-0.47917 -0.47917,-1.13542 -0.3125,-1.96875l6.0625,-28.51562c0.17708,-0.77083 0.49479,-1.34896 0.95313,-1.73437c0.46875,-0.38542 1.09375,-0.57812 1.875,-0.57812h14.64063c3.60417,0 5.96354,0.80208 7.07813,2.40625c1.125,1.59375 1.43229,3.60938 0.92188,6.04688l-0.42187,2.01563c-0.30208,1.34375 -0.76562,2.51563 -1.39062,3.51563c-0.625,0.98958 -1.09375,1.35938 -1.40625,1.10938c0.8125,-0.26042 1.66146,0.28125 2.54688,1.625c0.89583,1.33333 1.11979,3.05208 0.67188,5.15625l-1.98437,9.32813c-0.15625,0.76042 -0.46875,1.33333 -0.9375,1.71875c-0.46875,0.38542 -1.08854,0.57813 -1.85937,0.57813h-6.82812c-0.84375,0 -1.45312,-0.23437 -1.82812,-0.70312c-0.375,-0.47917 -0.47917,-1.13542 -0.3125,-1.96875l1.4375,-6.73437c0.09375,-0.41667 0.11979,-0.65104 0.07813,-0.70312c-0.03125,-0.0625 -0.18229,-0.09375 -0.45312,-0.09375h-5.42187l-1.6875,7.90625c-0.15625,0.76042 -0.46875,1.33333 -0.9375,1.71875c-0.46875,0.38542 -1.09375,0.57813 -1.875,0.57813zM401.40112,194.8778h-14.82812c-0.85417,0 -1.46875,-0.23437 -1.84375,-0.70312c-0.375,-0.47917 -0.47917,-1.13542 -0.3125,-1.96875l6.0625,-28.51562c0.17708,-0.77083 0.49479,-1.34896 0.95313,-1.73437c0.46875,-0.38542 1.09375,-0.57812 1.875,-0.57812h14.82813c3.91667,0 6.70313,0.83854 8.35938,2.51563c1.66667,1.66667 2.14583,4.1875 1.4375,7.5625l-2.92187,13.73438c-0.69792,3.27083 -2.17708,5.70313 -4.4375,7.29688c-2.26042,1.59375 -5.31771,2.39063 -9.17187,2.39063zM400.66674,171.59655l-2.79687,13.15625h4.10938c0.47917,0 0.84375,-0.10417 1.09375,-0.3125c0.25,-0.21875 0.42708,-0.59375 0.53125,-1.125l2.28125,-10.6875c0.10417,-0.45833 0.10938,-0.74479 0.01563,-0.85937c-0.08333,-0.11458 -0.32812,-0.17187 -0.73437,-0.17187z" fill="#000000" fill-rule="nonzero" stroke-width="1" stroke-linecap="square"/></g></g></svg>