<svg version="1.1" xmlns="http://www.w3.org/2000/svg" xmlns:xlink="http://www.w3.org/1999/xlink" width="26.60944" height="34.18753" viewBox="0,0,26.60944,34.18753"><g transform="translate(-226.69532,-162.90629)"><g data-paper-data="{&quot;isPaintingLayer&quot;:true}" fill="#ffffff" fill-rule="nonzero" stroke="#000000" stroke-width="2.5" stroke-linecap="square" stroke-linejoin="miter" stroke-miterlimit="10" stroke-dasharray="" stroke-dashoffset="0" style="mix-blend-mode: normal"><path d="M250.46094,195.84375h-20.9375c-0.55209,0 -0.95312,-0.125 -1.20312,-0.375c-0.25,-0.25 -0.375,-0.65104 -0.375,-1.20312v-7.57812c0,-1.69791 0.16666,-3.09375 0.5,-4.1875c0.33334,-1.10416 0.80729,-2.00521 1.42188,-2.70312c0.625,-0.70834 1.35938,-1.26562 2.20313,-1.67187c0.85416,-0.41666 1.78125,-0.77084 2.78125,-1.0625l5.89063,-1.85937c0.46875,-0.11459 0.78125,-0.28646 0.9375,-0.51562c0.16666,-0.23959 0.25,-0.59375 0.25,-1.0625c0,-0.4375 -0.08854,-0.73437 -0.26562,-0.89062c-0.17709,-0.16666 -0.48437,-0.25 -0.92187,-0.25h-9.54687c-0.55209,0 -0.95312,-0.125 -1.20312,-0.375c-0.25,-0.25 -0.375,-0.65625 -0.375,-1.21875v-5.14062c0,-0.5625 0.125,-0.96875 0.375,-1.21875c0.25,-0.25 0.65104,-0.375 1.20313,-0.375h12.98438c2.48959,0 4.40104,0.625 5.73438,1.875c1.33334,1.25 2,3.0625 2,5.4375v4.14063c0,2.19791 -0.61459,3.88541 -1.84375,5.0625c-1.22916,1.16666 -2.90104,2.07291 -5.01562,2.71875l-5.98437,1.89063c-0.4375,0.11459 -0.73959,0.25 -0.90625,0.40625c-0.15625,0.14584 -0.23437,0.45313 -0.23437,0.92188v0.92188h12.53125c0.5625,0 0.96875,0.125 1.21875,0.375c0.25,0.25 0.375,0.65104 0.375,1.20313v5.15625c0,0.55209 -0.125,0.95313 -0.375,1.20313c-0.25,0.25 -0.65625,0.375 -1.21875,0.375z"/></g></g></svg>