<svg version="1.1" xmlns="http://www.w3.org/2000/svg" xmlns:xlink="http://www.w3.org/1999/xlink" width="960" height="720" viewBox="0,0,960,720"><defs><clipPath id="clip-1"><path d="M-240,-180h960v720h-960z" fill="none" fill-rule="nonzero" stroke="none" stroke-width="1" stroke-linecap="butt"/></clipPath></defs><g transform="translate(240,180)"><g clip-path="url(#clip-1)" data-paper-data="{&quot;isPaintingLayer&quot;:true}" stroke-linejoin="miter" stroke-miterlimit="10" stroke-dasharray="" stroke-dashoffset="0" style="mix-blend-mode: normal"><path d="M-240,-180h960v720h-960z" fill-opacity="0" fill="#000000" fill-rule="evenodd" stroke="none" stroke-width="1" stroke-linecap="square"/><path d="M102.74533,200.8778h-6.8125c-0.8125,0 -1.43229,-0.21354 -1.85937,-0.64062c-0.42708,-0.42708 -0.64062,-1.04167 -0.64062,-1.84375v-28.51562c0,-0.8125 0.21354,-1.43229 0.64063,-1.85937c0.42708,-0.42708 1.04688,-0.64062 1.85938,-0.64062h6.8125c0.8125,0 1.43229,0.21354 1.85938,0.64063c0.42708,0.42708 0.64063,1.04688 0.64063,1.85938v8.64063h5.53125v-8.64062c0,-0.8125 0.21354,-1.43229 0.64063,-1.85937c0.42708,-0.42708 1.04167,-0.64062 1.84375,-0.64062h6.82813c0.80208,0 1.41667,0.21354 1.84375,0.64063c0.42708,0.42708 0.64063,1.04688 0.64063,1.85938v28.51563c0,0.80208 -0.21354,1.41667 -0.64062,1.84375c-0.42708,0.42708 -1.04167,0.64063 -1.84375,0.64063h-6.82812c-0.80208,0 -1.41667,-0.21354 -1.84375,-0.64062c-0.42708,-0.42708 -0.64062,-1.04167 -0.64062,-1.84375v-8.875h-5.53125v8.875c0,0.80208 -0.21354,1.41667 -0.64062,1.84375c-0.42708,0.42708 -1.04687,0.64063 -1.85937,0.64063zM128.62564,200.8778c-0.8125,0 -1.43229,-0.21354 -1.85937,-0.64062c-0.42708,-0.42708 -0.64062,-1.04167 -0.64062,-1.84375v-5.23437c0,-0.8125 0.21354,-1.43229 0.64063,-1.85937c0.42708,-0.42708 1.04688,-0.64062 1.85938,-0.64062h3.4375v-12.96875h-3.4375c-0.8125,0 -1.43229,-0.21354 -1.85937,-0.64062c-0.42708,-0.42708 -0.64062,-1.04167 -0.64062,-1.84375v-5.32812c0,-0.8125 0.21354,-1.43229 0.64063,-1.85937c0.42708,-0.42708 1.04688,-0.64062 1.85938,-0.64062h18.73438c0.8125,0 1.43229,0.21354 1.85938,0.64063c0.42708,0.42708 0.64063,1.04688 0.64063,1.85938v5.32813c0,0.80208 -0.21354,1.41667 -0.64062,1.84375c-0.42708,0.42708 -1.04687,0.64063 -1.85937,0.64063h-3.35937v12.96875h3.35938c0.8125,0 1.43229,0.21354 1.85938,0.64063c0.42708,0.42708 0.64063,1.04688 0.64063,1.85938v5.23438c0,0.80208 -0.21354,1.41667 -0.64062,1.84375c-0.42708,0.42708 -1.04687,0.64063 -1.85937,0.64063zM178.55807,200.8778h-13.85937c-3.88542,0 -6.8125,-0.8125 -8.78125,-2.4375c-1.96875,-1.63542 -2.95312,-4.11458 -2.95312,-7.4375v-13.73437c0,-3.33333 0.98438,-5.8125 2.95313,-7.4375c1.96875,-1.63542 4.89583,-2.45312 8.78125,-2.45312h11c0.8125,0 1.42708,0.21354 1.84375,0.64063c0.42708,0.42708 0.64063,1.04688 0.64063,1.85938v5.32813c0,0.80208 -0.21354,1.41667 -0.64062,1.84375c-0.41667,0.42708 -1.03125,0.64063 -1.84375,0.64063h-9.15625c-0.6875,0 -1.15625,0.10417 -1.40625,0.3125c-0.23958,0.19792 -0.35937,0.52604 -0.35937,0.98438v10.51563c0,0.48958 0.07813,0.82292 0.23438,1c0.16667,0.16667 0.45833,0.25 0.875,0.25h3.35938v-5.96875c0,-0.80208 0.21354,-1.41667 0.64063,-1.84375c0.42708,-0.42708 1.04688,-0.64062 1.85938,-0.64062h6.8125c0.8125,0 1.42708,0.21354 1.84375,0.64063c0.42708,0.42708 0.64063,1.04167 0.64063,1.84375v13.60938c0,0.80208 -0.21354,1.41667 -0.64062,1.84375c-0.41667,0.42708 -1.03125,0.64063 -1.84375,0.64063zM193.91315,200.8778h-6.8125c-0.8125,0 -1.43229,-0.21354 -1.85937,-0.64062c-0.42708,-0.42708 -0.64062,-1.04167 -0.64062,-1.84375v-28.51562c0,-0.8125 0.21354,-1.43229 0.64063,-1.85937c0.42708,-0.42708 1.04688,-0.64062 1.85938,-0.64062h6.8125c0.8125,0 1.43229,0.21354 1.85938,0.64063c0.42708,0.42708 0.64063,1.04688 0.64063,1.85938v8.64063h5.53125v-8.64062c0,-0.8125 0.21354,-1.43229 0.64063,-1.85937c0.42708,-0.42708 1.04167,-0.64062 1.84375,-0.64062h6.82813c0.80208,0 1.41667,0.21354 1.84375,0.64063c0.42708,0.42708 0.64063,1.04688 0.64063,1.85938v28.51563c0,0.80208 -0.21354,1.41667 -0.64062,1.84375c-0.42708,0.42708 -1.04167,0.64063 -1.84375,0.64063h-6.82812c-0.80208,0 -1.41667,-0.21354 -1.84375,-0.64062c-0.42708,-0.42708 -0.64062,-1.04167 -0.64062,-1.84375v-8.875h-5.53125v8.875c0,0.80208 -0.21354,1.41667 -0.64062,1.84375c-0.42708,0.42708 -1.04687,0.64063 -1.85937,0.64063zM233.60596,200.8778h-13.90625c-0.8125,0 -1.43229,-0.21354 -1.85937,-0.64062c-0.41667,-0.42708 -0.625,-1.04167 -0.625,-1.84375v-5.15625c0,-0.80208 0.20833,-1.41667 0.625,-1.84375c0.42708,-0.42708 1.04688,-0.64062 1.85938,-0.64062h11.82813c0.08333,0 0.14583,-0.02604 0.1875,-0.07812c0.04167,-0.05208 0.0625,-0.15104 0.0625,-0.29687c0,-0.28125 -0.02083,-0.44792 -0.0625,-0.5c-0.04167,-0.05208 -0.13542,-0.08333 -0.28125,-0.09375l-6.625,-0.9375c-2.22917,-0.3125 -4.05208,-1.06771 -5.46875,-2.26562c-1.41667,-1.20833 -2.125,-3.18229 -2.125,-5.92187v-4.625c0,-2.77083 0.90104,-4.90625 2.70313,-6.40625c1.80208,-1.5 4.23958,-2.25 7.3125,-2.25h12.3125c0.8125,0 1.42708,0.21354 1.84375,0.64063c0.42708,0.42708 0.64063,1.04688 0.64063,1.85938v5.23438c0,0.80208 -0.21354,1.41667 -0.64063,1.84375c-0.41667,0.42708 -1.03125,0.64063 -1.84375,0.64063h-10.25c-0.09375,0 -0.16667,0.03125 -0.21875,0.09375c-0.04167,0.05208 -0.0625,0.16146 -0.0625,0.32813c0,0.16667 0.02604,0.29167 0.07813,0.375c0.0625,0.07292 0.16146,0.11458 0.29688,0.125l6.57813,0.89063c2.23958,0.3125 4.07292,1.07292 5.5,2.28125c1.4375,1.19792 2.15625,3.17188 2.15625,5.92188v4.60938c0,2.78125 -0.91146,4.92188 -2.73438,6.42188c-1.82292,1.48958 -4.25,2.23438 -7.28125,2.23438zM268.5809,200.8778h-10.73437c-3.88542,0 -6.8125,-0.8125 -8.78125,-2.4375c-1.96875,-1.63542 -2.95312,-4.11458 -2.95312,-7.4375v-13.6875c0,-3.33333 0.98438,-5.82292 2.95313,-7.46875c1.96875,-1.64583 4.89583,-2.46875 8.78125,-2.46875h10.73438c0.8125,0 1.43229,0.21354 1.85938,0.64063c0.42708,0.42708 0.64063,1.04688 0.64063,1.85938v5.32813c0,0.80208 -0.21354,1.41667 -0.64062,1.84375c-0.42708,0.42708 -1.04687,0.64063 -1.85937,0.64063h-8.84375c-0.6875,0 -1.15625,0.10417 -1.40625,0.3125c-0.25,0.19792 -0.375,0.52604 -0.375,0.98438v10.46875c0,0.42708 0.11979,0.73438 0.35938,0.92188c0.25,0.1875 0.72396,0.28125 1.42188,0.28125h8.84375c0.8125,0 1.43229,0.21354 1.85938,0.64063c0.42708,0.42708 0.64063,1.04688 0.64063,1.85938v5.23438c0,0.80208 -0.21354,1.41667 -0.64062,1.84375c-0.42708,0.42708 -1.04687,0.64063 -1.85937,0.64063zM302.66473,191.65905c0,1.44792 -0.22396,2.79167 -0.67187,4.03125c-0.4375,1.23958 -1.22396,2.29167 -2.35937,3.15625c-1.125,0.86458 -2.625,1.53125 -4.5,2c-1.875,0.45833 -4.21354,0.6875 -7.01562,0.6875c-2.80208,0 -5.14583,-0.22917 -7.03125,-0.6875c-1.88542,-0.46875 -3.39583,-1.13542 -4.53125,-2c-1.13542,-0.86458 -1.92708,-1.91667 -2.375,-3.15625c-0.4375,-1.23958 -0.65625,-2.58333 -0.65625,-4.03125v-15c0,-1.45833 0.21875,-2.80208 0.65625,-4.03125c0.44792,-1.22917 1.23958,-2.28646 2.375,-3.17187c1.13542,-0.88542 2.64583,-1.5625 4.53125,-2.03125c1.88542,-0.46875 4.22917,-0.70312 7.03125,-0.70312c2.80208,0 5.14063,0.23438 7.01563,0.70313c1.875,0.46875 3.375,1.14583 4.5,2.03125c1.13542,0.88542 1.92188,1.94271 2.35938,3.17188c0.44792,1.22917 0.67188,2.57292 0.67188,4.03125zM285.33661,190.0653c0,0.32292 0.125,0.59896 0.375,0.82813c0.25,0.22917 1.05208,0.34375 2.40625,0.34375c1.35417,0 2.15625,-0.11458 2.40625,-0.34375c0.26042,-0.22917 0.39063,-0.50521 0.39063,-0.82812v-11.82812c0,-0.29167 -0.13021,-0.55208 -0.39062,-0.78125c-0.25,-0.22917 -1.05208,-0.34375 -2.40625,-0.34375c-1.35417,0 -2.15625,0.11458 -2.40625,0.34375c-0.25,0.22917 -0.375,0.48958 -0.375,0.78125zM318.20202,177.11217v3.82813h2.39063c0.4375,0 0.71875,-0.09375 0.84375,-0.28125c0.125,-0.1875 0.1875,-0.48437 0.1875,-0.89062v-1.48437c0,-0.40625 -0.0625,-0.70312 -0.1875,-0.89062c-0.125,-0.1875 -0.40625,-0.28125 -0.84375,-0.28125zM315.70202,200.8778h-6.76562c-0.8125,0 -1.43229,-0.21354 -1.85937,-0.64062c-0.42708,-0.42708 -0.64062,-1.04167 -0.64062,-1.84375v-28.51562c0,-0.8125 0.21354,-1.43229 0.64063,-1.85937c0.42708,-0.42708 1.04688,-0.64062 1.85938,-0.64062h14.64063c3.5625,0 6.04688,0.77604 7.45313,2.32813c1.41667,1.55208 2.125,3.53125 2.125,5.9375v2.01563c0,1.36458 -0.21875,2.56771 -0.65625,3.60938c-0.4375,1.03125 -0.83854,1.42708 -1.20312,1.1875c0.88542,-0.25 1.89063,0.27083 3.01563,1.5625c1.13542,1.28125 1.70313,2.96354 1.70313,5.04688v9.32813c0,0.80208 -0.21354,1.41667 -0.64062,1.84375c-0.42708,0.42708 -1.04167,0.64063 -1.84375,0.64063h-6.82812c-0.80208,0 -1.41667,-0.21354 -1.84375,-0.64062c-0.42708,-0.42708 -0.64062,-1.04167 -0.64062,-1.84375v-6.73437c0,-0.42708 -0.04687,-0.69792 -0.14062,-0.8125c-0.09375,-0.11458 -0.30208,-0.17187 -0.625,-0.17187h-5.25v7.71875c0,0.80208 -0.21354,1.41667 -0.64062,1.84375c-0.42708,0.42708 -1.04687,0.64063 -1.85937,0.64063zM362.03454,200.8778h-20.40625c-0.8125,0 -1.43229,-0.21354 -1.85937,-0.64062c-0.42708,-0.42708 -0.64062,-1.04167 -0.64062,-1.84375v-28.51562c0,-0.8125 0.21354,-1.43229 0.64063,-1.85937c0.42708,-0.42708 1.04688,-0.64062 1.85938,-0.64062h20.40625c0.8125,0 1.43229,0.21354 1.85938,0.64063c0.42708,0.42708 0.64063,1.04688 0.64063,1.85938v5.14063c0,0.8125 -0.21354,1.43229 -0.64062,1.85938c-0.42708,0.42708 -1.04687,0.64063 -1.85937,0.64063h-11.23437v1.57813h7.67188c0.8125,0 1.43229,0.21354 1.85938,0.64063c0.42708,0.41667 0.64063,1.03125 0.64063,1.84375v4.70313c0,0.8125 -0.21354,1.43229 -0.64062,1.85938c-0.42708,0.42708 -1.04687,0.64063 -1.85937,0.64063h-7.67187v1.96875h11.23438c0.8125,0 1.43229,0.21354 1.85938,0.64063c0.42708,0.42708 0.64063,1.04167 0.64063,1.84375v5.15625c0,0.80208 -0.21354,1.41667 -0.64062,1.84375c-0.42708,0.42708 -1.04687,0.64063 -1.85937,0.64063zM378.54486,189.34655h-6.82812c-0.80208,0 -1.41667,-0.20833 -1.84375,-0.625c-0.41667,-0.42708 -0.64583,-1.03125 -0.6875,-1.8125l-0.65625,-16.98437c-0.04167,-0.82292 0.14063,-1.45312 0.54688,-1.89062c0.41667,-0.4375 1.03646,-0.65625 1.85938,-0.65625h8.40625c0.8125,0 1.42188,0.21875 1.82813,0.65625c0.41667,0.4375 0.60417,1.06771 0.5625,1.89063l-0.60937,16.98438c-0.04167,0.79167 -0.28646,1.39583 -0.73437,1.8125c-0.4375,0.41667 -1.05208,0.625 -1.84375,0.625zM379.20111,200.8778h-8.09375c-0.8125,0 -1.43229,-0.21354 -1.85937,-0.64062c-0.41667,-0.42708 -0.625,-1.04167 -0.625,-1.84375v-5.76562c0,-0.8125 0.20833,-1.43229 0.625,-1.85937c0.42708,-0.42708 1.04688,-0.64062 1.85938,-0.64062h8.09375c0.8125,0 1.42708,0.21354 1.84375,0.64063c0.42708,0.42708 0.64063,1.04688 0.64063,1.85938v5.76563c0,0.80208 -0.21354,1.41667 -0.64062,1.84375c-0.41667,0.42708 -1.03125,0.64063 -1.84375,0.64063z" fill="#ffffff" fill-rule="nonzero" stroke="#000000" stroke-width="2.5" stroke-linecap="square"/></g></g></svg>