<svg version="1.1" xmlns="http://www.w3.org/2000/svg" xmlns:xlink="http://www.w3.org/1999/xlink" width="38.97349" height="17.28879" viewBox="0,0,38.97349,17.28879"><g transform="translate(-218.41921,-171.3132)"><g data-paper-data="{&quot;isPaintingLayer&quot;:true}" fill-rule="nonzero" stroke-linecap="butt" stroke-linejoin="miter" stroke-miterlimit="10" stroke-dasharray="" stroke-dashoffset="0" style="mix-blend-mode: normal"><path d="M232.34539,182.48729c0,0 1.20834,-1.42708 1.20834,-2.18968c0,-0.83415 -1.20834,-2.61984 -1.20834,-2.61984h4.7619v4.80952z" fill="#29291f" stroke="#000000" stroke-width="0.5"/><path d="M235.8226,175.69487c0.01619,0.00622 11.57309,4.50486 11.73436,4.56767c0.24087,0.09381 -0.07099,0.04358 -0.1438,0.02705c-0.03248,-0.00737 0.33997,-0.02035 0.21613,0.01033c-0.19586,0.04853 -12.35069,4.00082 -12.36996,4.00722c-1.24248,0.4131 -0.59217,-9.05617 0.56327,-8.61227z" data-paper-data="{&quot;index&quot;:null}" fill="#fff700" stroke="#000000" stroke-width="0.5"/><path d="M253.50928,180.95057c-3.44734,1.10383 -17.65037,5.65163 -22.3343,7.15142c-0.94803,0.30356 -1.5061,-0.22274 -1.5061,-1.33756c0,-3.7176 0,-11.99253 0,-13.87868c0,-0.75008 0.55905,-1.29033 1.50861,-0.98629c4.68702,1.50078 18.88837,6.04804 22.33431,7.15142c1.4614,0.46794 1.45995,1.4314 -0.00251,1.89968z" fill="#9b7800" stroke="#020202" stroke-width="0"/><path d="M253.50928,180.95057c-3.44734,1.10383 -17.65037,5.65163 -22.3343,7.15142c-0.94803,0.30356 -1.5061,-0.22274 -1.5061,-1.33756c0,-3.7176 0,-11.99253 0,-13.87868c0,-0.75008 0.55905,-1.29033 1.50861,-0.98629c4.68702,1.50078 18.88837,6.04804 22.33431,7.15142c1.4614,0.46794 1.45995,1.4314 -0.00251,1.89968z" fill="none" stroke="#020202" stroke-width="1"/><path d="M221.47965,183.89807v-7.84207h15.88784v7.84207c0,0 -10.02137,0 -12.82763,0c-1.37066,0 -3.06021,0 -3.06021,0z" fill="none" stroke="#000000" stroke-width="1"/><path d="M221.47965,183.89807v-7.84207h15.88782v7.84207c0,0 -10.02137,0 -12.82763,0c-1.37066,0 -3.0602,0 -3.0602,0z" fill="#424242" stroke="none" stroke-width="0"/><path d="M255.79499,180.95057c-3.44734,1.10383 -17.65037,5.65163 -22.3343,7.15142c-0.94803,0.30356 -1.5061,-0.22274 -1.5061,-1.33756c0,-3.7176 0,-11.99253 0,-13.87868c0,-0.75008 0.55905,-1.29033 1.50861,-0.98629c4.68702,1.50078 18.88837,6.04804 22.33431,7.15142c1.4614,0.46794 1.45995,1.4314 -0.00251,1.89968z" fill="#ffc500" stroke="#020202" stroke-width="0"/><path d="M255.79499,180.95057c-3.44734,1.10383 -17.65037,5.65163 -22.3343,7.15142c-0.94803,0.30356 -1.5061,-0.22274 -1.5061,-1.33756c0,-3.7176 0,-11.99253 0,-13.87868c0,-0.75008 0.55905,-1.29033 1.50861,-0.98629c4.68702,1.50078 18.88837,6.04804 22.33431,7.15142c1.4614,0.46794 1.45995,1.4314 -0.00251,1.89968z" fill="none" stroke="#020202" stroke-width="1"/><path d="M218.66921,185.41362v-10.96531h5.62088v10.96531z" fill="#333131" stroke="none" stroke-width="0"/><path d="M218.66921,185.4136v-10.96533h5.62088v10.96533z" fill="none" stroke="#000000" stroke-width="0.5"/></g></g></svg>