<svg version="1.1" xmlns="http://www.w3.org/2000/svg" xmlns:xlink="http://www.w3.org/1999/xlink" width="29.65629" height="35.49999" viewBox="0,0,29.65629,35.49999"><g transform="translate(-225.17185,-162.25001)"><g data-paper-data="{&quot;isPaintingLayer&quot;:true}" fill="#ffffff" fill-rule="nonzero" stroke="#000000" stroke-width="2.5" stroke-linecap="square" stroke-linejoin="miter" stroke-miterlimit="10" stroke-dasharray="" stroke-dashoffset="0" style="mix-blend-mode: normal"><path d="M253.57809,184.57811v4.26563c0,1.14583 -0.21354,2.1875 -0.64062,3.125c-0.42708,0.9375 -1.15625,1.74479 -2.1875,2.42188c-1.02083,0.67708 -2.40625,1.19792 -4.15625,1.5625c-1.73958,0.36458 -3.93229,0.54688 -6.57812,0.54688c-2.63542,0 -4.83333,-0.18229 -6.59375,-0.54687c-1.76042,-0.36458 -3.15625,-0.88542 -4.1875,-1.5625c-1.02083,-0.67708 -1.74479,-1.48437 -2.17187,-2.42187c-0.42708,-0.9375 -0.64062,-1.97917 -0.64062,-3.125v-4.26562c0,-2.05208 0.44792,-3.63542 1.34375,-4.75c0.89583,-1.11458 2.00521,-1.80208 3.32813,-2.0625c-0.96875,-0.41669 -1.64583,-1.03128 -2.03125,-1.84378c-0.375,-0.82292 -0.5625,-1.79687 -0.5625,-2.92187v-2.54687c0,-1.08333 0.1875,-2.04687 0.5625,-2.89062c0.38542,-0.85417 1.01563,-1.58333 1.89063,-2.1875c0.88542,-0.60417 2.07292,-1.06771 3.5625,-1.39062c1.5,-0.32292 3.34896,-0.48437 5.54688,-0.48437c2.20833,0 4.05208,0.16146 5.53125,0.48438c1.47917,0.32292 2.65104,0.78646 3.51563,1.39063c0.86458,0.60417 1.47917,1.33333 1.84375,2.1875c0.36458,0.84375 0.54688,1.80729 0.54688,2.89063v2.54688c0,1.125 -0.19271,2.09896 -0.57812,2.92188c-0.375,0.8125 -1.04687,1.42709 -2.01562,1.84378c1.32292,0.26042 2.43229,0.94792 3.32813,2.0625c0.89583,1.11458 1.34375,2.69792 1.34375,4.75zM237.24997,174.7187c0,0.46875 0.15104,0.85938 0.45313,1.17188c0.3125,0.3125 1.08333,0.46875 2.3125,0.46875c1.27083,0 2.04167,-0.15625 2.3125,-0.46875c0.28125,-0.3125 0.42188,-0.70312 0.42188,-1.17187v-1.9375c0,-0.4375 -0.14062,-0.80729 -0.42187,-1.10937c-0.27083,-0.3125 -1.04167,-0.46875 -2.3125,-0.46875c-1.22917,0 -2,0.15625 -2.3125,0.46875c-0.30208,0.30208 -0.45312,0.67188 -0.45312,1.10938zM236.15622,187.17186c0,0.46875 0.24479,0.85938 0.73438,1.17188c0.5,0.30208 1.54167,0.45313 3.125,0.45313c1.59375,0 2.63021,-0.15104 3.10938,-0.45312c0.47917,-0.3125 0.71875,-0.70312 0.71875,-1.17187v-2.32812c0,-0.4375 -0.23958,-0.80729 -0.71875,-1.10937c-0.47917,-0.3125 -1.51562,-0.46875 -3.10937,-0.46875c-1.58333,0 -2.625,0.15625 -3.125,0.46875c-0.48958,0.30208 -0.73437,0.67188 -0.73437,1.10938z"/></g></g></svg>