<svg version="1.1" xmlns="http://www.w3.org/2000/svg" xmlns:xlink="http://www.w3.org/1999/xlink" width="26.65631" height="34.18753" viewBox="0,0,26.65631,34.18753"><g transform="translate(-226.67184,-162.90623)"><g data-paper-data="{&quot;isPaintingLayer&quot;:true}" fill="#ffffff" fill-rule="nonzero" stroke="#000000" stroke-width="2.5" stroke-linecap="square" stroke-linejoin="miter" stroke-miterlimit="10" stroke-dasharray="" stroke-dashoffset="0" style="mix-blend-mode: normal"><path d="M243.49997,195.8437h-14c-0.55208,0 -0.95312,-0.125 -1.20312,-0.375c-0.25,-0.25 -0.375,-0.65104 -0.375,-1.20312v-5.15625c0,-0.55208 0.125,-0.95312 0.375,-1.20312c0.25,-0.25 0.65104,-0.375 1.20313,-0.375h11.35938c0.35417,0 0.64063,-0.07812 0.85938,-0.23437c0.21875,-0.16667 0.32813,-0.42708 0.32813,-0.78125v-1.71875c0,-0.35417 -0.10937,-0.60937 -0.32812,-0.76562c-0.21875,-0.16667 -0.50521,-0.25 -0.85937,-0.25h-10.92187c-0.55208,0 -0.95312,-0.11979 -1.20312,-0.35937c-0.25,-0.25 -0.375,-0.65625 -0.375,-1.21875v-16.45312c0,-0.5625 0.125,-0.96875 0.375,-1.21875c0.25,-0.25 0.65104,-0.375 1.20313,-0.375h18.96875c0.5625,0 0.96354,0.125 1.20313,0.375c0.25,0.25 0.375,0.65625 0.375,1.21875v5.23438c0,0.55208 -0.125,0.95313 -0.375,1.20313c-0.23958,0.25 -0.64062,0.375 -1.20312,0.375h-10.5625v2.85938h6.03125c2.375,0 4.25,0.58854 5.625,1.76563c1.38542,1.17708 2.07813,2.92188 2.07813,5.23438v6.125c0,2.22917 -0.77083,4.00521 -2.3125,5.32813c-1.54167,1.3125 -3.63021,1.96875 -6.26562,1.96875z"/></g></g></svg>