<svg version="1.1" xmlns="http://www.w3.org/2000/svg" xmlns:xlink="http://www.w3.org/1999/xlink" width="25.12502" height="34.18751" viewBox="0,0,25.12502,34.18751"><g transform="translate(-227.43749,-162.90625)"><g data-paper-data="{&quot;isPaintingLayer&quot;:true}" fill="#ffffff" fill-rule="nonzero" stroke="#000000" stroke-width="2.5" stroke-linecap="square" stroke-linejoin="miter" stroke-miterlimit="10" stroke-dasharray="" stroke-dashoffset="0" style="mix-blend-mode: normal"><path d="M249.71874,195.84372h-19.4375c-0.5625,0 -0.96875,-0.125 -1.21875,-0.375c-0.25,-0.25 -0.375,-0.65104 -0.375,-1.20312v-5.32812c0,-0.5625 0.125,-0.96354 0.375,-1.20312c0.25,-0.25 0.65625,-0.375 1.21875,-0.375h4.92188v-14.70312h-4.04687c-0.5625,0 -0.96875,-0.125 -1.21875,-0.375c-0.25,-0.25 -0.375,-0.65104 -0.375,-1.20312v-5.32812c0,-0.5625 0.125,-0.96875 0.375,-1.21875c0.25,-0.25 0.65625,-0.375 1.21875,-0.375h12.76563c0.55209,0 0.95313,0.125 1.20313,0.375c0.25,0.25 0.375,0.65625 0.375,1.21875v21.60937h4.21875c0.5625,0 0.96875,0.125 1.21875,0.375c0.25,0.23959 0.375,0.64063 0.375,1.20313v5.32813c0,0.55209 -0.125,0.95313 -0.375,1.20313c-0.25,0.25 -0.65625,0.375 -1.21875,0.375z"/></g></g></svg>