<svg version="1.1" xmlns="http://www.w3.org/2000/svg" xmlns:xlink="http://www.w3.org/1999/xlink" width="17.75" height="17.75" viewBox="0,0,17.75,17.75"><defs><linearGradient x1="239.99999" y1="171.125" x2="239.99999" y2="188.875" gradientUnits="userSpaceOnUse" id="color-1"><stop offset="0" stop-color="#ff0000"/><stop offset="1" stop-color="#b30000"/></linearGradient></defs><g transform="translate(-231.125,-171.125)"><g data-paper-data="{&quot;isPaintingLayer&quot;:true}" fill-rule="nonzero" stroke-linecap="butt" stroke-linejoin="miter" stroke-miterlimit="10" stroke-dasharray="" stroke-dashoffset="0" style="mix-blend-mode: normal"><path d="M232.9375,187.0625v-14.125h14.125v14.125z" fill="#ff0000" stroke="none" stroke-width="NaN"/><path d="M231.125,186.87097c0,-2.23726 0,-10.52432 0,-13.83737c0,-0.77444 0.68085,-1.9086 1.76546,-1.9086c3.71388,0 12.16179,0 14.21908,0c0.88339,0 1.76546,1.12965 1.76546,1.9086c0,1.84256 0,9.74513 0,13.83737c0,1.5469 -0.49143,2.00403 -1.5746,2.00403c-2.2841,0 -11.30678,0 -14.79166,0c-0.86082,0 -1.38374,-1.01931 -1.38374,-2.00403z" fill="url(#color-1)" stroke="#000000" stroke-width="0"/></g></g></svg>