<svg version="1.1" xmlns="http://www.w3.org/2000/svg" xmlns:xlink="http://www.w3.org/1999/xlink" width="185.5" height="68" viewBox="0,0,185.5,68"><g transform="translate(-147.25,-146)"><g data-paper-data="{&quot;isPaintingLayer&quot;:true}" fill-rule="nonzero" stroke-linejoin="miter" stroke-miterlimit="10" stroke-dasharray="" stroke-dashoffset="0" style="mix-blend-mode: normal"><path d="M149.75,199.5c0,-12.35939 0,-30.8008 0,-38c0,-5.73988 3.4261,-13 9.31613,-13c33.03054,0 143.5475,0 161.86774,0c5.03594,0 9.31613,5.03395 9.31613,12c0,12.35939 0,30.8008 0,38c0,5.73988 -5.04862,13 -9.7043,13c-17.66424,0 -127.55886,0 -161.0914,0c-6.12676,0 -9.7043,-5.03395 -9.7043,-12z" fill="#0087ff" stroke="#f5bb58" stroke-width="5" stroke-linecap="butt"/><path d="M152.4672,198.91291c0,-11.98728 0,-29.87346 0,-36.85591c0,-5.56707 3.32295,-12.60861 9.03564,-12.60861c32.03607,0 139.22565,0 156.9943,0c4.88432,0 9.03564,4.8824 9.03564,11.63871c0,11.98728 0,29.87346 0,36.85591c0,5.56707 -4.89662,12.60861 -9.41212,12.60861c-17.13242,0 -123.71838,0 -156.24134,0c-5.94229,0 -9.41213,-4.8824 -9.41213,-11.63871z" fill="#ffad00" stroke="#dda121" stroke-width="5" stroke-linecap="butt"/><path d="M199.08033,195.84371h-16.89062c-0.5625,0 -0.96875,-0.125 -1.21875,-0.375c-0.25,-0.25 -0.375,-0.65104 -0.375,-1.20312v-28.51562c0,-0.5625 0.125,-0.96875 0.375,-1.21875c0.25,-0.25 0.65625,-0.375 1.21875,-0.375h14.03125c2.875,0 5,0.55208 6.375,1.65625c1.38542,1.10417 2.07813,2.79688 2.07813,5.07813v2.10938c0,1.23958 -0.21354,2.25 -0.64062,3.03125c-0.42708,0.77083 -1.07812,1.34896 -1.95312,1.73438c1.875,0.17708 3.26563,0.82292 4.17188,1.9375c0.90625,1.11458 1.35938,2.73958 1.35938,4.875v4.04688c0,2.46875 -0.69792,4.29167 -2.09375,5.46875c-1.38542,1.16667 -3.53125,1.75 -6.4375,1.75zM190.50221,171.64058v4.75h3.73438c0.5625,0 0.97917,-0.14583 1.25,-0.4375c0.28125,-0.29167 0.42188,-0.72917 0.42188,-1.3125v-1.23437c0,-0.58333 -0.14062,-1.02083 -0.42187,-1.3125c-0.27083,-0.30208 -0.6875,-0.45312 -1.25,-0.45312zM190.50221,183.17183v5.1875h5.71875c0.55208,0 0.96875,-0.14583 1.25,-0.4375c0.28125,-0.29167 0.42188,-0.72917 0.42188,-1.3125v-1.71875c0,-0.59375 -0.14062,-1.02604 -0.42187,-1.29687c-0.28125,-0.28125 -0.69792,-0.42187 -1.25,-0.42187zM223.98026,173.40621l-2.0625,6.6875h6.90625l-2.0625,-6.6875c-0.125,-0.27083 -0.25521,-0.46354 -0.39062,-0.57812c-0.125,-0.11458 -0.27604,-0.17187 -0.45312,-0.17187h-1.09375c-0.17708,0 -0.33333,0.05729 -0.46875,0.17188c-0.125,0.11458 -0.25,0.30729 -0.375,0.57813zM221.48026,194.26558c0,0.55208 -0.125,0.95313 -0.375,1.20313c-0.25,0.25 -0.65625,0.375 -1.21875,0.375h-6.46875c-0.55208,0 -0.95312,-0.125 -1.20312,-0.375c-0.25,-0.25 -0.375,-0.65104 -0.375,-1.20312v-11.625c0,-0.875 0.14063,-1.88542 0.42188,-3.03125c0.28125,-1.14583 0.71354,-2.47917 1.29688,-4l3.82813,-10c0.17708,-0.48958 0.44792,-0.85417 0.8125,-1.09375c0.36458,-0.23958 0.83854,-0.35937 1.42188,-0.35937h11.84375c0.5625,0 1.02604,0.11979 1.39063,0.35938c0.36458,0.23958 0.63542,0.60417 0.8125,1.09375l3.82813,10c0.58333,1.52083 1.01563,2.85417 1.29688,4c0.28125,1.14583 0.42188,2.15625 0.42188,3.03125v11.625c0,0.55208 -0.125,0.95313 -0.375,1.20313c-0.25,0.25 -0.65625,0.375 -1.21875,0.375h-6.64062c-0.58333,0 -1.01562,-0.125 -1.29687,-0.375c-0.28125,-0.25 -0.42187,-0.65104 -0.42187,-1.20312v-6.17187h-7.78125zM265.69395,195.84371h-10.73437c-3.66667,0 -6.39062,-0.73437 -8.17187,-2.20312c-1.77083,-1.46875 -2.65625,-3.72396 -2.65625,-6.76562v-13.6875c0,-3.05208 0.88542,-5.31771 2.65625,-6.79687c1.78125,-1.48958 4.50521,-2.23437 8.17188,-2.23437h10.73438c0.5625,0 0.96875,0.125 1.21875,0.375c0.25,0.25 0.375,0.65625 0.375,1.21875v5.32813c0,0.55208 -0.125,0.95313 -0.375,1.20313c-0.25,0.25 -0.65625,0.375 -1.21875,0.375h-8.84375c-0.90625,0 -1.58333,0.18229 -2.03125,0.54688c-0.4375,0.36458 -0.65625,0.91667 -0.65625,1.65625v10.46875c0,0.72917 0.21875,1.26563 0.65625,1.60938c0.44792,0.33333 1.125,0.5 2.03125,0.5h8.84375c0.5625,0 0.96875,0.125 1.21875,0.375c0.25,0.25 0.375,0.65625 0.375,1.21875v5.23438c0,0.55208 -0.125,0.95313 -0.375,1.20313c-0.25,0.25 -0.65625,0.375 -1.21875,0.375zM280.65403,195.84371h-6.8125c-0.5625,0 -0.96875,-0.125 -1.21875,-0.375c-0.25,-0.25 -0.375,-0.65104 -0.375,-1.20312v-28.51562c0,-0.5625 0.125,-0.96875 0.375,-1.21875c0.25,-0.25 0.65625,-0.375 1.21875,-0.375h6.8125c0.5625,0 0.96875,0.125 1.21875,0.375c0.25,0.25 0.375,0.65625 0.375,1.21875v10.125h1.75l4.53125,-10.26562c0.20833,-0.52083 0.48958,-0.89062 0.84375,-1.10937c0.35417,-0.22917 0.80729,-0.34375 1.35938,-0.34375h6.78125c0.5,0 0.83333,0.125 1,0.375c0.17708,0.25 0.16667,0.60938 -0.03125,1.07813l-4.5,10.26563c1.64583,0.08333 2.95833,0.66146 3.9375,1.73438c0.98958,1.07292 1.48438,2.48958 1.48438,4.25v12.40625c0,0.55208 -0.125,0.95313 -0.375,1.20313c-0.25,0.25 -0.65625,0.375 -1.21875,0.375h-6.76562c-0.5625,0 -0.96875,-0.125 -1.21875,-0.375c-0.25,-0.25 -0.375,-0.65104 -0.375,-1.20312v-8.57812c0,-0.47917 -0.11979,-0.84896 -0.35937,-1.10937c-0.22917,-0.26042 -0.57812,-0.39062 -1.04687,-0.39062h-5.79687v10.07813c0,0.55208 -0.125,0.95313 -0.375,1.20313c-0.25,0.25 -0.65625,0.375 -1.21875,0.375z" fill="#ffffff" stroke="#000000" stroke-width="2.5" stroke-linecap="square"/></g></g></svg>