<svg version="1.1" xmlns="http://www.w3.org/2000/svg" xmlns:xlink="http://www.w3.org/1999/xlink" width="28.37504" height="34.84377" viewBox="0,0,28.37504,34.84377"><g transform="translate(-225.81248,-162.57811)"><g data-paper-data="{&quot;isPaintingLayer&quot;:true}" fill="#ffffff" fill-rule="nonzero" stroke="#000000" stroke-width="2.5" stroke-linecap="square" stroke-linejoin="miter" stroke-miterlimit="10" stroke-dasharray="" stroke-dashoffset="0" style="mix-blend-mode: normal"><path d="M240.26559,196.17184c-2.69792,0 -4.90625,-0.21354 -6.625,-0.64062c-1.70833,-0.41667 -3.04687,-1.01562 -4.01562,-1.79687c-0.96875,-0.78125 -1.64062,-1.71354 -2.01562,-2.79687c-0.36458,-1.08333 -0.54687,-2.30208 -0.54687,-3.65625v-14.42187c0,-2.66667 0.77083,-4.83854 2.3125,-6.51562c1.54167,-1.67708 4.38021,-2.51562 8.51563,-2.51562h10.125c0.55208,0 0.95313,0.125 1.20313,0.375c0.25,0.25 0.375,0.65625 0.375,1.21875v5.1875c0,0.5625 -0.125,0.96875 -0.375,1.21875c-0.25,0.25 -0.65104,0.375 -1.20312,0.375h-8.23437c-1.08333,0 -1.81771,0.16667 -2.20312,0.5c-0.375,0.33333 -0.5625,1.04167 -0.5625,2.125v0.96875c0.69792,-0.19792 1.51042,-0.35417 2.4375,-0.46875c0.92708,-0.125 1.97396,-0.1875 3.14063,-0.1875c3.96875,0 6.68229,0.66667 8.14063,2c1.46875,1.33333 2.20313,3.30729 2.20313,5.92188v4.21875c0,1.35417 -0.18229,2.57292 -0.54687,3.65625c-0.36458,1.08333 -1.02604,2.01563 -1.98437,2.79688c-0.94792,0.78125 -2.24479,1.38021 -3.89062,1.79688c-1.64583,0.42708 -3.72917,0.64063 -6.25,0.64063zM237.01559,183.98434v2.59375c0,0.46875 0.17188,0.85938 0.51563,1.17188c0.35417,0.3125 1.16146,0.46875 2.42188,0.46875c1.32292,0 2.16146,-0.15625 2.51563,-0.46875c0.35417,-0.3125 0.53125,-0.70312 0.53125,-1.17187v-2.59375c0,-0.4375 -0.17708,-0.80729 -0.53125,-1.10937c-0.35417,-0.3125 -1.19271,-0.46875 -2.51562,-0.46875c-1.26042,0 -2.06771,0.15625 -2.42187,0.46875c-0.34375,0.30208 -0.51562,0.67188 -0.51562,1.10938z"/></g></g></svg>