<svg version="1.1" xmlns="http://www.w3.org/2000/svg" xmlns:xlink="http://www.w3.org/1999/xlink" width="620" height="482.74333" viewBox="0,0,620,482.74333"><g transform="translate(-0.5,1.37167)"><g data-paper-data="{&quot;isPaintingLayer&quot;:true}" fill="#000000" fill-rule="nonzero" stroke-linecap="butt" stroke-linejoin="miter" stroke-miterlimit="10" stroke-dasharray="" stroke-dashoffset="0" style="mix-blend-mode: normal"><path d="M0.5,481.31373v-482.62745h35.2549v482.62745z" stroke="none" stroke-width="0"/><path d="M619.27814,38.86186l-606.62545,-0.1318l0.01033,-40.10172l606.62545,0.1318z" data-paper-data="{&quot;index&quot;:null}" stroke="none" stroke-width="0"/><path d="M611.98423,481.37167l-595.68446,-0.13978l0.01014,-42.52512l595.68446,0.13978z" data-paper-data="{&quot;index&quot;:null}" stroke="none" stroke-width="0"/><path d="M576.73529,481.31373v-481.41176h43.76471v481.41176z" stroke="none" stroke-width="0"/><path d="M20.55882,248.5098v-17.01961h167.76471v17.01961z" stroke="#000000" stroke-width="13"/><path d="M432.67647,246.07843v-17.01961h167.76471v17.01961z" stroke="#000000" stroke-width="13"/><path d="M320.22549,458.21569h-17.01961v-97.2549h17.01961z" stroke="#000000" stroke-width="13"/><path d="M317.79412,116.60784h-17.01961v-96.03922h17.01961z" stroke="#000000" stroke-width="13"/><path d="M30.95136,461.71044l-16.94217,-12.59208l167.00144,-124.12187l16.94217,12.59208z" stroke="#000000" stroke-width="13"/><path d="M438.7737,155.00349l-16.94217,-12.59208l167.00144,-124.12187l16.94217,12.59208z" stroke="#000000" stroke-width="13"/><path d="M421.83153,337.58858l16.94217,-12.59208l167.00144,124.12188l-16.94218,12.59208z" data-paper-data="{&quot;index&quot;:null}" stroke="#000000" stroke-width="13"/><path d="M14.00918,30.88162l16.94218,-12.59208l167.00144,124.12187l-16.94218,12.59208z" data-paper-data="{&quot;index&quot;:null}" stroke="#000000" stroke-width="13"/></g></g></svg>