<svg version="1.1" xmlns="http://www.w3.org/2000/svg" xmlns:xlink="http://www.w3.org/1999/xlink" width="267.99999" height="68" viewBox="0,0,267.99999,68"><g transform="translate(-106,-146)"><g data-paper-data="{&quot;isPaintingLayer&quot;:true}" fill-rule="nonzero" stroke-linejoin="miter" stroke-miterlimit="10" stroke-dasharray="" stroke-dashoffset="0" style="mix-blend-mode: normal"><path d="M108.5,199.5c0,-12.35939 0,-30.8008 0,-38c0,-5.73989 4.99205,-13 13.57419,-13c48.1276,0 209.15787,0 235.85161,0c7.33769,0 13.57419,5.03395 13.57419,12c0,12.35939 0,30.8008 0,38c0,5.73989 -7.35616,13 -14.13978,13c-25.73793,0 -185.86139,0 -234.72043,0c-8.92708,0 -14.13978,-5.03396 -14.13978,-12z" fill="#0087ff" stroke="#dfbd4a" stroke-width="5" stroke-linecap="butt"/><path d="M112.45915,198.91291c0,-11.98728 0,-29.87347 0,-36.85592c0,-5.56707 4.84175,-12.6086 13.16551,-12.6086c46.67859,0 202.86064,0 228.7507,0c7.11677,0 13.16551,4.8824 13.16551,11.63871c0,11.98728 0,29.87347 0,36.85591c0,5.56707 -7.13469,12.6086 -13.71408,12.6086c-24.96302,0 -180.26556,0 -227.65358,0c-8.65831,0 -13.71406,-4.8824 -13.71406,-11.63871z" fill="#ffda00" stroke="#d1af00" stroke-width="5" stroke-linecap="butt"/><path d="M156.74104,188.33619c-0.32625,1.55249 -0.86624,2.98123 -1.61998,4.28622c-0.74249,1.30499 -1.80562,2.41311 -3.18936,3.32435c-1.38374,0.91125 -3.1331,1.61436 -5.24809,2.10936c-2.10374,0.495 -4.66871,0.74249 -7.69494,0.74249c-3.02623,0 -5.51246,-0.24749 -7.4587,-0.74249c-1.94624,-0.50625 -3.45372,-1.24311 -4.52247,-2.21061c-1.05749,-0.97875 -1.68749,-2.14873 -1.88998,-3.50997c-0.2025,-1.37249 -0.14063,-2.84061 0.18562,-4.40434l3.44248,-16.19988c0.3375,-1.56374 0.87749,-2.99248 1.61999,-4.28622c0.74249,-1.30499 1.80561,-2.41873 3.18935,-3.34123c1.39499,-0.93374 3.15561,-1.64811 5.28184,-2.14311c2.12624,-0.50625 4.70246,-0.75937 7.72869,-0.75937c3.03748,0 5.52371,0.25875 7.45869,0.77625c1.93499,0.50625 3.4256,1.25437 4.47185,2.24436c1.05749,0.98999 1.68749,2.16561 1.88998,3.52685c0.2025,1.34999 0.135,2.81247 -0.2025,4.38746zM138.39806,186.61495c-0.0675,0.315 -0.01687,0.57375 0.15187,0.77625c0.16875,0.19125 0.96187,0.28687 2.37936,0.28687c1.49624,0 2.43561,-0.14062 2.81811,-0.42187c0.39375,-0.2925 0.62999,-0.64125 0.70874,-1.04624l2.71686,-12.77428c0.05625,-0.28125 -0.00563,-0.51749 -0.18562,-0.70874c-0.17999,-0.2025 -0.97875,-0.30374 -2.39624,-0.30374c-1.48499,0 -2.41873,0.14624 -2.80123,0.43874c-0.3825,0.28125 -0.6075,0.6075 -0.67499,0.97875zM168.98187,198.08987h-7.35745c-0.92249,0 -1.58624,-0.25313 -1.99123,-0.75937c-0.405,-0.51749 -0.51749,-1.22624 -0.3375,-2.12623l6.54745,-30.79665c0.19125,-0.83249 0.53437,-1.45686 1.02937,-1.87311c0.50625,-0.41625 1.18124,-0.62437 2.02499,-0.62437h14.52927c4.64622,0 7.66682,0.98437 9.06181,2.9531c1.40624,1.96874 1.78874,4.47184 1.14749,7.50932l-1.28249,6.07495c-0.63,2.96998 -2.00811,5.38871 -4.13434,7.25619c-2.12624,1.85623 -5.46747,2.78436 -10.02368,2.78436h-4.65747l-1.51873,7.1212c-0.16875,0.82124 -0.50625,1.43999 -1.0125,1.85623c-0.50625,0.41625 -1.18124,0.62437 -2.02498,0.62437zM176.77807,172.76068l-1.09687,5.21434h3.05436c0.61874,0 1.04624,-0.14625 1.28249,-0.43875c0.23625,-0.2925 0.39937,-0.66374 0.48937,-1.11374l0.54,-2.51436c0.09,-0.405 0.09563,-0.6975 0.01687,-0.87749c-0.0675,-0.17999 -0.3375,-0.27 -0.80999,-0.27zM208.47766,198.08987h-7.69495c-0.92249,0 -1.58624,-0.25313 -1.99123,-0.75937c-0.405,-0.51749 -0.51749,-1.22624 -0.33749,-2.12623l4.70809,-22.15671h-5.77121c-0.92249,0 -1.58061,-0.25875 -1.97436,-0.77625c-0.39375,-0.51749 -0.50061,-1.22062 -0.32062,-2.10936l1.21499,-5.75433c0.19125,-0.83249 0.53437,-1.45686 1.02937,-1.87311c0.50625,-0.41625 1.17561,-0.62437 2.00811,-0.62437h25.09294c0.93374,0 1.59749,0.25875 1.99124,0.77624c0.405,0.51749 0.50624,1.22624 0.30374,2.12624l-1.21499,5.75433c-0.16875,0.82124 -0.50624,1.44 -1.01249,1.85624c-0.50625,0.41625 -1.18124,0.62437 -2.02499,0.62437h-6.19308l-4.79246,22.56171c-0.16875,0.82124 -0.50625,1.43999 -1.0125,1.85623c-0.50625,0.41625 -1.17561,0.62437 -2.00811,0.62437zM224.44624,198.08987c-0.92249,0 -1.58624,-0.25313 -1.99124,-0.75937c-0.405,-0.51749 -0.51749,-1.22624 -0.3375,-2.12623l1.21499,-5.65308c0.16875,-0.83249 0.50624,-1.45687 1.01249,-1.87311c0.50625,-0.41625 1.18124,-0.62437 2.02499,-0.62437h3.8981l2.96998,-14.00615h-3.47622c-0.93374,0 -1.59749,-0.25875 -1.99124,-0.77625c-0.39375,-0.51749 -0.50061,-1.22062 -0.32062,-2.10936l1.21499,-5.75433c0.19125,-0.83249 0.53437,-1.45686 1.02937,-1.87311c0.50625,-0.41625 1.18124,-0.62437 2.02498,-0.62437h20.23298c0.92249,0 1.58624,0.25875 1.99123,0.77624c0.41625,0.51749 0.52312,1.22624 0.32062,2.12624l-1.21499,5.75433c-0.16875,0.82124 -0.51188,1.44 -1.02937,1.85624c-0.50625,0.41625 -1.18124,0.62437 -2.02499,0.62437h-3.81372l-2.96998,14.00615h3.39185c0.92249,0 1.58624,0.25875 1.99124,0.77624c0.405,0.50625 0.51749,1.21499 0.3375,2.12624l-1.21499,5.65309c-0.16875,0.82124 -0.50625,1.43999 -1.0125,1.85623c-0.50625,0.41625 -1.18124,0.62437 -2.02499,0.62437zM284.09349,188.33619c-0.32625,1.55249 -0.86625,2.98123 -1.61999,4.28622c-0.74249,1.30499 -1.80561,2.41311 -3.18935,3.32435c-1.38374,0.91125 -3.1331,1.61436 -5.24808,2.10936c-2.10374,0.495 -4.66873,0.74249 -7.69498,0.74249c-3.02623,0 -5.51246,-0.24749 -7.4587,-0.74249c-1.94624,-0.50625 -3.45372,-1.24311 -4.52246,-2.21061c-1.05749,-0.97875 -1.68749,-2.14873 -1.88999,-3.50997c-0.2025,-1.37249 -0.14062,-2.84061 0.18562,-4.40434l3.44247,-16.19988c0.3375,-1.56374 0.87749,-2.99248 1.61999,-4.28622c0.74249,-1.30499 1.80561,-2.41873 3.18935,-3.34123c1.39499,-0.93374 3.1556,-1.64811 5.28184,-2.14311c2.12623,-0.50625 4.70247,-0.75937 7.72872,-0.75937c3.03748,0 5.52371,0.25875 7.4587,0.77625c1.93498,0.50625 3.4256,1.25437 4.47184,2.24436c1.05749,0.98999 1.68749,2.16561 1.88999,3.52685c0.2025,1.34999 0.135,2.81247 -0.2025,4.38746zM265.75046,186.61495c-0.0675,0.315 -0.01687,0.57375 0.15188,0.77625c0.16875,0.19125 0.96187,0.28687 2.37936,0.28687c1.49626,0 2.43564,-0.14062 2.81813,-0.42187c0.39375,-0.2925 0.63,-0.64125 0.70875,-1.04624l2.71686,-12.77428c0.05625,-0.28125 -0.00563,-0.51749 -0.18563,-0.70874c-0.17999,-0.2025 -0.97874,-0.30374 -2.39623,-0.30374c-1.48499,0 -2.41875,0.14624 -2.80127,0.43874c-0.38249,0.28125 -0.60749,0.6075 -0.67499,0.97875zM296.09805,198.08987h-7.1212c-0.92249,0 -1.58624,-0.25313 -1.99124,-0.75937c-0.40499,-0.51749 -0.51749,-1.22624 -0.33749,-2.12623l6.54745,-30.79665c0.19125,-0.83249 0.53437,-1.45686 1.02937,-1.87311c0.50625,-0.41625 1.18124,-0.62437 2.02499,-0.62437h4.94434c0.75374,0 1.39499,0.13499 1.92374,0.40499c0.53999,0.25875 1.0125,0.70313 1.41749,1.33312l5.68683,8.58931l1.65374,-7.82994c0.19125,-0.83249 0.53437,-1.45686 1.02937,-1.87311c0.50624,-0.41625 1.17561,-0.62437 2.00811,-0.62437h7.13807c0.91125,0 1.56937,0.25875 1.97436,0.77624c0.41625,0.51749 0.52312,1.22624 0.32062,2.12624l-6.54746,30.79665c-0.16875,0.82124 -0.50625,1.43999 -1.01249,1.85623c-0.50625,0.41625 -1.17561,0.62437 -2.00811,0.62437h-7.13808c-0.91125,0 -1.56936,-0.25313 -1.97436,-0.75937c-0.40499,-0.51749 -0.5175,-1.22624 -0.3375,-2.12623l1.16437,-5.46746l-4.53935,-7.42494l-2.83497,13.2974c-0.16875,0.80999 -0.50625,1.42873 -1.0125,1.85623c-0.495,0.41625 -1.16436,0.62437 -2.00811,0.62437zM338.91706,198.08987h-15.01864c-0.93374,0 -1.59749,-0.25875 -1.99123,-0.77625c-0.39375,-0.51749 -0.50062,-1.22062 -0.32063,-2.10936l1.19812,-5.56871c0.16875,-0.80999 0.50062,-1.42311 0.99562,-1.83936c0.50624,-0.4275 1.18124,-0.64124 2.02499,-0.64124h12.77428c0.14625,0 0.27,-0.05062 0.37125,-0.15187c0.10125,-0.11249 0.17437,-0.27 0.21937,-0.4725c0.05625,-0.27 0.08438,-0.405 0.08438,-0.405c0,-0.01125 -0.05062,-0.01687 -0.15188,-0.01687l-6.93557,-1.0125c-2.37373,-0.3375 -4.20746,-1.18124 -5.50121,-2.53123c-1.29374,-1.34999 -1.62561,-3.52122 -0.99562,-6.5137l1.06311,-4.99496c0.61874,-2.93623 2.04749,-5.19183 4.28622,-6.76682c2.23873,-1.58624 5.00059,-2.37936 8.28556,-2.37936h13.29741c0.93375,0 1.59749,0.25875 1.99124,0.77624c0.40499,0.51749 0.50624,1.22624 0.30374,2.12624l-1.19812,5.65308c-0.16875,0.80999 -0.50625,1.42874 -1.01249,1.85624c-0.495,0.41625 -1.16436,0.62437 -2.00811,0.62437h-11.06992c-0.14625,0 -0.27563,0.05625 -0.38812,0.16875c-0.1125,0.10125 -0.19125,0.26437 -0.23625,0.48937c-0.045,0.16875 -0.06187,0.26999 -0.05062,0.30374c0.0225,0.0225 0.07312,0.03375 0.15187,0.03375l6.90182,0.96187c2.38499,0.3375 4.23559,1.18124 5.55183,2.53123c1.31624,1.34999 1.65374,3.52685 1.0125,6.53058l-1.06312,4.97808c-0.63,2.94747 -2.0756,5.20871 -4.33684,6.7837c-2.24999,1.57499 -4.99496,2.36248 -8.23494,2.36248z" fill="#ff8800" stroke="#df8200" stroke-width="2.5" stroke-linecap="square"/></g></g></svg>