<svg version="1.1" xmlns="http://www.w3.org/2000/svg" xmlns:xlink="http://www.w3.org/1999/xlink" width="26.53125" height="34.1875" viewBox="0,0,26.53125,34.1875"><g transform="translate(-226.73438,-162.90625)"><g data-paper-data="{&quot;isPaintingLayer&quot;:true}" fill="#ffffff" fill-rule="nonzero" stroke="#000000" stroke-width="2.5" stroke-linecap="square" stroke-linejoin="miter" stroke-miterlimit="10" stroke-dasharray="" stroke-dashoffset="0" style="mix-blend-mode: normal"><path d="M229.5625,187.53125h11.04688c0.70834,0 1.16146,-0.13021 1.35938,-0.39062c0.20834,-0.27084 0.3125,-0.58334 0.3125,-0.9375v-1.1875c0,-0.35416 -0.10416,-0.65104 -0.3125,-0.89062c-0.19791,-0.25 -0.65104,-0.375 -1.35937,-0.375h-7.48437c-0.55209,0 -0.95312,-0.125 -1.20312,-0.375c-0.25,-0.25 -0.375,-0.65625 -0.375,-1.21875v-4.70312c0,-0.5625 0.125,-0.96354 0.375,-1.20312c0.25,-0.25 0.65104,-0.375 1.20313,-0.375h4.625c0.70834,0 1.16146,-0.13021 1.35938,-0.39062c0.20834,-0.27084 0.3125,-0.58334 0.3125,-0.9375v-0.65625c0,-0.35416 -0.10416,-0.66146 -0.3125,-0.92187c-0.19791,-0.27083 -0.65104,-0.40625 -1.35937,-0.40625h-8.1875c-0.55209,0 -0.95312,-0.125 -1.20312,-0.375c-0.25,-0.25 -0.375,-0.65104 -0.375,-1.20312v-5.23437c0,-0.5625 0.125,-0.96875 0.375,-1.21875c0.25,-0.25 0.65104,-0.375 1.20313,-0.375h12.28125c2.4375,0 4.25,0.56771 5.4375,1.70313c1.1875,1.125 1.78125,2.65625 1.78125,4.59375v2.54688c0,1.125 -0.19271,2.09896 -0.57812,2.92188c-0.375,0.8125 -1.04687,1.42709 -2.01562,1.84375c2.08333,0.22916 3.52604,0.86459 4.32813,1.90625c0.8125,1.04166 1.21875,2.53125 1.21875,4.46875v4.40625c0,2.25 -0.71875,4.03125 -2.15625,5.34375c-1.4375,1.30209 -3.56771,1.95313 -6.39062,1.95313h-13.90625c-0.55209,0 -0.95312,-0.125 -1.20312,-0.375c-0.25,-0.25 -0.375,-0.65104 -0.375,-1.20312v-5.15625c0,-0.55209 0.125,-0.95312 0.375,-1.20312c0.25,-0.25 0.65104,-0.375 1.20313,-0.375z"/></g></g></svg>