<svg version="1.1" xmlns="http://www.w3.org/2000/svg" xmlns:xlink="http://www.w3.org/1999/xlink" width="720" height="540" viewBox="0,0,720,540"><defs><clipPath id="clip-1"><rect x="-240" y="-180" transform="scale(0.5,0.5)" width="1440" height="1080" fill="none" fill-rule="nonzero" stroke="none" stroke-width="0.5" stroke-linecap="butt"/></clipPath></defs><g transform="translate(120,90)"><g clip-path="url(#clip-1)" data-paper-data="{&quot;isPaintingLayer&quot;:true}" stroke-linejoin="miter" stroke-miterlimit="10" stroke-dasharray="" stroke-dashoffset="0" style="mix-blend-mode: normal"><path d="M-240,-180h960v720h-960z" fill-opacity="0" fill="#000000" fill-rule="evenodd" stroke="none" stroke-width="1" stroke-linecap="square"/><path d="M149.75,199.5c0,-12.35939 0,-30.8008 0,-38c0,-5.73988 3.4261,-13 9.31613,-13c33.03054,0 143.5475,0 161.86774,0c5.03594,0 9.31613,5.03395 9.31613,12c0,12.35939 0,30.8008 0,38c0,5.73988 -5.04862,13 -9.7043,13c-17.66424,0 -127.55886,0 -161.0914,0c-6.12676,0 -9.7043,-5.03395 -9.7043,-12z" fill="#0087ff" fill-rule="nonzero" stroke="#f65858" stroke-width="5" stroke-linecap="butt"/><path d="M152.46722,198.91291c0,-11.98728 0,-29.87346 0,-36.85591c0,-5.56707 3.32295,-12.60861 9.03564,-12.60861c32.03607,0 139.22565,0 156.9943,0c4.88432,0 9.03564,4.8824 9.03564,11.63871c0,11.98728 0,29.87346 0,36.85591c0,5.56707 -4.89662,12.60861 -9.41212,12.60861c-17.13242,0 -123.71838,0 -156.24134,0c-5.94229,0 -9.41213,-4.8824 -9.41213,-11.63871z" fill="#ff0000" fill-rule="nonzero" stroke="#bd0000" stroke-width="5" stroke-linecap="butt"/><path d="M174.3472,197.65284h-7.17972c-0.9002,0 -1.54792,-0.247 -1.94313,-0.74102c-0.39521,-0.50499 -0.50499,-1.19661 -0.32934,-2.07487l6.38929,-30.05271c0.18664,-0.81239 0.52146,-1.42167 1.00451,-1.82786c0.49402,-0.40618 1.15271,-0.60928 1.97607,-0.60928h14.1783c4.53399,0 7.48162,0.96059 8.84291,2.88177c1.37228,1.92117 1.74553,4.36382 1.11977,7.32793l-1.25151,5.92821c-0.61478,2.89823 -1.9596,5.25855 -4.03447,7.08091c-2.07487,1.8114 -5.33539,2.7171 -9.78154,2.7171h-4.54496l-1.48205,6.94918c-0.16467,0.8014 -0.49402,1.40521 -0.98803,1.8114c-0.49402,0.40618 -1.15271,0.60929 -1.97607,0.60929zM181.95507,172.93552l-1.07037,5.08838h2.98058c0.60379,0 1.02097,-0.14271 1.25151,-0.42815c0.23054,-0.28544 0.38972,-0.64772 0.47756,-1.08684l0.52695,-2.45361c0.08783,-0.39521 0.09331,-0.68065 0.01647,-0.8563c-0.06587,-0.17564 -0.32934,-0.26348 -0.79043,-0.26348zM222.39051,197.65284h-23.59755c-0.9002,0 -1.54792,-0.247 -1.94313,-0.74102c-0.39521,-0.50499 -0.50499,-1.19661 -0.32934,-2.07487l6.38929,-30.05271c0.18664,-0.81239 0.52146,-1.42167 1.00451,-1.82786c0.49402,-0.40618 1.15271,-0.60928 1.97607,-0.60928h7.17972c0.9002,0 1.54792,0.2525 1.94313,0.75749c0.40618,0.50499 0.51049,1.19661 0.31288,2.07487l-4.62729,21.80263h4.38029l1.43266,-6.75157c0.16467,-0.81239 0.49402,-1.42167 0.98803,-1.82786c0.50499,-0.40618 1.16918,-0.60928 1.99254,-0.60928h6.71863c0.91119,0 1.55341,0.2525 1.92667,0.75749c0.38424,0.50499 0.48853,1.19661 0.31288,2.07487l-3.1123,14.60645c-0.16467,0.79043 -0.49402,1.39422 -0.98803,1.8114c-0.48305,0.40618 -1.13623,0.60929 -1.9596,0.60929zM247.29091,173.5448l-2.9147,5.59886h4.64376l-0.55989,-5.94467c-0.02196,-0.06587 0.00549,-0.12625 0.08234,-0.18113c0.08783,-0.06587 0.13174,0 0.13174,0.19761h-1.15271c0,-0.07684 -0.01097,-0.08233 -0.03293,-0.01646c-0.02196,0.06587 -0.08783,0.18114 -0.19761,0.34582zM240.09472,195.23216c-0.16467,0.8014 -0.49402,1.40521 -0.98803,1.8114c-0.49402,0.40618 -1.15271,0.60929 -1.97607,0.60929h-6.81744c-0.88923,0 -1.53145,-0.247 -1.92666,-0.74102c-0.39521,-0.50499 -0.50499,-1.19661 -0.32934,-2.07487l2.6183,-12.25163c0.19761,-0.98803 0.58733,-2.10781 1.16918,-3.35932c0.58185,-1.26248 1.3558,-2.7116 2.32189,-4.34735l6.27402,-10.52256c0.38424,-0.65869 0.86727,-1.1582 1.44912,-1.49851c0.59282,-0.34032 1.27895,-0.51048 2.05841,-0.51048h12.48217c0.81239,0 1.47656,0.19761 1.99253,0.59282c0.51598,0.39521 0.82885,0.97706 0.93864,1.74553l1.79493,10.52257c0.28544,1.64672 0.44462,3.10681 0.47756,4.38029c0.04391,1.26248 -0.03293,2.39325 -0.23054,3.39225l-2.61829,12.25163c-0.16467,0.8014 -0.49402,1.40521 -0.98803,1.8114c-0.49402,0.40618 -1.15271,0.60929 -1.97607,0.60929h-6.99857c-0.9002,0 -1.57536,-0.24151 -2.02547,-0.72456c-0.43912,-0.49402 -0.56538,-1.19113 -0.37874,-2.09133l1.13624,-5.35185h-6.24108zM278.96192,197.65284h-7.50906c-0.91119,0 -1.55888,-0.2525 -1.9431,-0.75749c-0.38424,-0.50499 -0.48853,-1.19113 -0.31287,-2.0584l1.20207,-5.59886l-4.90721,-9.20518c-0.57087,-1.0539 -0.90569,-1.99253 -1.0045,-2.81589c-0.08783,-0.83433 0.02744,-2.009 0.34582,-3.52399l1.89374,-8.90877c0.18664,-0.81239 0.52146,-1.42167 1.00451,-1.82786c0.49402,-0.40618 1.14721,-0.60928 1.95956,-0.60928h7.14678c0.88923,0 1.53146,0.2525 1.92667,0.75749c0.4062,0.50499 0.51049,1.19661 0.31288,2.07487l-1.61379,7.60787c-0.06587,0.27445 -0.11527,0.53244 -0.1482,0.77397c-0.02195,0.23054 0.00549,0.42266 0.08234,0.57636l1.44912,3.39225c0.0549,0.13174 0.07685,0.19761 0.06587,0.19761c-0.01097,-0.01097 -0.01097,-0.01646 0,-0.01646h0.46108c0.0549,0 0.11528,-0.02196 0.18114,-0.06587c0.07685,-0.04391 0.19212,-0.16467 0.34582,-0.36228l2.88177,-3.39225c0.18664,-0.19761 0.31837,-0.42266 0.39521,-0.67515c0.07685,-0.26348 0.14272,-0.53792 0.19761,-0.82336l1.61379,-7.60787c0.18664,-0.81239 0.52146,-1.42167 1.00451,-1.82786c0.49402,-0.40618 1.15271,-0.60928 1.97607,-0.60928h6.89977c0.90021,0 1.54792,0.2525 1.94313,0.75749c0.40618,0.50499 0.51049,1.19661 0.31288,2.07487l-1.89373,8.90878c-0.31837,1.51499 -0.70261,2.66769 -1.15271,3.45812c-0.43913,0.77946 -1.12526,1.67966 -2.05841,2.70063l-8.89231,9.35339l-1.2021,5.6318c-0.16467,0.8014 -0.49402,1.40521 -0.98803,1.8114c-0.49402,0.40618 -1.15271,0.60929 -1.97607,0.60929zM307.57008,185.50002h-7.19618c-0.88923,0 -1.53145,-0.247 -1.92666,-0.74102c-0.38424,-0.49402 -0.51048,-1.16917 -0.37874,-2.02547l3.11231,-17.91636c0.13174,-0.81239 0.43364,-1.42715 0.9057,-1.84433c0.48304,-0.41718 1.14173,-0.62576 1.97607,-0.62576h8.85938c0.9002,0 1.53695,0.25799 1.9102,0.77397c0.38424,0.51598 0.45559,1.21858 0.21408,2.10781l-4.44616,17.88343c-0.20858,0.8014 -0.56538,1.39972 -1.07037,1.79493c-0.50499,0.39521 -1.1582,0.59282 -1.9596,0.59282zM305.67635,197.65284h-8.53003c-0.91119,0 -1.55889,-0.2525 -1.94313,-0.75749c-0.38424,-0.50499 -0.48853,-1.19113 -0.31287,-2.0584l1.30092,-6.07641c0.16467,-0.81239 0.49402,-1.42167 0.98803,-1.82786c0.49402,-0.40618 1.15271,-0.60928 1.97607,-0.60928h8.53003c0.91119,0 1.55341,0.2525 1.92667,0.75749c0.38424,0.50499 0.48853,1.19661 0.31288,2.07487l-1.30091,6.07642c-0.16467,0.79043 -0.49402,1.39422 -0.98803,1.8114c-0.48304,0.40618 -1.13623,0.60929 -1.9596,0.60929z" fill="#9c0000" fill-rule="nonzero" stroke="#9c0000" stroke-width="2.5" stroke-linecap="square"/><path d="M177.70511,196.74996h-6.8125c-0.85416,0 -1.46875,-0.23437 -1.84375,-0.70312c-0.375,-0.47916 -0.47916,-1.13541 -0.3125,-1.96875l6.0625,-28.51562c0.17709,-0.77084 0.49479,-1.34896 0.95313,-1.73437c0.46875,-0.38541 1.09375,-0.57812 1.875,-0.57812h13.45313c4.30209,0 7.09896,0.91146 8.39063,2.73438c1.30209,1.82291 1.65625,4.14063 1.0625,6.95313l-1.1875,5.625c-0.58334,2.75 -1.85937,4.98959 -3.82812,6.71875c-1.96875,1.71875 -5.0625,2.57813 -9.28125,2.57813h-4.3125l-1.40625,6.59375c-0.15625,0.76041 -0.46875,1.33334 -0.9375,1.71875c-0.46875,0.38541 -1.09375,0.57813 -1.875,0.57813zM184.92386,173.29684l-1.01562,4.82813h2.82813c0.57291,0 0.96875,-0.13541 1.1875,-0.40625c0.21875,-0.27084 0.36979,-0.61459 0.45313,-1.03125l0.5,-2.32812c0.08334,-0.375 0.08854,-0.64584 0.01563,-0.8125c-0.0625,-0.16666 -0.3125,-0.25 -0.75,-0.25zM223.29117,196.74996h-22.39062c-0.85416,0 -1.46875,-0.23437 -1.84375,-0.70312c-0.375,-0.47916 -0.47916,-1.13541 -0.3125,-1.96875l6.0625,-28.51562c0.17709,-0.77084 0.49479,-1.34896 0.95313,-1.73437c0.46875,-0.38541 1.09375,-0.57812 1.875,-0.57812h6.8125c0.85416,0 1.46875,0.23959 1.84375,0.71875c0.38541,0.47916 0.48438,1.13541 0.29688,1.96875l-4.39062,20.6875h4.15625l1.35938,-6.40625c0.15625,-0.77084 0.46875,-1.34896 0.9375,-1.73437c0.47916,-0.38541 1.10938,-0.57812 1.89063,-0.57812h6.375c0.86459,0 1.47396,0.23959 1.82813,0.71875c0.36459,0.47916 0.46354,1.13541 0.29688,1.96875l-2.95312,13.85938c-0.15625,0.75 -0.46875,1.32291 -0.9375,1.71875c-0.45834,0.38541 -1.07812,0.57813 -1.85937,0.57813zM246.918,173.87496l-2.76562,5.3125h4.40625l-0.53125,-5.64062c-0.02084,-0.0625 0.00521,-0.11979 0.07813,-0.17187c0.08334,-0.0625 0.125,0 0.125,0.1875h-1.09375c0,-0.07291 -0.01041,-0.07812 -0.03125,-0.01562c-0.02084,0.0625 -0.08334,0.17188 -0.1875,0.32813zM240.08987,194.45309c-0.15625,0.76041 -0.46875,1.33334 -0.9375,1.71875c-0.46875,0.38541 -1.09375,0.57813 -1.875,0.57813h-6.46875c-0.84375,0 -1.45312,-0.23437 -1.82812,-0.70312c-0.375,-0.47916 -0.47916,-1.13541 -0.3125,-1.96875l2.48438,-11.625c0.1875,-0.9375 0.55729,-2 1.10938,-3.1875c0.55209,-1.19791 1.28646,-2.57291 2.20313,-4.125l5.95313,-9.98437c0.36459,-0.625 0.82291,-1.09896 1.375,-1.42187c0.5625,-0.32291 1.21354,-0.48437 1.95313,-0.48437h11.84375c0.77084,0 1.40104,0.1875 1.89062,0.5625c0.48959,0.375 0.78646,0.92709 0.89063,1.65625l1.70313,9.98438c0.27084,1.5625 0.42188,2.94791 0.45313,4.15625c0.04166,1.19791 -0.03125,2.27084 -0.21875,3.21875l-2.48437,11.625c-0.15625,0.76041 -0.46875,1.33334 -0.9375,1.71875c-0.46875,0.38541 -1.09375,0.57813 -1.875,0.57813h-6.64062c-0.85416,0 -1.49479,-0.22916 -1.92187,-0.6875c-0.41666,-0.46875 -0.53646,-1.13021 -0.35937,-1.98437l1.07813,-5.07812h-5.92187zM276.96915,196.74996h-7.125c-0.86459,0 -1.47915,-0.23959 -1.84372,-0.71875c-0.36459,-0.47916 -0.46354,-1.13021 -0.29687,-1.95312l1.14059,-5.3125l-4.65622,-8.73437c-0.54167,-1 -0.85937,-1.89062 -0.95312,-2.67187c-0.08334,-0.79166 0.02604,-1.90625 0.32813,-3.34375l1.79688,-8.45312c0.17709,-0.77084 0.49479,-1.34896 0.95313,-1.73437c0.46875,-0.38541 1.08853,-0.57812 1.85934,-0.57812h6.78125c0.84375,0 1.45313,0.23959 1.82813,0.71875c0.38542,0.47916 0.48438,1.13541 0.29688,1.96875l-1.53125,7.21875c-0.0625,0.26041 -0.10937,0.50521 -0.14062,0.73438c-0.02083,0.21875 0.00521,0.40104 0.07813,0.54688l1.375,3.21875c0.05209,0.125 0.07292,0.1875 0.0625,0.1875c-0.01041,-0.01041 -0.01041,-0.01562 0,-0.01562h0.4375c0.05209,0 0.10938,-0.02084 0.17188,-0.0625c0.07292,-0.04166 0.18229,-0.15625 0.32813,-0.34375l2.73438,-3.21875c0.17709,-0.1875 0.30209,-0.40104 0.375,-0.64062c0.07292,-0.25 0.13542,-0.51041 0.1875,-0.78125l1.53125,-7.21875c0.17709,-0.77084 0.49479,-1.34896 0.95313,-1.73437c0.46875,-0.38541 1.09375,-0.57812 1.875,-0.57812h6.54687c0.85417,0 1.46875,0.23959 1.84375,0.71875c0.38541,0.47916 0.48438,1.13541 0.29688,1.96875l-1.79687,8.45313c-0.30209,1.4375 -0.66667,2.53125 -1.09375,3.28125c-0.41667,0.73959 -1.06771,1.59375 -1.95313,2.5625l-8.4375,8.875l-1.14062,5.34375c-0.15625,0.76041 -0.46875,1.33334 -0.9375,1.71875c-0.46875,0.38541 -1.09375,0.57813 -1.875,0.57813zM304.1141,185.21871h-6.82812c-0.84375,0 -1.45312,-0.23437 -1.82812,-0.70312c-0.36459,-0.46875 -0.48437,-1.10937 -0.35937,-1.92187l2.95313,-17c0.125,-0.77084 0.41146,-1.35416 0.85938,-1.75c0.45833,-0.39584 1.08333,-0.59375 1.875,-0.59375h8.40625c0.85416,0 1.45834,0.24479 1.8125,0.73438c0.36459,0.48959 0.43229,1.15625 0.20313,2l-4.21875,16.96875c-0.19791,0.76041 -0.53646,1.32813 -1.01562,1.70313c-0.47916,0.375 -1.09896,0.5625 -1.85937,0.5625zM302.31723,196.74996h-8.09375c-0.86459,0 -1.47916,-0.23959 -1.84375,-0.71875c-0.36459,-0.47916 -0.46354,-1.13021 -0.29687,-1.95312l1.23438,-5.76562c0.15625,-0.77084 0.46875,-1.34896 0.9375,-1.73437c0.46875,-0.38541 1.09375,-0.57812 1.875,-0.57812h8.09375c0.86459,0 1.47396,0.23959 1.82813,0.71875c0.36459,0.47916 0.46354,1.13541 0.29688,1.96875l-1.23437,5.76563c-0.15625,0.75 -0.46875,1.32291 -0.9375,1.71875c-0.45833,0.38541 -1.07812,0.57813 -1.85937,0.57813z" fill="#ca0000" fill-rule="nonzero" stroke="none" stroke-width="0" stroke-linecap="square"/></g></g></svg>