<svg version="1.1" xmlns="http://www.w3.org/2000/svg" xmlns:xlink="http://www.w3.org/1999/xlink" width="32.18334" height="32.43334" viewBox="0,0,32.18334,32.43334"><defs><radialGradient cx="240" cy="180" r="15.84167" gradientUnits="userSpaceOnUse" id="color-1"><stop offset="0" stop-color="#d4d3cb" stop-opacity="0"/><stop offset="1" stop-color="#d4d3cb"/></radialGradient></defs><g transform="translate(-223.90833,-163.78333)"><g data-paper-data="{&quot;isPaintingLayer&quot;:true}" fill-rule="nonzero" stroke-linejoin="miter" stroke-miterlimit="10" stroke-dasharray="" stroke-dashoffset="0" style="mix-blend-mode: normal"><path d="M225.625,175.5625c0,0 5.43811,-1.89981 7.72893,-1.18268c2.48502,0.77792 6.64607,5.68268 6.64607,5.68268" fill="none" stroke="#0052ff" stroke-width="2" stroke-linecap="round"/><path d="M250.75774,169.67053c0,0 -0.99692,5.67348 -2.74117,7.32264c-1.89212,1.78896 -8.20411,3.02587 -8.20411,3.02587" fill="none" stroke="#0052ff" stroke-width="2" stroke-linecap="round"/><path d="M242.48896,194.90439c0,0 -4.13231,-4.01328 -4.516,-6.38285c-0.41623,-2.57046 2.10828,-8.48636 2.10828,-8.48636" fill="none" stroke="#0052ff" stroke-width="2" stroke-linecap="round"/><path d="M224.15833,180c0,-8.81814 7.09256,-15.96667 15.84167,-15.96667c8.74911,0 15.84167,7.14853 15.84167,15.96667c0,8.81814 -7.09256,15.96667 -15.84167,15.96667c-8.74911,0 -15.84167,-7.14853 -15.84167,-15.96667z" fill="url(#color-1)" stroke="#000000" stroke-width="0.5" stroke-linecap="butt"/></g></g></svg>