<svg version="1.1" xmlns="http://www.w3.org/2000/svg" xmlns:xlink="http://www.w3.org/1999/xlink" width="720" height="540" viewBox="0,0,720,540"><defs><clipPath id="clip-1"><rect x="-240" y="-180" transform="scale(0.5,0.5)" width="1440" height="1080" fill="none" fill-rule="nonzero" stroke="none" stroke-width="0.5" stroke-linecap="butt"/></clipPath></defs><g transform="translate(120,90)"><g clip-path="url(#clip-1)" data-paper-data="{&quot;isPaintingLayer&quot;:true}" stroke-linejoin="miter" stroke-miterlimit="10" stroke-dasharray="" stroke-dashoffset="0" style="mix-blend-mode: normal"><path d="M-240,-180h960v720h-960z" fill-opacity="0" fill="#000000" fill-rule="evenodd" stroke="none" stroke-width="1" stroke-linecap="square"/><path d="M51.77954,-122.99213h376.44092v552.66144h-376.44092z" fill-opacity="0" fill="#000000" fill-rule="evenodd" stroke="none" stroke-width="1" stroke-linecap="square"/><path d="M253.44354,-80.06463c0,1.34375 -0.19271,2.56771 -0.57812,3.67188c-0.375,1.10417 -1.0625,2.04688 -2.0625,2.82813c-1,0.77083 -2.375,1.375 -4.125,1.8125c-1.73958,0.4375 -3.95833,0.65625 -6.65625,0.65625c-2.69792,0 -4.92187,-0.21875 -6.67187,-0.65625c-1.73958,-0.4375 -3.10937,-1.04167 -4.10937,-1.8125c-1,-0.78125 -1.69792,-1.72396 -2.09375,-2.82812c-0.39583,-1.10417 -0.59375,-2.32812 -0.59375,-3.67187v-15c0,-1.35417 0.19792,-2.57812 0.59375,-3.67187c0.39583,-1.10417 1.09375,-2.05208 2.09375,-2.84375c1,-0.79167 2.36979,-1.40625 4.10938,-1.84375c1.75,-0.44792 3.97396,-0.67187 6.67188,-0.67187c2.69792,0 4.91667,0.22396 6.65625,0.67188c1.75,0.4375 3.125,1.05208 4.125,1.84375c1,0.79167 1.6875,1.73958 2.0625,2.84375c0.38542,1.09375 0.57813,2.31771 0.57813,3.67188zM236.50604,-81.65838c0,0.59375 0.20833,1.08854 0.625,1.48438c0.42708,0.39583 1.39063,0.59375 2.89063,0.59375c1.5,0 2.45833,-0.19792 2.875,-0.59375c0.42708,-0.39583 0.64063,-0.89062 0.64063,-1.48437v-11.82812c0,-0.5625 -0.21354,-1.04167 -0.64062,-1.4375c-0.41667,-0.39583 -1.375,-0.59375 -2.875,-0.59375c-1.5,0 -2.46354,0.19792 -2.89062,0.59375c-0.41667,0.39583 -0.625,0.875 -0.625,1.4375z" fill="#000000" fill-rule="nonzero" stroke="none" stroke-width="1" stroke-linecap="square"/><path d="M249.91867,-18.95213h-19.4375c-0.5625,0 -0.96875,-0.125 -1.21875,-0.375c-0.25,-0.25 -0.375,-0.65104 -0.375,-1.20312v-5.32812c0,-0.5625 0.125,-0.96354 0.375,-1.20312c0.25,-0.25 0.65625,-0.375 1.21875,-0.375h4.92188v-14.70312h-4.04687c-0.5625,0 -0.96875,-0.125 -1.21875,-0.375c-0.25,-0.25 -0.375,-0.65104 -0.375,-1.20312v-5.32812c0,-0.5625 0.125,-0.96875 0.375,-1.21875c0.25,-0.25 0.65625,-0.375 1.21875,-0.375h12.76563c0.55208,0 0.95313,0.125 1.20313,0.375c0.25,0.25 0.375,0.65625 0.375,1.21875v21.60938h4.21875c0.5625,0 0.96875,0.125 1.21875,0.375c0.25,0.23958 0.375,0.64063 0.375,1.20313v5.32813c0,0.55208 -0.125,0.95313 -0.375,1.20313c-0.25,0.25 -0.65625,0.375 -1.21875,0.375z" fill="#000000" fill-rule="nonzero" stroke="none" stroke-width="1" stroke-linecap="square"/><path d="M250.2233,33.84787h-20.9375c-0.55208,0 -0.95312,-0.125 -1.20312,-0.375c-0.25,-0.25 -0.375,-0.65104 -0.375,-1.20312v-7.57812c0,-1.69792 0.16667,-3.09375 0.5,-4.1875c0.33333,-1.10417 0.80729,-2.00521 1.42188,-2.70312c0.625,-0.70833 1.35938,-1.26562 2.20313,-1.67187c0.85417,-0.41667 1.78125,-0.77083 2.78125,-1.0625l5.89063,-1.85937c0.46875,-0.11458 0.78125,-0.28646 0.9375,-0.51562c0.16667,-0.23958 0.25,-0.59375 0.25,-1.0625c0,-0.4375 -0.08854,-0.73437 -0.26562,-0.89062c-0.17708,-0.16667 -0.48437,-0.25 -0.92187,-0.25h-9.54687c-0.55208,0 -0.95312,-0.125 -1.20312,-0.375c-0.25,-0.25 -0.375,-0.65625 -0.375,-1.21875v-5.14062c0,-0.5625 0.125,-0.96875 0.375,-1.21875c0.25,-0.25 0.65104,-0.375 1.20313,-0.375h12.98438c2.48958,0 4.40104,0.625 5.73438,1.875c1.33333,1.25 2,3.0625 2,5.4375v4.14063c0,2.19792 -0.61458,3.88542 -1.84375,5.0625c-1.22917,1.16667 -2.90104,2.07292 -5.01562,2.71875l-5.98437,1.89063c-0.4375,0.11458 -0.73958,0.25 -0.90625,0.40625c-0.15625,0.14583 -0.23437,0.45313 -0.23437,0.92188v0.92188h12.53125c0.5625,0 0.96875,0.125 1.21875,0.375c0.25,0.25 0.375,0.65104 0.375,1.20313v5.15625c0,0.55208 -0.125,0.95313 -0.375,1.20313c-0.25,0.25 -0.65625,0.375 -1.21875,0.375z" fill="#000000" fill-rule="nonzero" stroke="none" stroke-width="1" stroke-linecap="square"/><path d="M229.72043,78.33536h11.04688c0.70833,0 1.16146,-0.13021 1.35938,-0.39062c0.20833,-0.27083 0.3125,-0.58333 0.3125,-0.9375v-1.1875c0,-0.35417 -0.10417,-0.65104 -0.3125,-0.89062c-0.19792,-0.25 -0.65104,-0.375 -1.35937,-0.375h-7.48437c-0.55208,0 -0.95312,-0.125 -1.20312,-0.375c-0.25,-0.25 -0.375,-0.65625 -0.375,-1.21875v-4.70312c0,-0.5625 0.125,-0.96354 0.375,-1.20312c0.25,-0.25 0.65104,-0.375 1.20313,-0.375h4.625c0.70833,0 1.16146,-0.13021 1.35938,-0.39062c0.20833,-0.27083 0.3125,-0.58333 0.3125,-0.9375v-0.65625c0,-0.35417 -0.10417,-0.66146 -0.3125,-0.92187c-0.19792,-0.27083 -0.65104,-0.40625 -1.35937,-0.40625h-8.1875c-0.55208,0 -0.95312,-0.125 -1.20312,-0.375c-0.25,-0.25 -0.375,-0.65104 -0.375,-1.20312v-5.23437c0,-0.5625 0.125,-0.96875 0.375,-1.21875c0.25,-0.25 0.65104,-0.375 1.20313,-0.375h12.28125c2.4375,0 4.25,0.56771 5.4375,1.70313c1.1875,1.125 1.78125,2.65625 1.78125,4.59375v2.54688c0,1.125 -0.19271,2.09896 -0.57812,2.92188c-0.375,0.8125 -1.04687,1.42708 -2.01562,1.84375c2.08333,0.22917 3.52604,0.86458 4.32813,1.90625c0.8125,1.04167 1.21875,2.53125 1.21875,4.46875v4.40625c0,2.25 -0.71875,4.03125 -2.15625,5.34375c-1.4375,1.30208 -3.56771,1.95313 -6.39062,1.95313h-13.90625c-0.55208,0 -0.95312,-0.125 -1.20312,-0.375c-0.25,-0.25 -0.375,-0.65104 -0.375,-1.20312v-5.15625c0,-0.55208 0.125,-0.95312 0.375,-1.20312c0.25,-0.25 0.65104,-0.375 1.20313,-0.375z" fill="#ffffff" fill-rule="nonzero" stroke="#000000" stroke-width="2.5" stroke-linecap="square"/><path d="M242.6208,132.1041h-7.4375c-2.84375,0 -4.89062,-0.59375 -6.14062,-1.78125c-1.25,-1.1875 -1.875,-3.03125 -1.875,-5.53125v-15.4375c0,-0.5625 0.125,-0.96875 0.375,-1.21875c0.25,-0.25 0.65625,-0.375 1.21875,-0.375h6.8125c0.5625,0 0.96875,0.125 1.21875,0.375c0.25,0.25 0.375,0.65625 0.375,1.21875v12.04688c0,0.46875 0.125,0.83854 0.375,1.10938c0.25,0.26042 0.57813,0.39063 0.98438,0.39063h4.09375v-13.54687c0,-0.5625 0.125,-0.96875 0.375,-1.21875c0.25,-0.25 0.65104,-0.375 1.20313,-0.375h6.78125c0.55208,0 0.95313,0.125 1.20313,0.375c0.25,0.25 0.375,0.65625 0.375,1.21875v28.51563c0,0.55208 -0.125,0.95313 -0.375,1.20313c-0.25,0.25 -0.65104,0.375 -1.20312,0.375h-6.78125c-0.55208,0 -0.95312,-0.125 -1.20312,-0.375c-0.25,-0.25 -0.375,-0.65104 -0.375,-1.20312z" fill="#ffffff" fill-rule="nonzero" stroke="#000000" stroke-width="2.5" stroke-linecap="square"/><path d="M243.76605,192.24783h-14c-0.55208,0 -0.95312,-0.125 -1.20312,-0.375c-0.25,-0.25 -0.375,-0.65104 -0.375,-1.20312v-5.15625c0,-0.55208 0.125,-0.95312 0.375,-1.20312c0.25,-0.25 0.65104,-0.375 1.20313,-0.375h11.35938c0.35417,0 0.64063,-0.07812 0.85938,-0.23437c0.21875,-0.16667 0.32813,-0.42708 0.32813,-0.78125v-1.71875c0,-0.35417 -0.10937,-0.60937 -0.32812,-0.76562c-0.21875,-0.16667 -0.50521,-0.25 -0.85937,-0.25h-10.92187c-0.55208,0 -0.95312,-0.11979 -1.20312,-0.35937c-0.25,-0.25 -0.375,-0.65625 -0.375,-1.21875v-16.45312c0,-0.5625 0.125,-0.96875 0.375,-1.21875c0.25,-0.25 0.65104,-0.375 1.20313,-0.375h18.96875c0.5625,0 0.96354,0.125 1.20313,0.375c0.25,0.25 0.375,0.65625 0.375,1.21875v5.23438c0,0.55208 -0.125,0.95313 -0.375,1.20313c-0.23958,0.25 -0.64062,0.375 -1.20312,0.375h-10.5625v2.85938h6.03125c2.375,0 4.25,0.58854 5.625,1.76563c1.38542,1.17708 2.07813,2.92188 2.07813,5.23438v6.125c0,2.22917 -0.77083,4.00521 -2.3125,5.32813c-1.54167,1.3125 -3.63021,1.96875 -6.26562,1.96875z" fill="#ffffff" fill-rule="nonzero" stroke="#000000" stroke-width="2.5" stroke-linecap="square"/><path d="M240.50403,245.70407c-2.69792,0 -4.90625,-0.21354 -6.625,-0.64062c-1.70833,-0.41667 -3.04687,-1.01562 -4.01562,-1.79687c-0.96875,-0.78125 -1.64062,-1.71354 -2.01562,-2.79687c-0.36458,-1.08333 -0.54687,-2.30208 -0.54687,-3.65625v-14.42187c0,-2.66667 0.77083,-4.83854 2.3125,-6.51562c1.54167,-1.67708 4.38021,-2.51562 8.51563,-2.51562h10.125c0.55208,0 0.95313,0.125 1.20313,0.375c0.25,0.25 0.375,0.65625 0.375,1.21875v5.1875c0,0.5625 -0.125,0.96875 -0.375,1.21875c-0.25,0.25 -0.65104,0.375 -1.20312,0.375h-8.23437c-1.08333,0 -1.81771,0.16667 -2.20312,0.5c-0.375,0.33333 -0.5625,1.04167 -0.5625,2.125v0.96875c0.69792,-0.19792 1.51042,-0.35417 2.4375,-0.46875c0.92708,-0.125 1.97396,-0.1875 3.14063,-0.1875c3.96875,0 6.68229,0.66667 8.14063,2c1.46875,1.33333 2.20313,3.30729 2.20313,5.92188v4.21875c0,1.35417 -0.18229,2.57292 -0.54687,3.65625c-0.36458,1.08333 -1.02604,2.01563 -1.98437,2.79688c-0.94792,0.78125 -2.24479,1.38021 -3.89062,1.79688c-1.64583,0.42708 -3.72917,0.64063 -6.25,0.64063zM237.25403,233.51657v2.59375c0,0.46875 0.17188,0.85938 0.51563,1.17188c0.35417,0.3125 1.16146,0.46875 2.42188,0.46875c1.32292,0 2.16146,-0.15625 2.51563,-0.46875c0.35417,-0.3125 0.53125,-0.70312 0.53125,-1.17187v-2.59375c0,-0.4375 -0.17708,-0.80729 -0.53125,-1.10937c-0.35417,-0.3125 -1.19271,-0.46875 -2.51562,-0.46875c-1.26042,0 -2.06771,0.15625 -2.42187,0.46875c-0.34375,0.30208 -0.51562,0.67188 -0.51562,1.10938z" fill="#ffffff" fill-rule="nonzero" stroke="#000000" stroke-width="2.5" stroke-linecap="square"/><path d="M249.9248,266.1603c0.55208,0 0.95313,0.125 1.20313,0.375c0.25,0.25 0.375,0.65625 0.375,1.21875v11.125c0,1.38542 -0.14062,2.5625 -0.42187,3.53125c-0.27083,0.96875 -0.6875,1.77604 -1.25,2.42188c-0.55208,0.63542 -1.26042,1.16667 -2.125,1.59375c-0.86458,0.42708 -1.88542,0.81771 -3.0625,1.17188l-3.25,0.96875v7.70313c0,0.55208 -0.125,0.95313 -0.375,1.20313c-0.25,0.25 -0.65625,0.375 -1.21875,0.375h-7.125c-0.5625,0 -0.96875,-0.125 -1.21875,-0.375c-0.23958,-0.25 -0.35937,-0.65104 -0.35937,-1.20312v-7.96875c0,-1.375 0.13542,-2.54687 0.40625,-3.51562c0.28125,-0.96875 0.69792,-1.77604 1.25,-2.42187c0.5625,-0.64583 1.27604,-1.18229 2.14063,-1.60937c0.86458,-0.42708 1.88542,-0.81771 3.0625,-1.17187l3.5625,-0.96875v-3.95312h-12.0625c-0.55208,0 -0.95312,-0.125 -1.20312,-0.375c-0.25,-0.25 -0.375,-0.65104 -0.375,-1.20312v-5.32812c0,-0.5625 0.125,-0.96875 0.375,-1.21875c0.25,-0.25 0.65104,-0.375 1.20313,-0.375z" fill="#ffffff" fill-rule="nonzero" stroke="#000000" stroke-width="2.5" stroke-linecap="square"/><path d="M253.57678,339.3822v4.26563c0,1.14583 -0.21354,2.1875 -0.64062,3.125c-0.42708,0.9375 -1.15625,1.74479 -2.1875,2.42188c-1.02083,0.67708 -2.40625,1.19792 -4.15625,1.5625c-1.73958,0.36458 -3.93229,0.54688 -6.57812,0.54688c-2.63542,0 -4.83333,-0.18229 -6.59375,-0.54687c-1.76042,-0.36458 -3.15625,-0.88542 -4.1875,-1.5625c-1.02083,-0.67708 -1.74479,-1.48437 -2.17187,-2.42187c-0.42708,-0.9375 -0.64062,-1.97917 -0.64062,-3.125v-4.26562c0,-2.05208 0.44792,-3.63542 1.34375,-4.75c0.89583,-1.11458 2.00521,-1.80208 3.32813,-2.0625c-0.96875,-0.41669 -1.64583,-1.03128 -2.03125,-1.84378c-0.375,-0.82292 -0.5625,-1.79687 -0.5625,-2.92187v-2.54687c0,-1.08333 0.1875,-2.04687 0.5625,-2.89062c0.38542,-0.85417 1.01563,-1.58333 1.89063,-2.1875c0.88542,-0.60417 2.07292,-1.06771 3.5625,-1.39062c1.5,-0.32292 3.34896,-0.48437 5.54688,-0.48437c2.20833,0 4.05208,0.16146 5.53125,0.48438c1.47917,0.32292 2.65104,0.78646 3.51563,1.39063c0.86458,0.60417 1.47917,1.33333 1.84375,2.1875c0.36458,0.84375 0.54688,1.80729 0.54688,2.89063v2.54688c0,1.125 -0.19271,2.09896 -0.57812,2.92188c-0.375,0.8125 -1.04687,1.42709 -2.01562,1.84378c1.32292,0.26042 2.43229,0.94792 3.32813,2.0625c0.89583,1.11458 1.34375,2.69792 1.34375,4.75zM237.24866,329.52279c0,0.46875 0.15104,0.85938 0.45313,1.17188c0.3125,0.3125 1.08333,0.46875 2.3125,0.46875c1.27083,0 2.04167,-0.15625 2.3125,-0.46875c0.28125,-0.3125 0.42188,-0.70312 0.42188,-1.17187v-1.9375c0,-0.4375 -0.14062,-0.80729 -0.42187,-1.10937c-0.27083,-0.3125 -1.04167,-0.46875 -2.3125,-0.46875c-1.22917,0 -2,0.15625 -2.3125,0.46875c-0.30208,0.30208 -0.45312,0.67188 -0.45312,1.10938zM236.15491,341.97595c0,0.46875 0.24479,0.85938 0.73438,1.17188c0.5,0.30208 1.54167,0.45313 3.125,0.45313c1.59375,0 2.63021,-0.15104 3.10938,-0.45312c0.47917,-0.3125 0.71875,-0.70312 0.71875,-1.17187v-2.32812c0,-0.4375 -0.23958,-0.80729 -0.71875,-1.10937c-0.47917,-0.3125 -1.51562,-0.46875 -3.10937,-0.46875c-1.58333,0 -2.625,0.15625 -3.125,0.46875c-0.48958,0.30208 -0.73437,0.67188 -0.73437,1.10938z" fill="#ffffff" fill-rule="nonzero" stroke="#000000" stroke-width="2.5" stroke-linecap="square"/><path d="M241.8634,403.4478h-10.10937c-0.5625,0 -0.96875,-0.125 -1.21875,-0.375c-0.25,-0.25 -0.375,-0.65104 -0.375,-1.20312v-5.20312c0,-0.55208 0.125,-0.95312 0.375,-1.20312c0.25,-0.25 0.65625,-0.375 1.21875,-0.375h8.21875c1.09375,0 1.82813,-0.16667 2.20313,-0.5c0.38542,-0.34375 0.57813,-1.05729 0.57813,-2.14062v-0.96875c-0.70833,0.20833 -1.52604,0.36979 -2.45312,0.48438c-0.91667,0.11458 -1.96354,0.17188 -3.14062,0.17188c-3.95833,0 -6.67187,-0.66667 -8.14062,-2c-1.46875,-1.33333 -2.20312,-3.30729 -2.20312,-5.92187v-4.21875c0,-1.34375 0.18229,-2.55729 0.54688,-3.64062c0.375,-1.09375 1.03646,-2.02604 1.98438,-2.79687c0.95833,-0.78125 2.25521,-1.38542 3.89063,-1.8125c1.64583,-0.42708 3.72917,-0.64062 6.25,-0.64062c2.69792,0 4.90625,0.21354 6.625,0.64063c1.71875,0.42708 3.0625,1.03125 4.03125,1.8125c0.96875,0.77083 1.63542,1.70313 2,2.79688c0.36458,1.08333 0.54688,2.29688 0.54688,3.64063v14.4375c0,2.66667 -0.77083,4.83854 -2.3125,6.51563c-1.54167,1.66667 -4.38021,2.5 -8.51562,2.5zM242.75403,383.29155v-2.59375c0,-0.46875 -0.17708,-0.85417 -0.53125,-1.15625c-0.35417,-0.3125 -1.16146,-0.46875 -2.42187,-0.46875c-1.32292,0 -2.16146,0.15625 -2.51562,0.46875c-0.34375,0.30208 -0.51562,0.6875 -0.51562,1.15625v2.59375c0,0.44792 0.17188,0.82813 0.51563,1.14063c0.35417,0.30208 1.19271,0.45313 2.51563,0.45313c1.26042,0 2.06771,-0.15104 2.42188,-0.45312c0.35417,-0.3125 0.53125,-0.69271 0.53125,-1.14062z" fill="#ffffff" fill-rule="nonzero" stroke="#000000" stroke-width="2.5" stroke-linecap="square"/></g></g></svg>