<svg version="1.1" xmlns="http://www.w3.org/2000/svg" xmlns:xlink="http://www.w3.org/1999/xlink" width="34.21079" height="34.78117" viewBox="0,0,34.21079,34.78117"><g transform="translate(-222.89431,-162.60941)"><g data-paper-data="{&quot;isPaintingLayer&quot;:true}" stroke-linecap="round" stroke-miterlimit="10" stroke-dasharray="" stroke-dashoffset="0" style="mix-blend-mode: normal"><path d="M256.85508,173.9722c-0.00804,0.40437 -0.04417,0.80842 -0.08027,1.21252c-1.22914,12.37005 -17.23852,21.95587 -17.23852,21.95587c0,0 -15.62256,-9.88525 -16.3599,-22.27391c-0.02006,-0.40463 -0.04012,-0.80922 -0.03208,-1.21358c0.11925,-6.00307 4.62676,-10.84459 10.04856,-10.79328c2.75303,0.02605 5.22856,1.29389 6.95759,3.3635c1.8106,-2.0361 4.33551,-3.25661 7.08859,-3.23055c5.42183,0.05133 9.7353,4.97639 9.61605,10.97943" fill="#ff6680" fill-rule="evenodd" stroke="#ff6680" stroke-width="0.5" stroke-linejoin="round"/><path d="M232.85,180h14.3" fill="none" fill-rule="nonzero" stroke="#000000" stroke-width="2.5" stroke-linejoin="miter"/><path d="M239.87681,186.89877l0.24639,-13.79754" fill="none" fill-rule="nonzero" stroke="#000000" stroke-width="2.5" stroke-linejoin="miter"/></g></g></svg>