<svg version="1.1" xmlns="http://www.w3.org/2000/svg" xmlns:xlink="http://www.w3.org/1999/xlink" width="28.37502" height="34.84377" viewBox="0,0,28.37502,34.84377"><g transform="translate(-225.81249,-162.57811)"><g data-paper-data="{&quot;isPaintingLayer&quot;:true}" fill="#ffffff" fill-rule="nonzero" stroke="#000000" stroke-width="2.5" stroke-linecap="square" stroke-linejoin="miter" stroke-miterlimit="10" stroke-dasharray="" stroke-dashoffset="0" style="mix-blend-mode: normal"><path d="M242.10933,196.17181h-10.10937c-0.5625,0 -0.96875,-0.125 -1.21875,-0.375c-0.25,-0.25 -0.375,-0.65104 -0.375,-1.20312v-5.20312c0,-0.55208 0.125,-0.95312 0.375,-1.20312c0.25,-0.25 0.65625,-0.375 1.21875,-0.375h8.21875c1.09375,0 1.82813,-0.16667 2.20313,-0.5c0.38542,-0.34375 0.57813,-1.05729 0.57813,-2.14062v-0.96875c-0.70833,0.20833 -1.52604,0.36979 -2.45312,0.48438c-0.91667,0.11458 -1.96354,0.17188 -3.14062,0.17188c-3.95833,0 -6.67187,-0.66667 -8.14062,-2c-1.46875,-1.33333 -2.20312,-3.30729 -2.20312,-5.92187v-4.21875c0,-1.34375 0.18229,-2.55729 0.54688,-3.64062c0.375,-1.09375 1.03646,-2.02604 1.98438,-2.79687c0.95833,-0.78125 2.25521,-1.38542 3.89063,-1.8125c1.64583,-0.42708 3.72917,-0.64062 6.25,-0.64062c2.69792,0 4.90625,0.21354 6.625,0.64063c1.71875,0.42708 3.0625,1.03125 4.03125,1.8125c0.96875,0.77083 1.63542,1.70313 2,2.79688c0.36458,1.08333 0.54688,2.29688 0.54688,3.64063v14.4375c0,2.66667 -0.77083,4.83854 -2.3125,6.51563c-1.54167,1.66667 -4.38021,2.5 -8.51562,2.5zM242.99996,176.01556v-2.59375c0,-0.46875 -0.17708,-0.85417 -0.53125,-1.15625c-0.35417,-0.3125 -1.16146,-0.46875 -2.42187,-0.46875c-1.32292,0 -2.16146,0.15625 -2.51562,0.46875c-0.34375,0.30208 -0.51562,0.6875 -0.51562,1.15625v2.59375c0,0.44792 0.17188,0.82813 0.51563,1.14063c0.35417,0.30208 1.19271,0.45313 2.51563,0.45313c1.26042,0 2.06771,-0.15104 2.42188,-0.45312c0.35417,-0.3125 0.53125,-0.69271 0.53125,-1.14062z"/></g></g></svg>