<svg version="1.1" xmlns="http://www.w3.org/2000/svg" xmlns:xlink="http://www.w3.org/1999/xlink" width="185.5" height="68" viewBox="0,0,185.5,68"><g transform="translate(-147.25,-146)"><g data-paper-data="{&quot;isPaintingLayer&quot;:true}" fill-rule="nonzero" stroke-linejoin="miter" stroke-miterlimit="10" stroke-dasharray="" stroke-dashoffset="0" style="mix-blend-mode: normal"><path d="M149.75,199.5c0,-12.35939 0,-30.8008 0,-38c0,-5.73988 3.4261,-13 9.31613,-13c33.03054,0 143.5475,0 161.86774,0c5.03594,0 9.31613,5.03395 9.31613,12c0,12.35939 0,30.8008 0,38c0,5.73988 -5.04862,13 -9.7043,13c-17.66424,0 -127.55886,0 -161.0914,0c-6.12676,0 -9.7043,-5.03395 -9.7043,-12z" fill="#0087ff" stroke="#f65858" stroke-width="5" stroke-linecap="butt"/><path d="M152.4672,198.91291c0,-11.98728 0,-29.87346 0,-36.85591c0,-5.56707 3.32295,-12.60861 9.03564,-12.60861c32.03607,0 139.22565,0 156.9943,0c4.88432,0 9.03564,4.8824 9.03564,11.63871c0,11.98728 0,29.87346 0,36.85591c0,5.56707 -4.89662,12.60861 -9.41212,12.60861c-17.13242,0 -123.71838,0 -156.24134,0c-5.94229,0 -9.41213,-4.8824 -9.41213,-11.63871z" fill="#ff0000" stroke="#bd0000" stroke-width="5" stroke-linecap="butt"/><path d="M177.70513,196.75h-6.8125c-0.85416,0 -1.46875,-0.23437 -1.84375,-0.70312c-0.375,-0.47916 -0.47916,-1.13541 -0.3125,-1.96875l6.0625,-28.51562c0.17709,-0.77084 0.49479,-1.34896 0.95313,-1.73437c0.46875,-0.38541 1.09375,-0.57812 1.875,-0.57812h13.45313c4.30209,0 7.09896,0.91146 8.39063,2.73438c1.30209,1.82291 1.65625,4.14063 1.0625,6.95313l-1.1875,5.625c-0.58334,2.75 -1.85937,4.98959 -3.82812,6.71875c-1.96875,1.71875 -5.0625,2.57813 -9.28125,2.57813h-4.3125l-1.40625,6.59375c-0.15625,0.76041 -0.46875,1.33334 -0.9375,1.71875c-0.46875,0.38541 -1.09375,0.57813 -1.875,0.57813zM184.92388,173.29688l-1.01562,4.82813h2.82813c0.57291,0 0.96875,-0.13541 1.1875,-0.40625c0.21875,-0.27084 0.36979,-0.61459 0.45313,-1.03125l0.5,-2.32812c0.08334,-0.375 0.08854,-0.64584 0.01563,-0.8125c-0.0625,-0.16666 -0.3125,-0.25 -0.75,-0.25zM223.29119,196.75h-22.39062c-0.85416,0 -1.46875,-0.23437 -1.84375,-0.70312c-0.375,-0.47916 -0.47916,-1.13541 -0.3125,-1.96875l6.0625,-28.51562c0.17709,-0.77084 0.49479,-1.34896 0.95313,-1.73437c0.46875,-0.38541 1.09375,-0.57812 1.875,-0.57812h6.8125c0.85416,0 1.46875,0.23959 1.84375,0.71875c0.38541,0.47916 0.48438,1.13541 0.29688,1.96875l-4.39062,20.6875h4.15625l1.35938,-6.40625c0.15625,-0.77084 0.46875,-1.34896 0.9375,-1.73437c0.47916,-0.38541 1.10938,-0.57812 1.89063,-0.57812h6.375c0.86459,0 1.47396,0.23959 1.82813,0.71875c0.36459,0.47916 0.46354,1.13541 0.29688,1.96875l-2.95312,13.85938c-0.15625,0.75 -0.46875,1.32291 -0.9375,1.71875c-0.45834,0.38541 -1.07812,0.57813 -1.85937,0.57813zM246.91802,173.875l-2.76562,5.3125h4.40625l-0.53125,-5.64062c-0.02084,-0.0625 0.00521,-0.11979 0.07813,-0.17187c0.08334,-0.0625 0.125,0 0.125,0.1875h-1.09375c0,-0.07291 -0.01041,-0.07812 -0.03125,-0.01562c-0.02084,0.0625 -0.08334,0.17188 -0.1875,0.32813zM240.08989,194.45313c-0.15625,0.76041 -0.46875,1.33334 -0.9375,1.71875c-0.46875,0.38541 -1.09375,0.57813 -1.875,0.57813h-6.46875c-0.84375,0 -1.45312,-0.23437 -1.82812,-0.70312c-0.375,-0.47916 -0.47916,-1.13541 -0.3125,-1.96875l2.48438,-11.625c0.1875,-0.9375 0.55729,-2 1.10938,-3.1875c0.55209,-1.19791 1.28646,-2.57291 2.20313,-4.125l5.95313,-9.98437c0.36459,-0.625 0.82291,-1.09896 1.375,-1.42187c0.5625,-0.32291 1.21354,-0.48437 1.95313,-0.48437h11.84375c0.77084,0 1.40104,0.1875 1.89062,0.5625c0.48959,0.375 0.78646,0.92709 0.89063,1.65625l1.70313,9.98438c0.27084,1.5625 0.42188,2.94791 0.45313,4.15625c0.04166,1.19791 -0.03125,2.27084 -0.21875,3.21875l-2.48437,11.625c-0.15625,0.76041 -0.46875,1.33334 -0.9375,1.71875c-0.46875,0.38541 -1.09375,0.57813 -1.875,0.57813h-6.64062c-0.85416,0 -1.49479,-0.22916 -1.92187,-0.6875c-0.41666,-0.46875 -0.53646,-1.13021 -0.35937,-1.98437l1.07813,-5.07812h-5.92187zM276.96917,196.75h-7.125c-0.86459,0 -1.47915,-0.23959 -1.84372,-0.71875c-0.36459,-0.47916 -0.46354,-1.13021 -0.29687,-1.95312l1.14059,-5.3125l-4.65622,-8.73437c-0.54167,-1 -0.85937,-1.89062 -0.95312,-2.67187c-0.08334,-0.79166 0.02604,-1.90625 0.32813,-3.34375l1.79688,-8.45312c0.17709,-0.77084 0.49479,-1.34896 0.95313,-1.73437c0.46875,-0.38541 1.08853,-0.57812 1.85934,-0.57812h6.78125c0.84375,0 1.45313,0.23959 1.82813,0.71875c0.38542,0.47916 0.48438,1.13541 0.29688,1.96875l-1.53125,7.21875c-0.0625,0.26041 -0.10937,0.50521 -0.14062,0.73438c-0.02083,0.21875 0.00521,0.40104 0.07813,0.54688l1.375,3.21875c0.05209,0.125 0.07292,0.1875 0.0625,0.1875c-0.01041,-0.01041 -0.01041,-0.01562 0,-0.01562h0.4375c0.05209,0 0.10938,-0.02084 0.17188,-0.0625c0.07292,-0.04166 0.18229,-0.15625 0.32813,-0.34375l2.73438,-3.21875c0.17709,-0.1875 0.30209,-0.40104 0.375,-0.64062c0.07292,-0.25 0.13542,-0.51041 0.1875,-0.78125l1.53125,-7.21875c0.17709,-0.77084 0.49479,-1.34896 0.95313,-1.73437c0.46875,-0.38541 1.09375,-0.57812 1.875,-0.57812h6.54687c0.85417,0 1.46875,0.23959 1.84375,0.71875c0.38541,0.47916 0.48438,1.13541 0.29688,1.96875l-1.79687,8.45313c-0.30209,1.4375 -0.66667,2.53125 -1.09375,3.28125c-0.41667,0.73959 -1.06771,1.59375 -1.95313,2.5625l-8.4375,8.875l-1.14062,5.34375c-0.15625,0.76041 -0.46875,1.33334 -0.9375,1.71875c-0.46875,0.38541 -1.09375,0.57813 -1.875,0.57813zM304.11412,185.21875h-6.82812c-0.84375,0 -1.45312,-0.23437 -1.82812,-0.70312c-0.36459,-0.46875 -0.48437,-1.10937 -0.35937,-1.92187l2.95313,-17c0.125,-0.77084 0.41146,-1.35416 0.85938,-1.75c0.45833,-0.39584 1.08333,-0.59375 1.875,-0.59375h8.40625c0.85416,0 1.45834,0.24479 1.8125,0.73438c0.36459,0.48959 0.43229,1.15625 0.20313,2l-4.21875,16.96875c-0.19791,0.76041 -0.53646,1.32813 -1.01562,1.70313c-0.47916,0.375 -1.09896,0.5625 -1.85937,0.5625zM302.31725,196.75h-8.09375c-0.86459,0 -1.47916,-0.23959 -1.84375,-0.71875c-0.36459,-0.47916 -0.46354,-1.13021 -0.29687,-1.95312l1.23438,-5.76562c0.15625,-0.77084 0.46875,-1.34896 0.9375,-1.73437c0.46875,-0.38541 1.09375,-0.57812 1.875,-0.57812h8.09375c0.86459,0 1.47396,0.23959 1.82813,0.71875c0.36459,0.47916 0.46354,1.13541 0.29688,1.96875l-1.23437,5.76563c-0.15625,0.75 -0.46875,1.32291 -0.9375,1.71875c-0.45833,0.38541 -1.07812,0.57813 -1.85937,0.57813z" fill="#ca0000" stroke="#9c0000" stroke-width="2.5" stroke-linecap="square"/></g></g></svg>