<svg version="1.1" xmlns="http://www.w3.org/2000/svg" xmlns:xlink="http://www.w3.org/1999/xlink" width="267.99999" height="68" viewBox="0,0,267.99999,68"><g transform="translate(-106,-146)"><g data-paper-data="{&quot;isPaintingLayer&quot;:true}" fill-rule="nonzero" stroke-linejoin="miter" stroke-miterlimit="10" stroke-dasharray="" stroke-dashoffset="0" style="mix-blend-mode: normal"><path d="M108.5,199.5c0,-12.35939 0,-30.8008 0,-38c0,-5.73989 4.99205,-13 13.57419,-13c48.1276,0 209.15787,0 235.85161,0c7.33769,0 13.57419,5.03395 13.57419,12c0,12.35939 0,30.8008 0,38c0,5.73989 -7.35616,13 -14.13978,13c-25.73793,0 -185.86139,0 -234.72043,0c-8.92708,0 -14.13978,-5.03396 -14.13978,-12z" fill="#0087ff" stroke="#1770ff" stroke-width="5" stroke-linecap="butt"/><path d="M112.45915,198.91291c0,-11.98728 0,-29.87347 0,-36.85592c0,-5.56707 4.84175,-12.6086 13.16551,-12.6086c46.67859,0 202.86064,0 228.7507,0c7.11677,0 13.16551,4.8824 13.16551,11.63871c0,11.98728 0,29.87347 0,36.85591c0,5.56707 -7.13469,12.6086 -13.71408,12.6086c-24.96302,0 -180.26556,0 -227.65358,0c-8.65831,0 -13.71406,-4.8824 -13.71406,-11.63871z" fill="#0087ff" stroke="#007cff" stroke-width="5" stroke-linecap="butt"/><path d="M137.50537,194.82243h-13.64925c-0.8486,0 -1.45184,-0.23515 -1.80967,-0.70547c-0.35783,-0.47032 -0.45498,-1.10932 -0.29139,-1.91702l1.08888,-5.06096c0.15336,-0.73613 0.45497,-1.29335 0.90484,-1.67164c0.46009,-0.38851 1.07354,-0.58277 1.84034,-0.58277h11.60953c0.13291,0 0.24538,-0.04601 0.33739,-0.13803c0.09203,-0.10225 0.15847,-0.24537 0.19937,-0.42941c0.05111,-0.24537 0.07668,-0.36807 0.07668,-0.36807c0,-0.01023 -0.04599,-0.01533 -0.13801,-0.01533l-6.30319,-0.92018c-2.1573,-0.30672 -3.82384,-1.07353 -4.99961,-2.30043c-1.17578,-1.2269 -1.47738,-3.20016 -0.90483,-5.91979l0.96619,-4.53953c0.56233,-2.66851 1.86078,-4.71845 3.8954,-6.14982c2.03462,-1.44161 4.54464,-2.16241 7.53009,-2.16241h12.08495c0.8486,0 1.45183,0.23515 1.80967,0.70547c0.36807,0.47032 0.46008,1.11443 0.27604,1.93236l-1.08886,5.13764c-0.15336,0.73613 -0.46008,1.29848 -0.92018,1.68699c-0.44986,0.3783 -1.05819,0.56745 -1.82501,0.56745h-10.06057c-0.13291,0 -0.2505,0.05111 -0.35272,0.15336c-0.10225,0.09203 -0.1738,0.24026 -0.2147,0.44476c-0.04091,0.15336 -0.05623,0.24538 -0.046,0.27606c0.02044,0.02044 0.06645,0.03066 0.13802,0.03066l6.27253,0.87418c2.16751,0.30672 3.8494,1.07352 5.04562,2.30043c1.19623,1.2269 1.50295,3.20528 0.92018,5.93513l-0.96618,4.5242c-0.57254,2.67874 -1.88635,4.73379 -3.9414,6.16517c-2.04483,1.43138 -4.53953,2.14707 -7.48408,2.14707zM166.55828,198.7025h-6.65592c-0.82816,0 -1.43138,-0.23004 -1.80968,-0.69012c-0.36807,-0.46008 -0.46009,-1.10421 -0.27606,-1.93237l0.30674,-1.45694c-2.90365,-0.43964 -4.84114,-1.5234 -5.81243,-3.25128c-0.96107,-1.7381 -1.19111,-3.79828 -0.69012,-6.1805l3.03657,-14.32404c0.30672,-1.42116 0.79748,-2.71963 1.47227,-3.89541c0.67479,-1.18599 1.64099,-2.19818 2.89856,-3.03657c1.2678,-0.84859 2.86788,-1.49784 4.80024,-1.9477c1.93237,-0.46009 4.2737,-0.69013 7.02399,-0.69013c2.76052,0 5.02007,0.23515 6.77862,0.70547c1.75856,0.46009 3.11326,1.13999 4.0641,2.03972c0.96107,0.89973 1.53362,1.96815 1.71766,3.20528c0.18403,1.2269 0.12269,2.55605 -0.18403,3.98743l-3.03657,14.32403c-0.25561,1.16555 -0.6339,2.25953 -1.13488,3.28196c-0.50099,1.01219 -1.186,1.91704 -2.05505,2.71452c-0.85883,0.78725 -1.94259,1.46205 -3.25128,2.02438c-1.29848,0.5521 -2.65316,0.92018 -4.0641,1.10422l-0.36807,1.76367c-0.1738,0.75658 -0.48564,1.31892 -0.93551,1.68699c-0.44986,0.3783 -1.0582,0.56745 -1.82501,0.56745zM163.38367,184.60849c-0.06134,0.28629 -0.01532,0.52143 0.13804,0.70547c0.16359,0.1738 0.8895,0.26072 2.17774,0.26072c1.35981,0 2.21354,-0.12781 2.56116,-0.38341c0.34762,-0.26582 0.5572,-0.58277 0.62878,-0.95084l2.49981,-11.77823c0.06134,-0.25561 0.01023,-0.4703 -0.15336,-0.64411c-0.16359,-0.18403 -0.8895,-0.27606 -2.17774,-0.27606c-1.34959,0 -2.19819,0.13291 -2.54581,0.39874c-0.34762,0.25561 -0.55722,0.55212 -0.62879,0.88952zM212.06682,185.95808c-0.2965,1.41094 -0.78725,2.70941 -1.47227,3.89541c-0.68502,1.18599 -1.65632,2.19309 -2.91388,3.02124c-1.25758,0.82816 -2.8372,1.46716 -4.73889,1.91703c-1.90169,0.44986 -4.2277,0.6748 -6.97798,0.6748c-2.76052,0 -5.00984,-0.23004 -6.74794,-0.69013c-1.73809,-0.46008 -3.08769,-1.12976 -4.04877,-2.00904c-0.96107,-0.87928 -1.53363,-1.93748 -1.71766,-3.17459c-0.18403,-1.24734 -0.1278,-2.5816 0.1687,-4.00276l4.53953,-21.3787c0.1738,-0.75658 0.48564,-1.32403 0.93551,-1.70231c0.46009,-0.3783 1.07354,-0.56743 1.84035,-0.56743h6.77862c0.82816,0 1.42628,0.23515 1.79435,0.70547c0.3783,0.47032 0.47543,1.11443 0.29138,1.93236l-4.18678,19.69173c-0.06134,0.27606 -0.01023,0.5061 0.15336,0.69013c0.16359,0.1738 0.85883,0.26072 2.08573,0.26072c1.32914,0 2.16751,-0.1278 2.51513,-0.3834c0.34762,-0.26582 0.55722,-0.57767 0.6288,-0.93551l4.18679,-19.69172c0.1738,-0.75658 0.48564,-1.32402 0.93551,-1.70231c0.46009,-0.3783 1.06843,-0.56744 1.82502,-0.56744h6.5639c0.83838,0 1.44161,0.23515 1.80967,0.70546c0.3783,0.47032 0.47543,1.11444 0.29139,1.93237zM231.9078,172.37018l-2.71451,5.21433h4.32482l-0.52143,-5.53638c-0.02044,-0.06134 0.00511,-0.11759 0.07668,-0.1687c0.08179,-0.06134 0.1227,0 0.1227,0.18403h-1.07354c0,-0.07157 -0.01023,-0.07667 -0.03068,-0.01533c-0.02044,0.06134 -0.08179,0.16871 -0.18403,0.32207zM225.20587,192.568c-0.15336,0.74636 -0.46009,1.30868 -0.92018,1.68699c-0.46009,0.3783 -1.07353,0.56746 -1.84035,0.56746h-6.34919c-0.82816,0 -1.42627,-0.23004 -1.79433,-0.69012c-0.36807,-0.47032 -0.47032,-1.11445 -0.30673,-1.93238l2.43847,-11.41014c0.18403,-0.92018 0.54698,-1.96304 1.08887,-3.12859c0.54188,-1.17577 1.26269,-2.52538 2.16242,-4.04876l5.84311,-9.79985c0.35783,-0.61345 0.80771,-1.07866 1.34959,-1.39559c0.5521,-0.31696 1.19112,-0.47541 1.91703,-0.47541h11.62486c0.75658,0 1.37515,0.18403 1.85569,0.5521c0.48053,0.36807 0.77193,0.90994 0.87417,1.62564l1.67166,9.79986c0.26583,1.53362 0.41408,2.89344 0.44476,4.07943c0.04091,1.17577 -0.03066,2.22887 -0.21471,3.15927l-2.43845,11.41015c-0.15336,0.74636 -0.4601,1.30868 -0.92018,1.68699c-0.46008,0.3783 -1.07354,0.56745 -1.84034,0.56745h-6.51789c-0.83838,0 -1.46717,-0.22493 -1.88636,-0.67479c-0.40897,-0.46008 -0.52654,-1.10933 -0.35272,-1.94771l1.0582,-4.98427h-5.81243zM262.16119,171.49603l-0.79748,3.75739h2.14706c0.48053,0 0.81793,-0.11246 1.0122,-0.3374c0.20448,-0.23515 0.35273,-0.56743 0.44476,-0.99685l0.30672,-1.45694c0.08179,-0.38851 0.09202,-0.64413 0.03068,-0.76682c-0.05111,-0.13291 -0.26071,-0.19935 -0.62878,-0.19935zM254.9225,194.82243h-6.64058c-0.83838,0 -1.44161,-0.23004 -1.80967,-0.69013c-0.36807,-0.47032 -0.47031,-1.11444 -0.30672,-1.93237l5.95045,-27.98861c0.1738,-0.75658 0.48565,-1.32402 0.93552,-1.70231c0.46008,-0.3783 1.07354,-0.56744 1.84035,-0.56744h14.37001c3.53756,0 5.85333,0.78726 6.94732,2.36178c1.10422,1.5643 1.40582,3.54267 0.90484,5.93512l-0.41408,1.97837c-0.2965,1.31892 -0.75147,2.46914 -1.36492,3.45067c-0.61345,0.97129 -1.07354,1.33425 -1.38026,1.08888c0.79748,-0.25561 1.63076,0.27606 2.49981,1.59497c0.87928,1.30869 1.09909,2.99567 0.65945,5.06095l-1.94769,9.15574c-0.15336,0.74636 -0.46008,1.30868 -0.92017,1.68699c-0.46008,0.3783 -1.06843,0.56745 -1.82501,0.56745h-6.70189c-0.82815,0 -1.42627,-0.23004 -1.79434,-0.69013c-0.36807,-0.47032 -0.47031,-1.11443 -0.30672,-1.93236l1.41094,-6.60992c0.09202,-0.40897 0.11758,-0.639 0.07669,-0.69012c-0.03067,-0.06134 -0.17892,-0.09202 -0.44475,-0.09202h-5.32167l-1.65631,7.76014c-0.15336,0.74636 -0.46009,1.30867 -0.92017,1.68698c-0.46008,0.3783 -1.07354,0.56745 -1.84035,0.56745zM300.39876,194.82243h-20.02911c-0.83839,0 -1.44161,-0.23004 -1.80968,-0.69013c-0.36807,-0.47032 -0.4703,-1.11444 -0.30672,-1.93237l5.95045,-27.98861c0.17381,-0.75658 0.48565,-1.32402 0.93552,-1.70231c0.46008,-0.3783 1.07354,-0.56744 1.84035,-0.56744h20.02912c0.83839,0 1.4416,0.23515 1.80967,0.70547c0.37831,0.47032 0.47542,1.11443 0.29138,1.93236l-1.07353,5.04563c-0.15336,0.75658 -0.46008,1.32404 -0.92018,1.70234c-0.46008,0.3783 -1.07353,0.56744 -1.84035,0.56744h-11.19546l-0.32205,1.54897h7.31538c0.83839,0 1.44161,0.23005 1.80968,0.69013c0.37831,0.46008 0.47542,1.10421 0.29138,1.93237l-0.98151,4.61621c-0.15336,0.75658 -0.46008,1.32403 -0.92016,1.70233c-0.46008,0.3783 -1.07355,0.56745 -1.84036,0.56745h-7.69878l-0.41407,1.93236h10.81205c0.83839,0 1.4416,0.23515 1.80967,0.70547c0.36807,0.46008 0.47031,1.0991 0.30673,1.91703l-1.08886,5.06096c-0.15336,0.74636 -0.4601,1.30867 -0.92018,1.68698c-0.46008,0.3783 -1.07352,0.56745 -1.84034,0.56745zM323.16785,194.82243h-14.55408c-0.83839,0 -1.4416,-0.23004 -1.80967,-0.69013c-0.36807,-0.47032 -0.47032,-1.11444 -0.30673,-1.93237l5.95045,-27.98861c0.17381,-0.75658 0.48564,-1.32402 0.93551,-1.70231c0.46008,-0.3783 1.07354,-0.56744 1.84035,-0.56744h14.5541c3.84429,0 6.57925,0.82305 8.20488,2.46914c1.63587,1.63587 2.10618,4.11011 1.41094,7.42274l-2.86789,13.48055c-0.68502,3.21038 -2.13684,5.59773 -4.35548,7.16203c-2.21864,1.56429 -5.21944,2.34644 -9.00236,2.34644zM322.44705,171.97144l-2.74518,12.91312h4.03344c0.47032,0 0.82815,-0.10225 1.07353,-0.30674c0.24538,-0.21471 0.41919,-0.58277 0.52143,-1.10421l2.23909,-10.48998c0.10224,-0.44986 0.10736,-0.73103 0.01534,-0.84349c-0.08179,-0.11246 -0.32206,-0.16869 -0.7208,-0.16869zM351.22904,183.50429h-6.70193c-0.82815,0 -1.42626,-0.23004 -1.79433,-0.69013c-0.35784,-0.46008 -0.47542,-1.08887 -0.35272,-1.88635l2.89855,-16.68582c0.12268,-0.75658 0.40386,-1.32914 0.8435,-1.71766c0.44986,-0.38851 1.06331,-0.58279 1.84035,-0.58279h8.25089c0.83839,0 1.43138,0.24026 1.779,0.7208c0.35784,0.48053 0.42431,1.13489 0.19939,1.96304l-4.14078,16.65515c-0.19426,0.74636 -0.52654,1.30358 -0.99685,1.67165c-0.47032,0.36807 -1.07865,0.55211 -1.82501,0.55211zM349.46537,194.82243h-7.94417c-0.84859,0 -1.45183,-0.23515 -1.80968,-0.70547c-0.35784,-0.47032 -0.45497,-1.10932 -0.29138,-1.91702l1.21157,-5.65905c0.15336,-0.75658 0.46008,-1.32403 0.92018,-1.70231c0.46008,-0.3783 1.07354,-0.56743 1.84035,-0.56743h7.94417c0.84859,0 1.44672,0.23515 1.79434,0.70546c0.35784,0.47032 0.45497,1.11444 0.29138,1.93237l-1.21156,5.65908c-0.15336,0.73613 -0.46008,1.29848 -0.92017,1.68699c-0.44986,0.3783 -1.0582,0.56746 -1.82501,0.56746z" fill="#006892" stroke="#006892" stroke-width="2.5" stroke-linecap="square"/><path d="M140.33977,194.41253h-13.27179c-0.82513,0 -1.41169,-0.22865 -1.75963,-0.68596c-0.34794,-0.45731 -0.44239,-1.07865 -0.28333,-1.86401l1.05877,-4.921c0.14912,-0.71578 0.44239,-1.25759 0.87982,-1.62542c0.44736,-0.37777 1.04385,-0.56666 1.78945,-0.56666h11.28848c0.12924,0 0.23859,-0.04473 0.32806,-0.13421c0.08948,-0.09942 0.15409,-0.23859 0.19386,-0.41754c0.0497,-0.23859 0.07456,-0.35789 0.07456,-0.35789c0,-0.00995 -0.04472,-0.01491 -0.1342,-0.01491l-6.12888,-0.89473c-2.09764,-0.29824 -3.71809,-1.04385 -4.86135,-2.23682c-1.14326,-1.19297 -1.43653,-3.11166 -0.87981,-5.75608l0.93947,-4.41399c0.54678,-2.59471 1.80933,-4.58796 3.78768,-5.97976c1.97835,-1.40174 4.41896,-2.10261 7.32185,-2.10261h11.75075c0.82514,0 1.41168,0.22865 1.75963,0.68596c0.35789,0.45731 0.44736,1.08361 0.26841,1.87892l-1.05875,4.99557c-0.14912,0.71578 -0.44736,1.26257 -0.89473,1.64034c-0.43742,0.36783 -1.02893,0.55176 -1.77454,0.55176h-9.78235c-0.12924,0 -0.24357,0.0497 -0.34297,0.14912c-0.09942,0.08948 -0.169,0.23362 -0.20877,0.43246c-0.03977,0.14912 -0.05467,0.23859 -0.04473,0.26842c0.01988,0.01988 0.06462,0.02982 0.13421,0.02982l6.09906,0.85c2.10757,0.29824 3.74295,1.04384 4.90609,2.23682c1.16315,1.19297 1.46139,3.11664 0.89473,5.771l-0.93946,4.39908c-0.55671,2.60466 -1.83419,4.60288 -3.83241,5.99468c-1.98828,1.3918 -4.41399,2.08769 -7.27711,2.08769zM168.58924,198.18529h-6.47186c-0.80526,0 -1.3918,-0.22368 -1.75963,-0.67104c-0.35789,-0.44736 -0.44736,-1.07367 -0.26842,-1.87893l0.29825,-1.41665c-2.82336,-0.42748 -4.70726,-1.48127 -5.65169,-3.16137c-0.93449,-1.69004 -1.15817,-3.69324 -0.67104,-6.00958l2.9526,-13.92792c0.29824,-1.38186 0.77543,-2.64442 1.43156,-3.78768c0.65613,-1.1532 1.5956,-2.1374 2.8184,-2.9526c1.23274,-0.82513 2.78857,-1.45641 4.6675,-1.89383c1.87893,-0.44737 4.15551,-0.67105 6.82975,-0.67105c2.68418,0 4.88124,0.22865 6.59116,0.68596c1.70992,0.44737 3.02716,1.10847 3.95171,1.98332c0.93449,0.87485 1.49121,1.91372 1.67016,3.11664c0.17894,1.19297 0.1193,2.48535 -0.17894,3.87715l-2.9526,13.92792c-0.24854,1.13332 -0.61637,2.19705 -1.1035,3.1912c-0.48713,0.9842 -1.1532,1.86402 -1.99822,2.63945c-0.83508,0.76548 -1.88887,1.42162 -3.16137,1.9684c-1.26257,0.53683 -2.57979,0.89473 -3.95171,1.07368l-0.35789,1.71489c-0.169,0.73566 -0.47221,1.28245 -0.90964,1.64034c-0.43742,0.36783 -1.02893,0.55176 -1.77454,0.55176zM165.50242,184.48104c-0.05965,0.27837 -0.0149,0.50701 0.13422,0.68596c0.15906,0.169 0.8649,0.25351 2.11752,0.25351c1.32221,0 2.15232,-0.12427 2.49033,-0.3728c0.33801,-0.25847 0.5418,-0.56666 0.6114,-0.92455l2.43068,-11.45251c0.05965,-0.24854 0.00995,-0.4573 -0.14912,-0.6263c-0.15906,-0.17894 -0.8649,-0.26842 -2.11752,-0.26842c-1.31227,0 -2.1374,0.12924 -2.47541,0.38772c-0.33801,0.24854 -0.54181,0.53684 -0.6114,0.86491zM212.83928,185.79331c-0.2883,1.37192 -0.76548,2.63448 -1.43156,3.78768c-0.66608,1.1532 -1.61051,2.13244 -2.8333,2.93769c-1.2228,0.80526 -2.75874,1.42659 -4.60784,1.86402c-1.8491,0.43742 -4.11078,0.65613 -6.78501,0.65613c-2.68418,0 -4.8713,-0.22368 -6.56133,-0.67104c-1.69003,-0.44736 -3.00231,-1.09852 -3.9368,-1.95348c-0.93449,-0.85496 -1.49121,-1.8839 -1.67015,-3.0868c-0.17894,-1.21285 -0.12427,-2.51021 0.16403,-3.89206l4.41399,-20.78749c0.169,-0.73566 0.47221,-1.28742 0.90964,-1.65524c0.44737,-0.36783 1.04385,-0.55174 1.78946,-0.55174h6.59116c0.80526,0 1.38684,0.22865 1.74473,0.68596c0.36783,0.45731 0.46228,1.08361 0.28333,1.87892l-4.071,19.14717c-0.05965,0.26842 -0.00995,0.49211 0.14912,0.67105c0.15906,0.169 0.83508,0.25351 2.02805,0.25351c1.29238,0 2.10757,-0.12427 2.44558,-0.3728c0.33801,-0.25847 0.54181,-0.56169 0.61141,-0.90964l4.07101,-19.14716c0.169,-0.73566 0.47221,-1.28741 0.90964,-1.65524c0.44737,-0.36783 1.03888,-0.55175 1.77455,-0.55175h6.38238c0.8152,0 1.40174,0.22865 1.75963,0.68595c0.36783,0.45731 0.46228,1.08362 0.28333,1.87893zM232.13157,172.58118l-2.63944,5.07012h4.20522l-0.50701,-5.38327c-0.01988,-0.05965 0.00497,-0.11433 0.07456,-0.16403c0.07953,-0.05965 0.1193,0 0.1193,0.17894h-1.04385c0,-0.06959 -0.00995,-0.07455 -0.02983,-0.0149c-0.01988,0.05965 -0.07953,0.16404 -0.17894,0.31316zM225.61498,192.22045c-0.14912,0.72572 -0.44736,1.2725 -0.89473,1.64034c-0.44737,0.36783 -1.04385,0.55176 -1.78946,0.55176h-6.17361c-0.80526,0 -1.38683,-0.22368 -1.74471,-0.67104c-0.35789,-0.45731 -0.45731,-1.08362 -0.29824,-1.87893l2.37103,-11.09461c0.17894,-0.89473 0.53186,-1.90875 1.05876,-3.04207c0.52689,-1.14326 1.22777,-2.45554 2.10262,-3.9368l5.68152,-9.52884c0.34794,-0.59649 0.78538,-1.04883 1.31227,-1.357c0.53683,-0.30819 1.15818,-0.46227 1.86402,-0.46227h11.30339c0.73566,0 1.33711,0.17895 1.80437,0.53684c0.46724,0.35789 0.75059,0.88478 0.85,1.58068l1.62543,9.52885c0.25848,1.49121 0.40263,2.81342 0.43246,3.96662c0.03977,1.14326 -0.02982,2.16723 -0.20877,3.0719l-2.37102,11.09461c-0.14912,0.72572 -0.44737,1.2725 -0.89473,1.64034c-0.44736,0.36783 -1.04385,0.55175 -1.78945,0.55175h-6.33764c-0.8152,0 -1.42659,-0.21871 -1.83419,-0.65613c-0.39766,-0.44736 -0.51198,-1.07865 -0.34297,-1.89384l1.02894,-4.84643h-5.65169zM261.54835,171.7312l-0.77543,3.65348h2.08769c0.46724,0 0.79531,-0.10935 0.9842,-0.32807c0.19882,-0.22865 0.34298,-0.55174 0.43246,-0.96928l0.29824,-1.41665c0.07953,-0.37777 0.08948,-0.62631 0.02983,-0.74561c-0.0497,-0.12924 -0.2535,-0.19385 -0.61139,-0.19385zM254.50982,194.41253h-6.45694c-0.8152,0 -1.40174,-0.22368 -1.75963,-0.67104c-0.35789,-0.45731 -0.45731,-1.08362 -0.29824,-1.87893l5.7859,-27.21461c0.169,-0.73566 0.47222,-1.28741 0.90965,-1.65524c0.44736,-0.36783 1.04385,-0.55175 1.78946,-0.55175h13.97262c3.43973,0 5.69146,0.76549 6.7552,2.29647c1.07368,1.52104 1.36694,3.4447 0.87982,5.77099l-0.40263,1.92366c-0.2883,1.28244 -0.73069,2.40086 -1.32718,3.35524c-0.59649,0.94443 -1.04385,1.29736 -1.34209,1.05877c0.77543,-0.24854 1.58566,0.26842 2.43068,1.55086c0.85496,1.2725 1.0687,2.91283 0.64122,4.921l-1.89383,8.90254c-0.14912,0.72572 -0.44736,1.2725 -0.89473,1.64034c-0.44736,0.36783 -1.03888,0.55175 -1.77454,0.55175h-6.51656c-0.80525,0 -1.38683,-0.22368 -1.74472,-0.67104c-0.35789,-0.45731 -0.4573,-1.08361 -0.29824,-1.87892l1.37192,-6.42712c0.08947,-0.39766 0.11433,-0.62133 0.07457,-0.67104c-0.02982,-0.05965 -0.17397,-0.08948 -0.43245,-0.08948h-5.17451l-1.6105,7.54554c-0.14912,0.72572 -0.44737,1.27249 -0.89473,1.64033c-0.44736,0.36783 -1.04385,0.55176 -1.78946,0.55176zM298.72848,194.41253h-19.47523c-0.8152,0 -1.40174,-0.22368 -1.75963,-0.67104c-0.35789,-0.45731 -0.4573,-1.08362 -0.29824,-1.87893l5.7859,-27.21461c0.169,-0.73566 0.47222,-1.28741 0.90965,-1.65524c0.44736,-0.36783 1.04385,-0.55175 1.78946,-0.55175h19.47523c0.8152,0 1.40174,0.22865 1.75963,0.68596c0.36784,0.45731 0.46228,1.08361 0.28333,1.87892l-1.04385,4.9061c-0.14912,0.73566 -0.44736,1.28742 -0.89473,1.65525c-0.44736,0.36783 -1.04385,0.55175 -1.78946,0.55175h-10.88585l-0.31315,1.50613h7.11308c0.8152,0 1.40174,0.22369 1.75963,0.67105c0.36784,0.44736 0.46228,1.07367 0.28333,1.87893l-0.95437,4.48855c-0.14912,0.73566 -0.44736,1.28742 -0.89472,1.65525c-0.44736,0.36783 -1.04385,0.55176 -1.78946,0.55176h-7.48588l-0.40262,1.87892h10.51305c0.8152,0 1.40174,0.22865 1.75963,0.68596c0.35789,0.44736 0.4573,1.0687 0.29824,1.86402l-1.05875,4.921c-0.14912,0.72572 -0.44737,1.27249 -0.89473,1.64033c-0.44736,0.36783 -1.04384,0.55176 -1.78945,0.55176zM320.86793,194.41253h-14.1516c-0.8152,0 -1.40174,-0.22368 -1.75963,-0.67104c-0.35789,-0.45731 -0.45731,-1.08362 -0.29825,-1.87893l5.7859,-27.21461c0.169,-0.73566 0.47221,-1.28741 0.90964,-1.65524c0.44736,-0.36783 1.04385,-0.55175 1.78946,-0.55175h14.15161c3.73798,0 6.39731,0.80029 7.97799,2.40086c1.59063,1.59063 2.04793,3.99644 1.37192,7.21747l-2.78857,13.10776c-0.66608,3.1216 -2.07775,5.44293 -4.23504,6.96397c-2.15729,1.52103 -5.0751,2.28155 -8.75341,2.28155zM320.16704,172.19346l-2.66926,12.55601h3.9219c0.45731,0 0.80525,-0.09942 1.04385,-0.29825c0.2386,-0.20877 0.4076,-0.56666 0.50701,-1.07367l2.17717,-10.19989c0.09941,-0.43742 0.10439,-0.71081 0.01492,-0.82016c-0.07953,-0.10935 -0.31315,-0.16403 -0.70086,-0.16403zM348.15309,183.40737h-6.51659c-0.80525,0 -1.38682,-0.22368 -1.74471,-0.67104c-0.34795,-0.44736 -0.46227,-1.05876 -0.34297,-1.83419l2.8184,-16.22438c0.11929,-0.73566 0.39269,-1.29238 0.82017,-1.67016c0.43742,-0.37777 1.03391,-0.56667 1.78946,-0.56667h8.02272c0.8152,0 1.3918,0.23362 1.7298,0.70087c0.34795,0.46724 0.41257,1.1035 0.19387,1.90875l-4.02627,16.19456c-0.18889,0.72572 -0.51198,1.26754 -0.96928,1.62543c-0.45731,0.35789 -1.04882,0.53684 -1.77454,0.53684zM346.43819,194.41253h-7.72448c-0.82513,0 -1.41168,-0.22865 -1.75963,-0.68596c-0.34795,-0.45731 -0.44239,-1.07865 -0.28332,-1.86401l1.17806,-5.50256c0.14912,-0.73566 0.44736,-1.28742 0.89473,-1.65524c0.44736,-0.36783 1.04385,-0.55174 1.78946,-0.55174h7.72448c0.82513,0 1.40671,0.22865 1.74472,0.68595c0.34795,0.45731 0.44239,1.08362 0.28333,1.87893l-1.17805,5.50258c-0.14912,0.71578 -0.44736,1.26257 -0.89473,1.64034c-0.43742,0.36783 -1.02893,0.55176 -1.77454,0.55176z" fill="#00b5ff" stroke="#005fff" stroke-width="0" stroke-linecap="square"/></g></g></svg>