<svg version="1.1" xmlns="http://www.w3.org/2000/svg" xmlns:xlink="http://www.w3.org/1999/xlink" width="616.47667" height="480" viewBox="0,0,616.47667,480"><g transform="translate(-12.26167,0)"><g data-paper-data="{&quot;isPaintingLayer&quot;:true}" fill="#000000" fill-rule="nonzero" stroke="none" stroke-width="0" stroke-linecap="butt" stroke-linejoin="miter" stroke-miterlimit="10" stroke-dasharray="" stroke-dashoffset="0" style="mix-blend-mode: normal"><path d="M12.26167,479.94239v-479.88478h35.05456v479.88478z"/><path d="M627.52342,40.00489l-603.17812,-0.13106l0.01027,-39.87383l603.17812,0.13106z" data-paper-data="{&quot;index&quot;:null}"/><path d="M620.27095,480l-592.29931,-0.13899l0.01008,-42.28346l592.29931,0.13899z" data-paper-data="{&quot;index&quot;:null}"/><path d="M585.22233,479.94239v-478.676h43.516v478.676z"/><path d="M186.32567,460.60195v-61.64767h26.59311v61.64767z"/><path d="M180.28178,102.86231v-87.09059h30.21944v87.09059z"/><path d="M34.98779,234.5605v-27.80189h87.96479v27.80189z"/><path d="M102.92,137.85828v-107.58122h26.59311v107.58122z"/><path d="M499.10616,128.18806v-105.16367h33.84578v105.16367z"/><path d="M511.48689,236.97806v-32.637h89.44956v32.637z"/><path d="M510.60828,445.18817v-76.153h33.84578v76.153z"/><path d="M373.67876,332.80186c0,26.36979 -23.54168,47.74672 -52.58183,47.74672c-29.04015,0 -52.58183,-21.37693 -52.58183,-47.74672c0,-26.36979 23.54168,-47.74672 52.58183,-47.74672c29.04015,0 52.58183,21.37693 52.58183,47.74672z"/><path d="M97.42456,455.4665v-78.85597h36.26333v78.85597z"/><path d="M273.68783,182.58306v-101.53733h101.53733v101.53733z"/><path d="M102.92,163.41838v-27.97766h77.36178v27.97766z"/><path d="M511.48689,296.20817v-67.69156h30.21944v67.69156z"/><path d="M413.57589,246.64828v-235.71167h43.80895v235.71167z"/><path d="M18.30555,336.09783v-25.38433h107.03278v25.38433z"/></g></g></svg>