<svg version="1.1" xmlns="http://www.w3.org/2000/svg" xmlns:xlink="http://www.w3.org/1999/xlink" width="27.89064" height="34.18753" viewBox="0,0,27.89064,34.18753"><g transform="translate(-226.05468,-162.90624)"><g data-paper-data="{&quot;isPaintingLayer&quot;:true}" fill="#ffffff" fill-rule="nonzero" stroke="#000000" stroke-width="2.5" stroke-linecap="square" stroke-linejoin="miter" stroke-miterlimit="10" stroke-dasharray="" stroke-dashoffset="0" style="mix-blend-mode: normal"><path d="M242.7578,188.49998h-7.4375c-2.84375,0 -4.89062,-0.59375 -6.14062,-1.78125c-1.25,-1.1875 -1.875,-3.03125 -1.875,-5.53125v-15.4375c0,-0.5625 0.125,-0.96875 0.375,-1.21875c0.25,-0.25 0.65625,-0.375 1.21875,-0.375h6.8125c0.5625,0 0.96875,0.125 1.21875,0.375c0.25,0.25 0.375,0.65625 0.375,1.21875v12.04688c0,0.46875 0.125,0.83854 0.375,1.10938c0.25,0.26042 0.57813,0.39063 0.98438,0.39063h4.09375v-13.54687c0,-0.5625 0.125,-0.96875 0.375,-1.21875c0.25,-0.25 0.65104,-0.375 1.20313,-0.375h6.78125c0.55208,0 0.95313,0.125 1.20313,0.375c0.25,0.25 0.375,0.65625 0.375,1.21875v28.51563c0,0.55208 -0.125,0.95313 -0.375,1.20313c-0.25,0.25 -0.65104,0.375 -1.20312,0.375h-6.78125c-0.55208,0 -0.95312,-0.125 -1.20312,-0.375c-0.25,-0.25 -0.375,-0.65104 -0.375,-1.20312z"/></g></g></svg>